<svg xmlns="http://www.w3.org/2000/svg" viewBox="0 0 356 356"><defs><style>.cls-1{fill:#3ca738;stroke:#1f140f;stroke-miterlimit:10;}.cls-2{fill:#010001;}</style></defs><title>Recurso 3</title><g id="Capa_2" data-name="Capa 2"><g id="Capa_1-2" data-name="Capa 1"><rect class="cls-1" x="0.5" y="0.5" width="355" height="355"/><path class="cls-2" d="M85.2,233.38a.91.91,0,0,1,.71-.23.77.77,0,0,1,.57.38c.54,1.17.27,2.84-.79,5A44.89,44.89,0,0,1,81,245.81q-3.09,4-6.87,8.11l-.84.89a47.47,47.47,0,0,1-.67,9.34A29.67,29.67,0,0,1,70,272.32a18.76,18.76,0,0,1-4.87,6.18,13.66,13.66,0,0,1-4.87,2.78,6.49,6.49,0,0,1-3.8.06,5.35,5.35,0,0,1-2.52-1.65,6,6,0,0,1-1.28-3.34,8.38,8.38,0,0,1,.7-4.12,10.27,10.27,0,0,1,3.07-3.91q5.85-4.8,11.45-10.19a64.05,64.05,0,0,0-1.94-9.82,69.51,69.51,0,0,0-3.4-9.51A48.73,48.73,0,0,0,58,230.66,22.86,22.86,0,0,0,52.54,225a10.49,10.49,0,0,0-6-2.11,9.85,9.85,0,0,0-6.35,2.6q-6.16,5.06-7.09,14.3a48.5,48.5,0,0,0,2,17.38A94.85,94.85,0,0,0,40,270.43q2.63,5.61,3.56,7.17,8.9,10.13,16.85,18.21t11.81,11.57a2.19,2.19,0,0,1,.63,1.86,2.74,2.74,0,0,1-1,1.86,3,3,0,0,1-1.75.69,2.38,2.38,0,0,1-1.65-.53q-3.57-3.22-11.7-11.15t-17.3-18a215.38,215.38,0,0,1-16-19.6q-6.84-9.54-7.91-16a3.17,3.17,0,0,1,1.19-2.71,3,3,0,0,1,2.55-.74A2.32,2.32,0,0,1,21,244.64a55.78,55.78,0,0,0,6.65,12.62q4.74,7,11,14.59a99.17,99.17,0,0,1-5.21-14q-2.8-10.14-2-18,1-10,7.82-15.54a20.61,20.61,0,0,1,8.8-4.62,13.74,13.74,0,0,1,7.87.58,18.32,18.32,0,0,1,6.68,4.65,32.88,32.88,0,0,1,5.28,7.67,48.19,48.19,0,0,1,3.63,9.62,55.55,55.55,0,0,1,1.73,10.47q3-3.26,6-6.9a51.79,51.79,0,0,0,4.71-6.72c1.17-2.05,1.52-3.6,1.06-4.63a.89.89,0,0,1,0-.56A1.07,1.07,0,0,1,85.2,233.38ZM64.13,277.31a11.25,11.25,0,0,0,3.57-6.8A37.47,37.47,0,0,0,68.08,260c-2.26,2.15-4.34,4.05-6.26,5.71s-3.41,2.91-4.44,3.77a8.36,8.36,0,0,0-2.48,3.12,6.55,6.55,0,0,0-.6,3.29,4.72,4.72,0,0,0,1,2.63,3.81,3.81,0,0,0,2,1.24,5.38,5.38,0,0,0,3-.17A12.18,12.18,0,0,0,64.13,277.31Z"/><path class="cls-2" d="M72.09,311.52a3.6,3.6,0,0,1-2.16.85,2.88,2.88,0,0,1-2-.65c-2.41-2.17-6.35-5.92-11.73-11.17s-11.23-11.32-17.32-18a219,219,0,0,1-16.05-19.64c-4.59-6.39-7.28-11.85-8-16.21a3.84,3.84,0,0,1,1.43-3.3,3.64,3.64,0,0,1,3.1-.88,2.77,2.77,0,0,1,2.19,1.85,56,56,0,0,0,6.6,12.53c2.39,3.54,5.09,7.22,8.06,11-1.17-2.95-2.3-6.24-3.37-9.84a50.53,50.53,0,0,1-2.07-18.16c.7-6.8,3.41-12.18,8.06-16A21.48,21.48,0,0,1,48,219.12a14.4,14.4,0,0,1,8.19.61A18.83,18.83,0,0,1,63,224.5a33.6,33.6,0,0,1,5.35,7.78A48.5,48.5,0,0,1,72,242a56.92,56.92,0,0,1,1.65,9.34c1.68-1.86,3.36-3.83,5-5.86a50.93,50.93,0,0,0,4.64-6.62c1.07-1.87,1.41-3.26,1-4.13a1.45,1.45,0,0,1,0-.92,1.73,1.73,0,0,1,1.77-1.22,1.26,1.26,0,0,1,.92.59c.64,1.38.37,3.23-.77,5.55a45.85,45.85,0,0,1-4.76,7.39c-2.07,2.68-4.39,5.43-6.91,8.16l-.65.69a48.41,48.41,0,0,1-.7,9.2,30.4,30.4,0,0,1-2.7,8.35,19.67,19.67,0,0,1-5.06,6.41,14.33,14.33,0,0,1-5.13,2.91,7.23,7.23,0,0,1-4.14.07,5.88,5.88,0,0,1-2.74-1.81,6.54,6.54,0,0,1-1.4-3.6,9.15,9.15,0,0,1,.75-4.4,11,11,0,0,1,3.28-4.19c3.78-3.1,7.54-6.44,11.17-9.92a63.91,63.91,0,0,0-1.9-9.44A67.22,67.22,0,0,0,62,239.1,47.35,47.35,0,0,0,57.47,231a22.56,22.56,0,0,0-5.32-5.56,10.08,10.08,0,0,0-5.75-2,9.25,9.25,0,0,0-5.91,2.44c-3.94,3.23-6.24,7.89-6.84,13.85a48.4,48.4,0,0,0,2,17.19,95.39,95.39,0,0,0,4.89,13.18c1.74,3.71,2.93,6.1,3.54,7.13,5.83,6.63,11.49,12.75,16.78,18.12s9.24,9.24,11.79,11.55a2.69,2.69,0,0,1,.78,2.28A3.36,3.36,0,0,1,72.09,311.52ZM17,244.23a2.56,2.56,0,0,0-.94,2.19c.69,4.15,3.33,9.46,7.83,15.74a217,217,0,0,0,16,19.56c6.07,6.66,11.89,12.7,17.28,18s9.29,9,11.68,11.13a1.84,1.84,0,0,0,1.27.4,2.23,2.23,0,0,0,1.35-.53,2.05,2.05,0,0,0,.8-1.41,1.75,1.75,0,0,0-.5-1.47c-2.54-2.3-6.52-6.2-11.81-11.56S48.93,284.73,43,278c-.68-1.12-1.89-3.54-3.64-7.28a97.77,97.77,0,0,1-4.94-13.32,49.17,49.17,0,0,1-2-17.58c.63-6.32,3.1-11.28,7.34-14.75a10.51,10.51,0,0,1,6.79-2.77,11.14,11.14,0,0,1,6.34,2.2,23.64,23.64,0,0,1,5.54,5.78,48.57,48.57,0,0,1,4.58,8.22,70.55,70.55,0,0,1,3.43,9.58,66,66,0,0,1,2,9.89l0,.3-.24.23c-3.73,3.59-7.6,7-11.49,10.23a9.57,9.57,0,0,0-2.88,3.64,7.88,7.88,0,0,0-.65,3.83,5.65,5.65,0,0,0,1.18,3.08,4.87,4.87,0,0,0,2.3,1.5,5.91,5.91,0,0,0,3.45-.07,12.78,12.78,0,0,0,4.61-2.64,18,18,0,0,0,4.68-5.94,29.63,29.63,0,0,0,2.59-8,47,47,0,0,0,.67-9.22v-.25l.2-.21.83-.88c2.48-2.69,4.78-5.41,6.82-8.06a44.18,44.18,0,0,0,4.62-7.15c1-2,1.23-3.51.76-4.54a.3.3,0,0,0-.19-.1.31.31,0,0,0-.28.22.3.3,0,0,0,0,.21c.53,1.2.17,2.88-1.11,5.13a52.35,52.35,0,0,1-4.78,6.82c-2,2.42-4,4.75-6,6.93l-.93,1-.08-1.23a56.11,56.11,0,0,0-1.71-10.37,48.44,48.44,0,0,0-3.6-9.52,32.85,32.85,0,0,0-5.21-7.57,17.82,17.82,0,0,0-6.5-4.52,13.14,13.14,0,0,0-7.54-.57,20.07,20.07,0,0,0-8.5,4.47c-4.36,3.58-6.9,8.65-7.56,15.1a49.22,49.22,0,0,0,2,17.76,97.74,97.74,0,0,0,5.18,14l2.16,4.57-3.2-3.86c-4.15-5-7.85-9.94-11-14.62a56.41,56.41,0,0,1-6.71-12.74A1.84,1.84,0,0,0,19,243.65,2.32,2.32,0,0,0,17,244.23Zm47.52,33.5a12.6,12.6,0,0,1-4.15,2.44,5.9,5.9,0,0,1-3.29.18,4.28,4.28,0,0,1-2.22-1.4,5.18,5.18,0,0,1-1.1-2.89,7.2,7.2,0,0,1,.65-3.59A9.13,9.13,0,0,1,57,269.09c1-.85,2.53-2.12,4.43-3.76s4-3.54,6.24-5.68l.88-.84.09,1.08a37.88,37.88,0,0,1-.38,10.64A12,12,0,0,1,64.47,277.73Zm3.1-16.47c-1.93,1.81-3.74,3.45-5.4,4.88-1.9,1.65-3.4,2.92-4.45,3.78a7.82,7.82,0,0,0-2.28,2.86,6.24,6.24,0,0,0-.55,3,4.23,4.23,0,0,0,.9,2.36,3.23,3.23,0,0,0,1.72,1.08,4.73,4.73,0,0,0,2.62-.16,11.41,11.41,0,0,0,3.66-2.18,10.7,10.7,0,0,0,3.33-6.4A36,36,0,0,0,67.57,261.26Z"/><path class="cls-2" d="M110.7,214.55a1,1,0,0,1,.66-.25.61.61,0,0,1,.54.3q2.66,4.08.69,10a23.28,23.28,0,0,1-5,8.08.24.24,0,0,0,0,.12q.57,7.13-4,10.9A10,10,0,0,1,98,246.13a9.86,9.86,0,0,1-5.21-1,12.88,12.88,0,0,1-4.18-3.36A13.54,13.54,0,0,1,86.12,237a16.25,16.25,0,0,1-3.43-3.19,9.53,9.53,0,0,1-2-8A12.64,12.64,0,0,1,85.41,218a10.06,10.06,0,0,1,8.66-2.32q4.73.91,8.66,5.72a22.37,22.37,0,0,1,4.54,9.27,21.1,21.1,0,0,0,3.72-6.47q1.71-5.13-.55-8.58a.81.81,0,0,1-.09-.57A1,1,0,0,1,110.7,214.55Zm-4.9,17.75a20.66,20.66,0,0,0-4.45-9.73,14.82,14.82,0,0,0-7.26-5.11,8.25,8.25,0,0,0-7.71,1.76,10.83,10.83,0,0,0-4,6.66,8.11,8.11,0,0,0,1.67,6.84,17.29,17.29,0,0,0,1.57,1.69,7.79,7.79,0,0,1,1.59-5.12,2.24,2.24,0,0,1,1.06-.72,1.92,1.92,0,0,1,1.23,0,1.47,1.47,0,0,1,1,1.51,9.57,9.57,0,0,0,.88,3.47,25.49,25.49,0,0,0,2.33,4.32h.53a16.91,16.91,0,0,0,9.93-4.13C104.74,233.27,105.28,232.8,105.8,232.3Zm-3.19,10.16a8.25,8.25,0,0,0,2.83-4,11.91,11.91,0,0,0,.55-4.23l-.83.68a19.17,19.17,0,0,1-10.24,4.54A13.62,13.62,0,0,0,97.45,242a6.42,6.42,0,0,0,2.67,1.24A3,3,0,0,0,102.61,242.46Z"/><path class="cls-2" d="M103.93,244.07a10.68,10.68,0,0,1-6,2.63,10.4,10.4,0,0,1-5.49-1.07,13.49,13.49,0,0,1-4.34-3.48,14.08,14.08,0,0,1-2.56-4.71,17.17,17.17,0,0,1-3.39-3.19,10,10,0,0,1-2-8.4,13.37,13.37,0,0,1,4.91-8.24,10.8,10.8,0,0,1,9.21-2.47c3.25.63,6.26,2.61,9,5.89a22.79,22.79,0,0,1,4.36,8.4,20.16,20.16,0,0,0,2.85-5.31c1.07-3.22.9-6-.51-8.11a1.27,1.27,0,0,1-.15-1,1.8,1.8,0,0,1,1.7-1.32,1.1,1.1,0,0,1,1,.53c1.84,2.83,2.09,6.34.74,10.4a24,24,0,0,1-4.94,8.09C108.59,237.62,107.14,241.43,103.93,244.07ZM85.75,218.45a12,12,0,0,0-4.43,7.42,9,9,0,0,0,1.86,7.58,16.15,16.15,0,0,0,3.33,3.11l.13.09,0,.16a13.11,13.11,0,0,0,2.44,4.54,12.46,12.46,0,0,0,4,3.24,8.82,8.82,0,0,0,10.08-1.36c2.9-2.37,4.14-5.73,3.79-10.26a1.24,1.24,0,0,1,0-.16l0-.29.22-.24a22.56,22.56,0,0,0,4.87-7.84c1.24-3.72,1-6.91-.65-9.48,0-.08-.08-.08-.12-.08a.43.43,0,0,0-.33.24.22.22,0,0,0,0,.18c1.58,2.42,1.78,5.46.59,9a22,22,0,0,1-3.85,6.69l-.78.95-.24-1.06a22,22,0,0,0-4.45-9.08c-2.54-3.1-5.35-5-8.37-5.55A9.35,9.35,0,0,0,85.75,218.45ZM103,242.88a3.64,3.64,0,0,1-3,.89A7,7,0,0,1,97,242.44a14.25,14.25,0,0,1-2.61-2.6l-.66-.84,1.18-.13a18.59,18.59,0,0,0,9.87-4.37l1.71-1.4.06,1a12.76,12.76,0,0,1-.58,4.43A9,9,0,0,1,103,242.88Zm-6.86-3a11.18,11.18,0,0,0,1.77,1.63,5.87,5.87,0,0,0,2.44,1.15,2.37,2.37,0,0,0,2-.58,7.72,7.72,0,0,0,2.6-3.67,12.61,12.61,0,0,0,.54-3A20.31,20.31,0,0,1,96.09,239.85Zm8.44-5.71a17.59,17.59,0,0,1-10.33,4.3l-.79,0-.2-.21a26.41,26.41,0,0,1-2.37-4.4,10.17,10.17,0,0,1-.91-3.67,1,1,0,0,0-.7-1,1.39,1.39,0,0,0-.83,0,1.63,1.63,0,0,0-.74.51,7.14,7.14,0,0,0-1.43,4.68l.07,1.61-1.11-1.06a19.47,19.47,0,0,1-1.6-1.73,8.63,8.63,0,0,1-1.78-7.25A11.54,11.54,0,0,1,86,218.8a8.89,8.89,0,0,1,8.28-1.9,15.3,15.3,0,0,1,7.51,5.27,21.21,21.21,0,0,1,4.56,10l.06.31-.26.25C105.66,233.19,105.1,233.68,104.53,234.14ZM94.1,237.27h.26a16.23,16.23,0,0,0,9.49-4c.45-.37.89-.75,1.31-1.14a20.34,20.34,0,0,0-4.3-9.2,14.46,14.46,0,0,0-7-5,7.59,7.59,0,0,0-7.12,1.63A10,10,0,0,0,83,225.89a7.54,7.54,0,0,0,1.57,6.43c.18.22.37.44.55.64a8.57,8.57,0,0,1,1.65-4,3.23,3.23,0,0,1,1.41-1,2.65,2.65,0,0,1,1.6,0,2,2,0,0,1,1.35,2,9.24,9.24,0,0,0,.84,3.27A24.6,24.6,0,0,0,94.1,237.27Z"/><path class="cls-2" d="M136.25,194.58a.74.74,0,0,1,.63-.05.77.77,0,0,1,.43.42c.44,1.25,1.18,3.5,2.2,6.75s2,6.89,3,10.93q4.74,19.53-.15,23.54a6.1,6.1,0,0,1-5.14,1,22.33,22.33,0,0,1-7.11-2.77,53.07,53.07,0,0,1-8.07-5.78,79,79,0,0,1-8.1-8.07,86.36,86.36,0,0,1-7.21-9.56,62.78,62.78,0,0,1-5.42-10.29,36.44,36.44,0,0,1-2.65-10.25,21.9,21.9,0,0,1,1-9.46,17.62,17.62,0,0,1,5.7-7.85c2.6-2.14,5.23-3.09,7.87-2.84a9.44,9.44,0,0,1,6.24,3.66,18.57,18.57,0,0,1,3.53,7.55,28.3,28.3,0,0,1,.55,9.64,30.14,30.14,0,0,1-9.41,18.54,136.05,136.05,0,0,0,11,13.62,76.91,76.91,0,0,0,10.23,9.47q4.53,3.33,5.95,2.16a4.41,4.41,0,0,0,1.08-1.65,11.31,11.31,0,0,0,.67-3.63,36.62,36.62,0,0,0-.35-6.43q-.51-4-1.92-10c-1-4-2-7.64-3-10.86s-1.75-5.45-2.2-6.71a1,1,0,0,1,.05-.64A.86.86,0,0,1,136.25,194.58Zm-33.36-14a20.52,20.52,0,0,0,.67,8.33,48.64,48.64,0,0,0,3.81,9.58,93.22,93.22,0,0,0,6,10,28.15,28.15,0,0,0,8.59-17.22,26.85,26.85,0,0,0-.5-9,17.18,17.18,0,0,0-3.27-7.06,8.1,8.1,0,0,0-5.27-3.17q-3.17-.33-6.49,2.39A9.6,9.6,0,0,0,102.89,180.54Z"/><path class="cls-2" d="M142.74,236.59a6.76,6.76,0,0,1-5.67,1.19,22.87,22.87,0,0,1-7.28-2.83,53.06,53.06,0,0,1-8.15-5.83A77,77,0,0,1,113.5,221a83.49,83.49,0,0,1-7.25-9.62A63,63,0,0,1,100.78,201a37.07,37.07,0,0,1-2.68-10.39,22.59,22.59,0,0,1,1.07-9.71,18.33,18.33,0,0,1,5.91-8.16c2.75-2.25,5.56-3.26,8.36-3A9.91,9.91,0,0,1,120,173.6a19.11,19.11,0,0,1,3.62,7.74,29.1,29.1,0,0,1,.57,9.82A31,31,0,0,1,115,209.73a136.19,136.19,0,0,0,10.72,13.2,76.61,76.61,0,0,0,10.17,9.41c3.87,2.85,5,2.42,5.2,2.23a3.74,3.74,0,0,0,.87-1.39,10.88,10.88,0,0,0,.63-3.42,36.65,36.65,0,0,0-.35-6.34c-.34-2.63-1-6-1.91-10s-2-7.62-3-10.82-1.75-5.44-2.2-6.69a1.54,1.54,0,0,1,.08-1.06,1.59,1.59,0,0,1,.86-.81,1.33,1.33,0,0,1,1.1-.07,1.23,1.23,0,0,1,.69.67c.46,1.27,1.18,3.48,2.22,6.8s2,6.93,3,11C146.37,225.81,146.24,233.71,142.74,236.59Zm-37-63a17,17,0,0,0-5.48,7.53,21.59,21.59,0,0,0-1,9.22,36.23,36.23,0,0,0,2.62,10.11,62.23,62.23,0,0,0,5.38,10.21,84.82,84.82,0,0,0,7.17,9.51,78,78,0,0,0,8,8,52.35,52.35,0,0,0,8,5.73,21.77,21.77,0,0,0,6.94,2.71,5.53,5.53,0,0,0,4.61-.89c2.08-1.7,3.75-7.06-.09-22.91-1-4-2-7.68-3-10.9s-1.76-5.51-2.2-6.73a.28.28,0,0,0-.16-.14.11.11,0,0,0-.12,0l-.06,0c-.08,0-.1.06-.11.09a.37.37,0,0,0,0,.25c.44,1.22,1.19,3.48,2.2,6.68s2,6.89,3,10.9,1.59,7.42,1.93,10.09a36.88,36.88,0,0,1,.36,6.53,11.87,11.87,0,0,1-.73,3.83,4.94,4.94,0,0,1-1.28,1.92c-1.25,1-3.31.38-6.69-2.1a76.67,76.67,0,0,1-10.29-9.53,135.4,135.4,0,0,1-11.07-13.67l-.27-.38.39-.37a29.69,29.69,0,0,0,9.2-18.14,28,28,0,0,0-.54-9.45,18.09,18.09,0,0,0-3.44-7.36,8.94,8.94,0,0,0-5.91-3.48C110.67,170.68,108.25,171.56,105.77,173.6Zm7.42,35.75-.36-.53a94,94,0,0,1-6-10,49.41,49.41,0,0,1-3.85-9.68,21.22,21.22,0,0,1-.68-8.55,10.26,10.26,0,0,1,3.76-6.59c2.35-1.94,4.7-2.79,7-2.56a8.6,8.6,0,0,1,5.6,3.35A17.61,17.61,0,0,1,122,182a27.2,27.2,0,0,1,.51,9.23,28.92,28.92,0,0,1-8.79,17.61Zm-6.45-34.57a8.85,8.85,0,0,0-3.26,5.76,20,20,0,0,0,.66,8.11,48.87,48.87,0,0,0,3.77,9.48,93.7,93.7,0,0,0,5.58,9.42,27.63,27.63,0,0,0,7.85-16.29,26.28,26.28,0,0,0-.49-8.85,16.84,16.84,0,0,0-3.18-6.87,7.69,7.69,0,0,0-5-3C110.79,172.34,108.83,173.07,106.74,174.78Z"/><path class="cls-2" d="M179.42,158.17a1,1,0,0,1,.66,0,.62.62,0,0,1,.4.42q.51,1.56,1.56,5t2.05,7.77a68.94,68.94,0,0,1,1.53,8,26.73,26.73,0,0,1,.22,5,8.18,8.18,0,0,1-.61,2.79,4.36,4.36,0,0,1-1,1.35,7.64,7.64,0,0,1-4.88,2.06,8.18,8.18,0,0,1-4.44-1.42,21.26,21.26,0,0,1-4.05-3.49q-1.94-2.12-3.64-4.33c-1.07-1.35-2.08-2.54-3-3.59a9.44,9.44,0,0,0-2.72-2.19,2.11,2.11,0,0,0-2.39.3,4.87,4.87,0,0,0-1.81,3.59,14.76,14.76,0,0,0,.68,5,43.4,43.4,0,0,0,2.21,5.83c.92,2,1.88,4,2.9,6q2,4,3.51,7.46a20.39,20.39,0,0,1,1.68,6.19,4.67,4.67,0,0,1-1.68,4.26,6.12,6.12,0,0,1-5.14,1,22.29,22.29,0,0,1-7.12-2.77,53.77,53.77,0,0,1-8.07-5.78,78.3,78.3,0,0,1-8.11-8.09,85.34,85.34,0,0,1-7.22-9.57,62.18,62.18,0,0,1-5.41-10.27,36.26,36.26,0,0,1-2.64-10.24,21.9,21.9,0,0,1,1-9.46,17.62,17.62,0,0,1,5.7-7.85q3.91-3.21,7.87-2.84a9.39,9.39,0,0,1,6.22,3.63,18.53,18.53,0,0,1,3.55,7.58,27.65,27.65,0,0,1,.53,9.61,30.11,30.11,0,0,1-9.39,18.57,136.11,136.11,0,0,0,11,13.62,76.3,76.3,0,0,0,10.23,9.47c3,2.22,5,2.94,5.94,2.16s1.21-1.93.92-3.58a25.21,25.21,0,0,0-1.84-5.66q-1.4-3.19-3.14-6.58c-1.12-2.22-2.18-4.42-3.17-6.62a41.54,41.54,0,0,1-2.28-6.27,13.73,13.73,0,0,1-.42-5.46,6.5,6.5,0,0,1,2.44-4.18,9.9,9.9,0,0,1,4.69-2.34,8,8,0,0,1,4.32.5,14.05,14.05,0,0,1,3.89,2.44,32.13,32.13,0,0,1,3.45,3.54q1.62,2,3,3.78c.84,1.13,1.62,2.1,2.33,2.92a9.76,9.76,0,0,0,1.94,1.79,1.19,1.19,0,0,0,1.52,0,2.7,2.7,0,0,0,.5-.86,7.52,7.52,0,0,0,.39-2.33,28.28,28.28,0,0,0-.29-4.58,76.91,76.91,0,0,0-1.43-7.57q-1-4.25-2-7.71t-1.54-5a.89.89,0,0,1,0-.64A.86.86,0,0,1,179.42,158.17Zm-48.83-5.79a9.66,9.66,0,0,0-3.52,6.16,20.24,20.24,0,0,0,.67,8.34,49.41,49.41,0,0,0,3.82,9.59,93.34,93.34,0,0,0,6,10,28.22,28.22,0,0,0,8.58-17.22,27.18,27.18,0,0,0-.51-9.06,17.11,17.11,0,0,0-3.29-7.07,7.92,7.92,0,0,0-5.24-3.14Q133.92,149.66,130.59,152.38Z"/><path class="cls-2" d="M166.93,214.61a6.76,6.76,0,0,1-5.67,1.19A23,23,0,0,1,154,213a53.65,53.65,0,0,1-8.15-5.84,79,79,0,0,1-8.15-8.12,85.65,85.65,0,0,1-7.27-9.64A63.46,63.46,0,0,1,125,179a37.24,37.24,0,0,1-2.67-10.38,22.59,22.59,0,0,1,1.07-9.71,18.43,18.43,0,0,1,5.92-8.16c2.74-2.25,5.55-3.26,8.35-3a9.89,9.89,0,0,1,6.57,3.8,19.13,19.13,0,0,1,3.64,7.77,28.25,28.25,0,0,1,.54,9.8,30.81,30.81,0,0,1-9.2,18.59A134.77,134.77,0,0,0,149.91,201a76,76,0,0,0,10.16,9.41c3.87,2.85,5,2.42,5.2,2.23.69-.57.92-1.58.67-3a25.23,25.23,0,0,0-1.8-5.55c-.93-2.11-2-4.32-3.13-6.55s-2.19-4.45-3.18-6.64a42.22,42.22,0,0,1-2.31-6.35,14.22,14.22,0,0,1-.43-5.67,7.18,7.18,0,0,1,2.69-4.61,10.68,10.68,0,0,1,5-2.49,8.61,8.61,0,0,1,4.62.53,14.73,14.73,0,0,1,4,2.53,31.4,31.4,0,0,1,3.51,3.59c1.08,1.3,2.1,2.57,3,3.8s1.61,2.08,2.31,2.89a9.44,9.44,0,0,0,1.83,1.71c.52.33.72.16.8.09a2.84,2.84,0,0,0,.31-.6,6.32,6.32,0,0,0,.33-2.11,28,28,0,0,0-.28-4.48,76.47,76.47,0,0,0-1.43-7.53c-.65-2.8-1.33-5.38-2-7.67s-1.2-4-1.53-5a1.42,1.42,0,0,1,.08-1,1.6,1.6,0,0,1,.89-.82,1.56,1.56,0,0,1,1.06-.07,1,1,0,0,1,.72.74c.35,1,.88,2.74,1.56,5s1.39,5,2.06,7.79a67.83,67.83,0,0,1,1.54,8,27,27,0,0,1,.22,5.14,8.62,8.62,0,0,1-.67,3,4.77,4.77,0,0,1-1.17,1.58,8.29,8.29,0,0,1-5.32,2.23,8.77,8.77,0,0,1-4.72-1.5,21.91,21.91,0,0,1-4.14-3.57c-1.3-1.42-2.53-2.89-3.67-4.36s-2.06-2.53-3-3.56a9,9,0,0,0-2.58-2.08,1.46,1.46,0,0,0-1.72.19,4.16,4.16,0,0,0-1.55,3.12,14.41,14.41,0,0,0,.65,4.84,43.39,43.39,0,0,0,2.19,5.77c.92,2,1.89,4,2.89,6,1.36,2.64,2.55,5.16,3.53,7.49a21.23,21.23,0,0,1,1.72,6.34A5.33,5.33,0,0,1,166.93,214.61Zm-37-63a17.15,17.15,0,0,0-5.48,7.54,21.59,21.59,0,0,0-1,9.22,36.4,36.4,0,0,0,2.61,10.1,61.63,61.63,0,0,0,5.37,10.19,84.73,84.73,0,0,0,7.18,9.52,78.32,78.32,0,0,0,8.06,8,52.35,52.35,0,0,0,8,5.73,21.86,21.86,0,0,0,6.94,2.71,5.53,5.53,0,0,0,4.61-.89,4,4,0,0,0,1.44-3.71,19.91,19.91,0,0,0-1.65-6c-1-2.31-2.14-4.8-3.5-7.43-1-2-2-4-2.91-6a46.75,46.75,0,0,1-2.23-5.9,15.28,15.28,0,0,1-.69-5.21,5.52,5.52,0,0,1,2.05-4.06,2.76,2.76,0,0,1,3.06-.41,10,10,0,0,1,2.87,2.3c1,1,2,2.27,3,3.61s2.34,2.91,3.62,4.31a20.82,20.82,0,0,0,4,3.42,7.76,7.76,0,0,0,4.15,1.34,7.09,7.09,0,0,0,4.44-1.91,3.59,3.59,0,0,0,.79-1.12,7.5,7.5,0,0,0,.55-2.56,27.39,27.39,0,0,0-.22-4.92,68,68,0,0,0-1.52-7.91c-.67-2.82-1.36-5.43-2-7.74s-1.2-4-1.55-5c0-.09,0-.1-.09-.11a.32.32,0,0,0-.25,0c-.08,0-.09.05-.11.09a.33.33,0,0,0,0,.24c.33,1,.85,2.67,1.54,5s1.39,4.92,2.05,7.74c.71,3.09,1.2,5.66,1.44,7.63a28.09,28.09,0,0,1,.29,4.67,7.87,7.87,0,0,1-.43,2.54,3,3,0,0,1-.71,1.13,1.79,1.79,0,0,1-2.24.06,10.21,10.21,0,0,1-2-1.88c-.71-.83-1.51-1.82-2.35-2.94s-1.93-2.48-3-3.76a30.47,30.47,0,0,0-3.41-3.49,13.32,13.32,0,0,0-3.75-2.36,7.49,7.49,0,0,0-4-.47,9.29,9.29,0,0,0-4.35,2.18,5.81,5.81,0,0,0-2.2,3.77,13.21,13.21,0,0,0,.41,5.24,41.17,41.17,0,0,0,2.25,6.19c1,2.18,2,4.41,3.17,6.61s2.21,4.47,3.15,6.6a26.42,26.42,0,0,1,1.87,5.78c.32,1.86-.07,3.27-1.16,4.17-1.26,1-3.32.38-6.7-2.1A77.28,77.28,0,0,1,149,201.79a136.79,136.79,0,0,1-11.07-13.67l-.27-.38.39-.38a29.51,29.51,0,0,0,9.18-18.16,27.31,27.31,0,0,0-.52-9.42,18.24,18.24,0,0,0-3.46-7.39,8.88,8.88,0,0,0-5.89-3.45C134.86,148.7,132.44,149.58,130,151.61Zm7.43,35.76-.36-.53a94.16,94.16,0,0,1-6-10.05,49.94,49.94,0,0,1-3.86-9.69,20.94,20.94,0,0,1-.68-8.56,10.3,10.3,0,0,1,3.77-6.57c2.35-1.94,4.7-2.8,7-2.56a8.47,8.47,0,0,1,5.58,3.32,17.63,17.63,0,0,1,3.38,7.27,27.94,27.94,0,0,1,.52,9.23,28.94,28.94,0,0,1-8.78,17.62Zm-6.46-34.57a8.87,8.87,0,0,0-3.27,5.74,19.66,19.66,0,0,0,.66,8.11,49.23,49.23,0,0,0,3.78,9.5,93.7,93.7,0,0,0,5.58,9.42,27.63,27.63,0,0,0,7.85-16.29,26.87,26.87,0,0,0-.5-8.87,16.75,16.75,0,0,0-3.19-6.88,7.54,7.54,0,0,0-4.92-3C135,150.36,133,151.09,130.93,152.8Z"/><path class="cls-2" d="M195.94,145.23a.75.75,0,0,1,.36.48c.14.87.35,2.2.64,4s.54,3.75.77,5.91a55.67,55.67,0,0,1,.35,7.85,13.09,13.09,0,0,1-.64,4,3.83,3.83,0,0,1-1,1.63l0,0q-3.57,2.79-6.86,1.66a13.23,13.23,0,0,1-6-4.51,31.89,31.89,0,0,1-4.27-6.79,44.73,44.73,0,0,1-2.43-6.59,2.67,2.67,0,0,1,.17-1.78,2.79,2.79,0,0,1,1.33-1.34,2.54,2.54,0,0,1,1.62-.28,2,2,0,0,1,1.27.69,2.78,2.78,0,0,1,.34.56,45.23,45.23,0,0,0,4.1,8,44.41,44.41,0,0,0,5.45,7c1.94,2,3.38,2.75,4.32,2.21l0,0a2.38,2.38,0,0,0,.36-.59,7.06,7.06,0,0,0,.44-1.75,26.27,26.27,0,0,0,.2-3.57,51.86,51.86,0,0,0-.4-6q-.31-3.22-.72-5.86c-.27-1.77-.49-3.08-.65-3.94a.83.83,0,0,1,.12-.62,1.13,1.13,0,0,1,.54-.41A.82.82,0,0,1,195.94,145.23Zm-18.5.57a3.25,3.25,0,0,1-2.19.8,2.4,2.4,0,0,1-1.88-.88,2.43,2.43,0,0,1-.49-2,3.43,3.43,0,0,1,3.38-2.77,2.39,2.39,0,0,1,1.89.86,2.35,2.35,0,0,1,.48,2A3.32,3.32,0,0,1,177.44,145.8Z"/><path class="cls-2" d="M196.79,169.48l-.1.07c-2.58,2-5.09,2.61-7.47,1.79a13.78,13.78,0,0,1-6.24-4.66,32.41,32.41,0,0,1-4.33-6.89,45.83,45.83,0,0,1-2.46-6.67,3.23,3.23,0,0,1,.21-2.16,3.43,3.43,0,0,1,1.66-1.68,3.09,3.09,0,0,1,2-.35,2.45,2.45,0,0,1,1.57.86,3.34,3.34,0,0,1,.41.66,45.64,45.64,0,0,0,4.07,8,44.9,44.9,0,0,0,5.39,6.92c2.2,2.28,3.19,2.3,3.53,2.18,0-.06.1-.17.2-.36a5.91,5.91,0,0,0,.38-1.56,26.32,26.32,0,0,0,.2-3.48,55.84,55.84,0,0,0-.4-5.94c-.21-2.12-.45-4.08-.72-5.84s-.48-3-.65-3.91a1.48,1.48,0,0,1,.23-1.07,1.8,1.8,0,0,1,.87-.68,1.41,1.41,0,0,1,1.14.06h0a1.23,1.23,0,0,1,.59.76l.65,4.05c.28,1.79.54,3.79.77,5.94a58.47,58.47,0,0,1,.36,7.93,13.59,13.59,0,0,1-.69,4.22A4.69,4.69,0,0,1,196.79,169.48ZM178,150.58a1.92,1.92,0,0,0-.54.7,2.08,2.08,0,0,0-.13,1.41,45.12,45.12,0,0,0,2.4,6.5,31.93,31.93,0,0,0,4.21,6.7,12.81,12.81,0,0,0,5.79,4.35c2,.69,4.06.18,6.27-1.54a2.92,2.92,0,0,0,.85-1.36,12.75,12.75,0,0,0,.6-3.82,57.63,57.63,0,0,0-.35-7.77c-.23-2.13-.49-4.11-.77-5.88l-.64-4a.29.29,0,0,0-.13-.14.29.29,0,0,0-.2,0,.38.38,0,0,0-.13.12s0,.06,0,.2c.16.84.38,2.16.65,3.93s.51,3.75.72,5.88a55.57,55.57,0,0,1,.41,6.06,27.32,27.32,0,0,1-.21,3.65,6.63,6.63,0,0,1-.51,1.93,2.45,2.45,0,0,1-.54.83l-.13.09c-1.25.72-2.85,0-5-2.26A47.94,47.94,0,0,1,180.94,151a2.47,2.47,0,0,0-.27-.44,1.54,1.54,0,0,0-1-.52,1.92,1.92,0,0,0-1.22.21A2.61,2.61,0,0,0,178,150.58Zm-.24-4.36a3.91,3.91,0,0,1-2.63,1,2.9,2.9,0,0,1-2.27-1.06,3,3,0,0,1-.59-2.42,4.15,4.15,0,0,1,4.07-3.34,2.85,2.85,0,0,1,2.27,1,2.82,2.82,0,0,1,.58,2.45A3.94,3.94,0,0,1,177.78,146.22Zm-3.36-4.09a2.54,2.54,0,0,0-.95,1.58,1.92,1.92,0,0,0,.39,1.61,1.87,1.87,0,0,0,1.5.7,2.75,2.75,0,0,0,2.68-2.21,1.83,1.83,0,0,0-.38-1.61,1.85,1.85,0,0,0-1.51-.68A2.5,2.5,0,0,0,174.42,142.13Z"/><path class="cls-2" d="M237.22,111.49a.76.76,0,0,1,.17-.59,1.11,1.11,0,0,1,.53-.38.83.83,0,0,1,.66,0,.72.72,0,0,1,.33.52c.13,1,.24,2.48.33,4.57a53.27,53.27,0,0,1-.23,7.26,38.69,38.69,0,0,1-2.57,11,23.9,23.9,0,0,1,2.72,6,20.14,20.14,0,0,1,.82,6.48,16.43,16.43,0,0,1-1.5,6.29,15.14,15.14,0,0,1-4.29,5.4,7.23,7.23,0,0,1-4.81,1.89,5.33,5.33,0,0,1-4.11-2.11,8.23,8.23,0,0,1-1.76-4.51,11.43,11.43,0,0,1,1-5.62,14.17,14.17,0,0,1,4.2-5.36,18.62,18.62,0,0,0,2.41-2.37,38,38,0,0,0-3.4-5.37,22.88,22.88,0,0,0-3.92-4.08,9.24,9.24,0,0,0-4-2,4.39,4.39,0,0,0-3.66,1,10.63,10.63,0,0,0-3.32,4.36,11.06,11.06,0,0,0-.67,4.9,18.58,18.58,0,0,0,1.15,5,41.11,41.11,0,0,0,2.16,4.76q1.23,2.26,2.41,4.13a30.53,30.53,0,0,1,2.12,3.93,1.71,1.71,0,0,1-.34,2.19l0,0a6.74,6.74,0,0,1-5.66,1.2,22.57,22.57,0,0,1-7.55-3,49.84,49.84,0,0,1-8.2-6.25,62.44,62.44,0,0,1-7.66-8.6,55,55,0,0,1-5.93-10,36.1,36.1,0,0,1-3.05-10.5,21.63,21.63,0,0,1,1-10.07,19.68,19.68,0,0,1,6.37-8.65,10.88,10.88,0,0,1,7.84-2.86,9.45,9.45,0,0,1,6.25,3.66,18.28,18.28,0,0,1,3.51,7.56,28.62,28.62,0,0,1,.54,9.65,29.9,29.9,0,0,1-9.74,18.85,93.83,93.83,0,0,0,8.5,9.93,50.18,50.18,0,0,0,7.71,6.57c2.27,1.5,3.9,2,4.89,1.52l0,.18a.33.33,0,0,1,0-.13.31.31,0,0,1,.13-.16l0,0-.17.14a7.29,7.29,0,0,0-.76-1.71c-.42-.74-.88-1.53-1.36-2.36q-1.53-2.41-3.1-5.51a28.75,28.75,0,0,1-2.4-6.49q-1.86-8.25,4.31-13.31a12.37,12.37,0,0,1,7.36-3.14,12.91,12.91,0,0,1,7.07,1.77,19.29,19.29,0,0,1,5.83,5.24,43.83,43.83,0,0,0,2.17-12.57A55.54,55.54,0,0,0,237.22,111.49Zm-47.34-7.35a10.6,10.6,0,0,0-3.92,6.61,20.22,20.22,0,0,0,.58,8.63,45.83,45.83,0,0,0,3.88,9.59,84,84,0,0,0,6,9.6A28.07,28.07,0,0,0,205.35,121a26.27,26.27,0,0,0-.46-9.07,17.19,17.19,0,0,0-3.28-7.06,8,8,0,0,0-5.3-3.14C194.22,101.54,192.07,102.34,189.88,104.14Zm43.34,52.75a4.88,4.88,0,0,0,1.62-3.64,17.08,17.08,0,0,0-.65-5.52,33.07,33.07,0,0,0-2.38-6.25,21.19,21.19,0,0,1-2.17,2.08,11.6,11.6,0,0,0-3.78,4.89,9.5,9.5,0,0,0-.6,4.78,7.2,7.2,0,0,0,1.39,3.49,3.93,3.93,0,0,0,3,1.61A5.38,5.38,0,0,0,233.22,156.89Z"/><path class="cls-2" d="M234.54,158.49a7.92,7.92,0,0,1-5.27,2.06,5.86,5.86,0,0,1-4.49-2.29,8.77,8.77,0,0,1-1.86-4.77,12,12,0,0,1,1-5.9,14.88,14.88,0,0,1,4.41-5.64,17.93,17.93,0,0,0,2-1.95,36.55,36.55,0,0,0-3.19-5,22.31,22.31,0,0,0-3.84-4,8.73,8.73,0,0,0-3.79-1.86,3.7,3.7,0,0,0-3.13.89,9.86,9.86,0,0,0-3.1,4.07,10.45,10.45,0,0,0-.64,4.63,18.17,18.17,0,0,0,1.13,4.88,38.35,38.35,0,0,0,2.13,4.69c.81,1.5,1.61,2.88,2.39,4.1a31.71,31.71,0,0,1,2.16,4,2.28,2.28,0,0,1-.56,2.89l-.48.4-.05-.05a5.3,5.3,0,0,1-.73.42l-.26,1.48-.21-1.27a8.17,8.17,0,0,1-4.48.33,22.8,22.8,0,0,1-7.73-3.09,49.24,49.24,0,0,1-8.27-6.31,62.76,62.76,0,0,1-7.72-8.66,55.31,55.31,0,0,1-6-10.1,36.77,36.77,0,0,1-3.1-10.64A22.37,22.37,0,0,1,182,111.49a20.42,20.42,0,0,1,6.59-9,11.57,11.57,0,0,1,8.32-3,10,10,0,0,1,6.59,3.84,18.7,18.7,0,0,1,3.61,7.75,29.48,29.48,0,0,1,.55,9.84,30.67,30.67,0,0,1-9.54,18.87,94.41,94.41,0,0,0,8.16,9.5,50.49,50.49,0,0,0,7.64,6.51c1.92,1.27,3,1.6,3.71,1.61-.11-.25-.27-.56-.5-1-.41-.75-.87-1.53-1.35-2.36-1-1.6-2.06-3.47-3.12-5.53a30.24,30.24,0,0,1-2.44-6.6c-1.28-5.72.25-10.41,4.56-13.94a13.13,13.13,0,0,1,7.76-3.3,13.54,13.54,0,0,1,7.36,1.84,19.42,19.42,0,0,1,5.27,4.47,42.09,42.09,0,0,0,1.78-11.21,54.46,54.46,0,0,0-.3-8.16v0a1.43,1.43,0,0,1,.32-1,1.82,1.82,0,0,1,.86-.62,1.38,1.38,0,0,1,1.14.09,1.16,1.16,0,0,1,.56.85c.13,1,.24,2.53.34,4.63a56.33,56.33,0,0,1-.24,7.34,39.9,39.9,0,0,1-2.5,10.89,24.18,24.18,0,0,1,2.63,5.9,20.54,20.54,0,0,1,.84,6.64,17.07,17.07,0,0,1-1.55,6.52A15.91,15.91,0,0,1,234.54,158.49Zm-18.81-29.27a5,5,0,0,1,4.19-1.2,9.73,9.73,0,0,1,4.24,2.06,23.48,23.48,0,0,1,4,4.16,40.56,40.56,0,0,1,3.44,5.44l.17.33-.28.32a19.31,19.31,0,0,1-2.49,2.46,13.34,13.34,0,0,0-4,5.09,10.83,10.83,0,0,0-.91,5.33,7.77,7.77,0,0,0,1.66,4.25,4.79,4.79,0,0,0,3.72,1.93,6.52,6.52,0,0,0,4.37-1.73,14.47,14.47,0,0,0,4.09-5.15,15.74,15.74,0,0,0,1.44-6.06,19.59,19.59,0,0,0-.8-6.3,23.09,23.09,0,0,0-2.66-5.88l-.14-.22.11-.28A38.19,38.19,0,0,0,238.41,123a54.13,54.13,0,0,0,.24-7.19c-.09-2.06-.2-3.58-.33-4.52a.2.2,0,0,0-.11-.17.22.22,0,0,0-.2,0,.43.43,0,0,0-.16.13.17.17,0,0,0,0,.14,55.23,55.23,0,0,1,.31,8.33,44.69,44.69,0,0,1-2.19,12.74l-.39,1.2-.68-.91a18.85,18.85,0,0,0-5.69-5.11,12.33,12.33,0,0,0-6.78-1.7,11.83,11.83,0,0,0-6.95,3c-3.93,3.22-5.26,7.37-4.07,12.69a28.37,28.37,0,0,0,2.36,6.37c1,2,2.08,3.89,3.08,5.48.5.84.95,1.63,1.37,2.38.23.41.41.77.55,1.08l.68.84-.39.36-.11.62.3-.23.22-.18c.14-.21.23-.59-.06-1.29a31.3,31.3,0,0,0-2.1-3.87c-.78-1.23-1.6-2.63-2.41-4.15a38.17,38.17,0,0,1-2.19-4.81,18.86,18.86,0,0,1-1.18-5.14,11.46,11.46,0,0,1,.71-5.15A11.13,11.13,0,0,1,215.73,129.22Zm-26.48-25.85a19.08,19.08,0,0,0-6.15,8.34,21.18,21.18,0,0,0-1,9.81,35.79,35.79,0,0,0,3,10.35,55.25,55.25,0,0,0,5.88,9.94,62.76,62.76,0,0,0,7.6,8.53,49.3,49.3,0,0,0,8.12,6.19,22.31,22.31,0,0,0,7.38,3,6.86,6.86,0,0,0,3.92-.31l-.1-.63c-1.17.17-2.72-.39-4.78-1.75a50.86,50.86,0,0,1-7.78-6.64,93.45,93.45,0,0,1-8.54-10l-.29-.39.42-.39A29.39,29.39,0,0,0,206.45,121a28.12,28.12,0,0,0-.52-9.47,18,18,0,0,0-3.42-7.36,9,9,0,0,0-5.92-3.49C194.12,100.46,191.71,101.35,189.25,103.37Zm44.31,53.94a6.11,6.11,0,0,1-4,1.6,4.43,4.43,0,0,1-3.41-1.79,7.58,7.58,0,0,1-1.5-3.73,10.16,10.16,0,0,1,.63-5.06,12.47,12.47,0,0,1,4-5.19,20.67,20.67,0,0,0,2.09-2l.61-.69.36.72a34.71,34.71,0,0,1,2.41,6.34,17.8,17.8,0,0,1,.67,5.69A5.58,5.58,0,0,1,233.56,157.31Zm-2-14.82A18.67,18.67,0,0,1,230,144a11.19,11.19,0,0,0-3.56,4.59,9.09,9.09,0,0,0-.57,4.5,6.77,6.77,0,0,0,1.29,3.26,3.43,3.43,0,0,0,2.64,1.43,4.67,4.67,0,0,0,3.1-1.28,4.28,4.28,0,0,0,1.37-3.17,16.87,16.87,0,0,0-.64-5.35A32.17,32.17,0,0,0,231.6,142.49Zm-35.33-3-.36-.5a84.92,84.92,0,0,1-6-9.65,46.58,46.58,0,0,1-3.91-9.7,20.6,20.6,0,0,1-.6-8.85,11.38,11.38,0,0,1,4.17-7c2.33-1.91,4.66-2.77,6.92-2.56a8.54,8.54,0,0,1,5.64,3.32,17.71,17.71,0,0,1,3.37,7.26,26.81,26.81,0,0,1,.47,9.25,28.77,28.77,0,0,1-9.15,18Zm-6.05-34.9a9.92,9.92,0,0,0-3.67,6.21,19.64,19.64,0,0,0,.57,8.4,46,46,0,0,0,3.84,9.49,82.59,82.59,0,0,0,5.59,9A27.51,27.51,0,0,0,204.76,121a25.93,25.93,0,0,0-.45-8.88,16.9,16.9,0,0,0-3.18-6.87,7.58,7.58,0,0,0-5-3C194.23,102.13,192.29,102.86,190.22,104.55Z"/><path class="cls-2" d="M262.4,90.09a1,1,0,0,1,.66-.25.61.61,0,0,1,.54.3q2.65,4.08.69,10a23.13,23.13,0,0,1-5,8.08.24.24,0,0,0,0,.12q.57,7.13-4,10.9a10,10,0,0,1-5.56,2.47,9.72,9.72,0,0,1-5.2-1,12.81,12.81,0,0,1-4.19-3.36,13.54,13.54,0,0,1-2.52-4.71,16.49,16.49,0,0,1-3.43-3.19,9.49,9.49,0,0,1-1.95-8,12.62,12.62,0,0,1,4.67-7.83,10.07,10.07,0,0,1,8.66-2.32q4.72.91,8.66,5.72a22.25,22.25,0,0,1,4.54,9.27,20.9,20.9,0,0,0,3.72-6.47q1.71-5.13-.55-8.58a.81.81,0,0,1-.09-.57A1,1,0,0,1,262.4,90.09Zm-4.89,17.75a20.78,20.78,0,0,0-4.46-9.73A14.82,14.82,0,0,0,245.79,93a8.25,8.25,0,0,0-7.71,1.76,10.83,10.83,0,0,0-4,6.66,8.11,8.11,0,0,0,1.68,6.84,18.57,18.57,0,0,0,1.56,1.69,7.79,7.79,0,0,1,1.59-5.12,2.29,2.29,0,0,1,1.06-.72,1.92,1.92,0,0,1,1.23,0,1.45,1.45,0,0,1,1,1.51,9.79,9.79,0,0,0,.88,3.47,26.22,26.22,0,0,0,2.33,4.32H246a16.91,16.91,0,0,0,9.93-4.13C256.45,108.81,257,108.34,257.51,107.84ZM254.31,118a8.23,8.23,0,0,0,2.83-4,12.17,12.17,0,0,0,.56-4.23l-.83.68A19.24,19.24,0,0,1,246.63,115a13.58,13.58,0,0,0,2.52,2.51,6.42,6.42,0,0,0,2.67,1.24A3,3,0,0,0,254.31,118Z"/><path class="cls-2" d="M255.63,119.61a10.62,10.62,0,0,1-5.95,2.63,10.3,10.3,0,0,1-5.49-1.07,13.45,13.45,0,0,1-4.33-3.48,13.93,13.93,0,0,1-2.57-4.71,16.85,16.85,0,0,1-3.38-3.19,10,10,0,0,1-2.06-8.4,13.38,13.38,0,0,1,4.92-8.24,10.77,10.77,0,0,1,9.2-2.47c3.25.63,6.26,2.61,8.95,5.89a22.79,22.79,0,0,1,4.36,8.4,20.16,20.16,0,0,0,2.85-5.31c1.08-3.22.91-6-.5-8.11a1.27,1.27,0,0,1-.16-1,1.82,1.82,0,0,1,1.7-1.32,1.1,1.1,0,0,1,.95.53c1.85,2.83,2.09,6.33.74,10.4a24,24,0,0,1-4.94,8.09C260.29,113.16,258.84,117,255.63,119.61ZM237.45,94a12,12,0,0,0-4.43,7.42,9,9,0,0,0,1.86,7.58,16.15,16.15,0,0,0,3.33,3.11l.14.09.05.16a12.92,12.92,0,0,0,2.43,4.54,12.46,12.46,0,0,0,4,3.24A8.83,8.83,0,0,0,255,118.77c2.89-2.37,4.13-5.73,3.78-10.26,0-.06,0-.12,0-.16l0-.29.22-.24a22.53,22.53,0,0,0,4.86-7.84c1.24-3.72,1-6.91-.65-9.48-.05-.08-.08-.08-.12-.08a.41.41,0,0,0-.32.24.18.18,0,0,0,0,.18c1.58,2.42,1.78,5.46.59,9a22,22,0,0,1-3.84,6.69l-.78,1-.25-1.06A22,22,0,0,0,254,97.37c-2.55-3.1-5.36-5-8.38-5.55A9.36,9.36,0,0,0,237.45,94Zm17.21,24.43a3.67,3.67,0,0,1-3,.89,6.86,6.86,0,0,1-2.88-1.33,14,14,0,0,1-2.62-2.6l-.66-.84,1.18-.13a18.59,18.59,0,0,0,9.87-4.37l1.71-1.4.06,1a12.53,12.53,0,0,1-.58,4.43A9,9,0,0,1,254.66,118.42Zm-6.87-3a11.63,11.63,0,0,0,1.77,1.63,5.85,5.85,0,0,0,2.45,1.15,2.35,2.35,0,0,0,2-.58,7.65,7.65,0,0,0,2.6-3.67,12.61,12.61,0,0,0,.54-3A20.22,20.22,0,0,1,247.79,115.39Zm8.45-5.71A17.64,17.64,0,0,1,245.9,114l-.79,0-.2-.21a26.33,26.33,0,0,1-2.36-4.4,10,10,0,0,1-.92-3.67,1,1,0,0,0-.7-1.05,1.39,1.39,0,0,0-.83,0,1.63,1.63,0,0,0-.74.51,7.07,7.07,0,0,0-1.42,4.68l.06,1.61-1.11-1.06a19.47,19.47,0,0,1-1.6-1.73,8.6,8.6,0,0,1-1.77-7.25,11.48,11.48,0,0,1,4.22-7.07,8.9,8.9,0,0,1,8.28-1.9,15.37,15.37,0,0,1,7.52,5.27,21.19,21.19,0,0,1,4.55,10l.06.31-.26.25C257.36,108.73,256.8,109.22,256.24,109.68Zm-10.43,3.13h.25a16.27,16.27,0,0,0,9.49-4c.45-.37.89-.75,1.31-1.14a20.23,20.23,0,0,0-4.3-9.2,14.46,14.46,0,0,0-7-5,7.59,7.59,0,0,0-7.12,1.63,10.07,10.07,0,0,0-3.73,6.25,7.57,7.57,0,0,0,1.57,6.43c.19.22.37.44.56.64a8.45,8.45,0,0,1,1.64-4,3.23,3.23,0,0,1,1.41-1,2.65,2.65,0,0,1,1.6,0,1.94,1.94,0,0,1,1.35,2,9.24,9.24,0,0,0,.84,3.27A24.69,24.69,0,0,0,245.81,112.81Z"/><path class="cls-2" d="M295.77,62.71a.75.75,0,0,1,.64,0,.71.71,0,0,1,.38.46c.29,1,.74,2.68,1.34,5s1.19,4.9,1.75,7.75a76.94,76.94,0,0,1,1.25,7.9,27.91,27.91,0,0,1,.11,5,8.12,8.12,0,0,1-.63,2.73,4,4,0,0,1-1,1.32A6.51,6.51,0,0,1,295,94.49a10.14,10.14,0,0,1-4.89-1.72,24,24,0,0,1-4.74-4.07,50.62,50.62,0,0,1-4.29-5.44,56.31,56.31,0,0,1-3.49-5.82c.25,1.82.5,3.74.75,5.79a83.19,83.19,0,0,1,.57,9.13,16.06,16.06,0,0,1-.54,4.64,4,4,0,0,1-1.08,1.82c-2.42,1.86-4.69,2.38-6.82,1.58a13.25,13.25,0,0,1-5.8-4.71,39.23,39.23,0,0,1-4.47-7.7,55.89,55.89,0,0,1-2.73-7.39,2.5,2.5,0,0,1,.23-1.77,2.91,2.91,0,0,1,1.41-1.31,2.53,2.53,0,0,1,1.89-.14,2.08,2.08,0,0,1,1.24,1.19,58.88,58.88,0,0,0,4.36,8.85,53,53,0,0,0,5.57,7.92q2.76,3.14,4.15,2.3a1.92,1.92,0,0,0,.25-.41,5.58,5.58,0,0,0,.35-1.18,15.93,15.93,0,0,0,.25-2.39c0-1,0-2.36,0-4s-.23-3.64-.48-6c-.37-3.1-.76-5.84-1.14-8.24s-.63-3.83-.75-4.3c-.05-.22-.12-.43-.18-.65a2.42,2.42,0,0,1,.23-1.8,3.35,3.35,0,0,1,1.42-1.34,2.54,2.54,0,0,1,1.87-.09,2.13,2.13,0,0,1,1.25,1.21,43,43,0,0,0,3.89,7.18,91.32,91.32,0,0,0,5.9,8.1A54.56,54.56,0,0,0,295,90.05c1.79,1.59,3,2.12,3.65,1.59a2.34,2.34,0,0,0,.5-.83,7.41,7.41,0,0,0,.42-2.28,27.46,27.46,0,0,0-.17-4.55q-.29-2.92-1.19-7.55c-.57-2.81-1.14-5.37-1.73-7.66s-1-4-1.33-5a.81.81,0,0,1,.09-.64A1,1,0,0,1,295.77,62.71Z"/><path class="cls-2" d="M300,93.25a7.28,7.28,0,0,1-5.13,1.82,10.81,10.81,0,0,1-5.14-1.8,24.4,24.4,0,0,1-4.83-4.16,49.38,49.38,0,0,1-4.33-5.49c-.69-1-1.34-2-1.95-3.05.1.81.21,1.65.31,2.51a84.27,84.27,0,0,1,.57,9.2,15.92,15.92,0,0,1-.57,4.83,4.4,4.4,0,0,1-1.33,2.16c-2.59,2-5.09,2.55-7.41,1.67a13.69,13.69,0,0,1-6-4.87,40.14,40.14,0,0,1-4.52-7.79,55.74,55.74,0,0,1-2.75-7.45,3.08,3.08,0,0,1,.27-2.2A3.73,3.73,0,0,1,258.91,77a3.09,3.09,0,0,1,2.35-.16,2.56,2.56,0,0,1,1.52,1.45,58.08,58.08,0,0,0,4.33,8.79,51.88,51.88,0,0,0,5.52,7.84c2,2.31,3,2.39,3.3,2.29A1.31,1.31,0,0,0,276,97a4.66,4.66,0,0,0,.3-1,14.68,14.68,0,0,0,.23-2.29c.05-1,0-2.34,0-4s-.22-3.61-.47-6c-.37-3-.75-5.81-1.14-8.21s-.62-3.8-.74-4.26L274,70.7a2.9,2.9,0,0,1,.29-2.24A4,4,0,0,1,276,66.83a3.08,3.08,0,0,1,2.35-.13,2.59,2.59,0,0,1,1.53,1.46,42.5,42.5,0,0,0,3.85,7.11,93.54,93.54,0,0,0,5.87,8.07,55.19,55.19,0,0,0,5.82,6.26c2.23,2,2.85,1.64,2.88,1.63a3.81,3.81,0,0,0,.3-.58,6.82,6.82,0,0,0,.37-2.07,27.52,27.52,0,0,0-.17-4.46c-.19-1.93-.59-4.46-1.19-7.51-.55-2.76-1.13-5.33-1.72-7.62s-1-3.94-1.32-5a1.4,1.4,0,0,1,.14-1.07,1.74,1.74,0,0,1,.89-.78h0a1.34,1.34,0,0,1,1.11,0,1.15,1.15,0,0,1,.63.76q.45,1.52,1.35,5c.61,2.32,1.2,4.93,1.76,7.78a77.3,77.3,0,0,1,1.25,8,29,29,0,0,1,.11,5.07,8.21,8.21,0,0,1-.7,3A4.81,4.81,0,0,1,300,93.25ZM276.48,74l1.63,3.13a54.12,54.12,0,0,0,3.47,5.77,49.62,49.62,0,0,0,4.24,5.39,24.38,24.38,0,0,0,4.64,4,9.87,9.87,0,0,0,4.64,1.64,5.86,5.86,0,0,0,4.19-1.51,3.37,3.37,0,0,0,.79-1.09,7.35,7.35,0,0,0,.56-2.5,26.81,26.81,0,0,0-.11-4.87,75,75,0,0,0-1.23-7.85c-.56-2.83-1.15-5.42-1.75-7.72s-1.05-4-1.34-5a.24.24,0,0,0-.13-.17.18.18,0,0,0-.16,0,.27.27,0,0,0-.16.13.28.28,0,0,0,0,.2c.29,1,.74,2.68,1.33,5s1.18,4.9,1.74,7.68c.6,3.09,1,5.65,1.2,7.61a29.76,29.76,0,0,1,.17,4.65,8.45,8.45,0,0,1-.47,2.48,2.89,2.89,0,0,1-.71,1.09c-1.23,1-3-.3-4.43-1.56a54.55,54.55,0,0,1-5.93-6.37A93.87,93.87,0,0,1,282.71,76a43.56,43.56,0,0,1-3.93-7.26,1.67,1.67,0,0,0-1-.93,1.86,1.86,0,0,0-1.42.07,2.51,2.51,0,0,0-1.07,1,1.78,1.78,0,0,0-.17,1.37l.18.64c.12.51.37,1.93.76,4.36s.77,5.19,1.15,8.26c.25,2.4.41,4.43.47,6s.08,3,0,4a15.78,15.78,0,0,1-.25,2.48,6,6,0,0,1-.42,1.35,1.76,1.76,0,0,1-.43.62c-1.73,1.06-3.66-.81-5-2.3a53.16,53.16,0,0,1-5.62-8,59.76,59.76,0,0,1-4.39-8.92,1.57,1.57,0,0,0-1-.91,1.86,1.86,0,0,0-1.43.11,2.18,2.18,0,0,0-1.07,1,1.93,1.93,0,0,0-.17,1.37,54.29,54.29,0,0,0,2.71,7.3,38.79,38.79,0,0,0,4.41,7.61,12.81,12.81,0,0,0,5.59,4.56c1.93.73,4,.25,6.21-1.47.14-.09.45-.42.84-1.51a15.14,15.14,0,0,0,.5-4.44,84.31,84.31,0,0,0-.56-9.07c-.25-2-.5-4-.75-5.77Z"/><path class="cls-2" d="M331.19,83.71a5,5,0,0,1,3.32-1.21,3.63,3.63,0,0,1,3.6,4.39,5.28,5.28,0,0,1-5.12,4.2,3.62,3.62,0,0,1-3.6-4.39A4.89,4.89,0,0,1,331.19,83.71Zm-5.44-3.53L280.13,28.61a3.66,3.66,0,0,1-.78-3,4.75,4.75,0,0,1,1.75-2.92,4.65,4.65,0,0,1,3.22-1.15,3.65,3.65,0,0,1,2.81,1.37L328.66,77.8Z"/><path class="cls-2" d="M336.62,90.32a5.58,5.58,0,0,1-3.73,1.35,4.12,4.12,0,0,1-4.09-5,6,6,0,0,1,5.81-4.77,4.12,4.12,0,0,1,4.09,5A5.65,5.65,0,0,1,336.62,90.32Zm-5.09-6.19A4.18,4.18,0,0,0,330,86.71a3.12,3.12,0,0,0,.65,2.67,3.07,3.07,0,0,0,2.46,1.13,4.18,4.18,0,0,0,2.84-1,4.31,4.31,0,0,0,1.6-2.62,3.08,3.08,0,0,0-.64-2.63,3.14,3.14,0,0,0-2.48-1.17A4.28,4.28,0,0,0,331.53,84.13Zm-2.06-6.3L325.62,81l-46-52a4.11,4.11,0,0,1-.89-3.45,5.78,5.78,0,0,1,5.66-4.65,4.14,4.14,0,0,1,3.18,1.55Zm-3.59,1.55,2-1.61L286.63,23.25a3.1,3.1,0,0,0-2.42-1.17,4,4,0,0,0-2.77,1,4,4,0,0,0-1.5,2.51,3.11,3.11,0,0,0,.68,2.63Z"/><path class="cls-2" d="M94.47,308.3l-5.8-7.07.82-.66,5.8,7.07Z"/><path class="cls-2" d="M99.25,294.73,104,300.5l-.82.67-5.8-7.07.63-.52L108.29,295l-4.82-5.88.81-.67,5.8,7.06-.71.59Z"/><path class="cls-2" d="M114.47,285.9a4.2,4.2,0,0,1-.78-1.48,4.52,4.52,0,0,1-.16-1.76,5.16,5.16,0,0,1,.56-1.82,5.5,5.5,0,0,1,1.41-1.68,5,5,0,0,1,2.24-1.12,3.58,3.58,0,0,1,2.07.17l-.36.86a2.58,2.58,0,0,0-1-.19,3.2,3.2,0,0,0-.93.11,3.87,3.87,0,0,0-.85.34,4.7,4.7,0,0,0-.73.5,3.82,3.82,0,0,0-1.51,2.8,3.74,3.74,0,0,0,2,3.57,4,4,0,0,0,1.43.42,4.16,4.16,0,0,0,1.52-.14,3.88,3.88,0,0,0,1.42-.77,4.57,4.57,0,0,0,.66-.66,4,4,0,0,0,.51-.82,3.88,3.88,0,0,0,.3-.93,2.74,2.74,0,0,0,0-1l.92-.25a2.82,2.82,0,0,1,0,1.16,5,5,0,0,1-.38,1.17,5.59,5.59,0,0,1-.68,1.08,5.44,5.44,0,0,1-.88.91,4.93,4.93,0,0,1-1.82,1,5.38,5.38,0,0,1-1.9.17,4.78,4.78,0,0,1-1.75-.51A4.28,4.28,0,0,1,114.47,285.9Z"/><path class="cls-2" d="M131.75,277.73l-5.8-7.08.81-.66,5.3,6.45,4.76-3.91.51.62Z"/><path class="cls-2" d="M146.7,264.49a3.9,3.9,0,0,0,1.09-1.32,2.84,2.84,0,0,0,.28-1.34,3.35,3.35,0,0,0-.34-1.3,6.26,6.26,0,0,0-.76-1.16l-2.92-3.57.81-.66,2.93,3.56a6.48,6.48,0,0,1,.93,1.51,4.19,4.19,0,0,1,.33,1.62,3.81,3.81,0,0,1-.44,1.66,5.33,5.33,0,0,1-1.38,1.62,5.08,5.08,0,0,1-1.9,1,3.66,3.66,0,0,1-1.73.08,3.9,3.9,0,0,1-1.51-.65,6.07,6.07,0,0,1-1.25-1.18l-2.93-3.56.8-.66,2.93,3.57a5.57,5.57,0,0,0,1,1,3.34,3.34,0,0,0,1.2.58,3,3,0,0,0,1.36,0A3.68,3.68,0,0,0,146.7,264.49Z"/><path class="cls-2" d="M158.53,246.14a3.21,3.21,0,0,0-1.38.22,5.06,5.06,0,0,0-1.5.87,3.62,3.62,0,0,0-1.3,1.66,1.44,1.44,0,0,0,.29,1.37,1.14,1.14,0,0,0,.56.42,1.37,1.37,0,0,0,.7,0,4.12,4.12,0,0,0,.93-.32c.35-.17.75-.38,1.21-.63s1-.52,1.41-.71a5.14,5.14,0,0,1,1.21-.37,2.23,2.23,0,0,1,1,.08,2,2,0,0,1,.86.64,2.06,2.06,0,0,1,.47,1,2.27,2.27,0,0,1-.13,1.11,3.82,3.82,0,0,1-.65,1.12,7.61,7.61,0,0,1-1.1,1.1,7.05,7.05,0,0,1-4.16,1.69l-.06-.9a4.15,4.15,0,0,0,.84-.06,5.09,5.09,0,0,0,.95-.24,6.61,6.61,0,0,0,1-.46,6.41,6.41,0,0,0,1-.67,4.24,4.24,0,0,0,1.3-1.57,1.27,1.27,0,0,0-.21-1.37,1.17,1.17,0,0,0-.61-.42,1.61,1.61,0,0,0-.79,0,5.67,5.67,0,0,0-1,.36c-.37.17-.8.39-1.28.65a15,15,0,0,1-1.36.66,3.82,3.82,0,0,1-1.11.33,1.75,1.75,0,0,1-.92-.09,1.82,1.82,0,0,1-.76-.58,2.32,2.32,0,0,1-.5-1.05,2.43,2.43,0,0,1,.09-1.13,4.33,4.33,0,0,1,.61-1.16,7,7,0,0,1,2.72-2.1,5.48,5.48,0,0,1,1.67-.35Z"/><path class="cls-2" d="M171.29,245.29l-5.8-7.07.81-.67,5.8,7.07Z"/><path class="cls-2" d="M183.35,235.47a5.17,5.17,0,0,1-1.82,1,5,5,0,0,1-1.89.2,4.54,4.54,0,0,1-1.74-.5,4.3,4.3,0,0,1-2.18-2.69,5.22,5.22,0,0,1,3.59-6.16,5.18,5.18,0,0,1,1.9-.18,4.94,4.94,0,0,1,1.73.51,4.47,4.47,0,0,1,1.35,1.08,4,4,0,0,1,.81,1.6,4.78,4.78,0,0,1,.13,1.81,5,5,0,0,1-.59,1.79A5.11,5.11,0,0,1,183.35,235.47Zm-6-1.07a3.82,3.82,0,0,0,4,1.22,3.88,3.88,0,0,0,1.45-.78,4,4,0,0,0,1-1.29,3.87,3.87,0,0,0,.41-1.47,3.73,3.73,0,0,0-.17-1.45,3.49,3.49,0,0,0-.66-1.25,3.79,3.79,0,0,0-1.14-.93,3.84,3.84,0,0,0-1.41-.42,3.93,3.93,0,0,0-2.93.91,4,4,0,0,0-1.06,1.29,3.78,3.78,0,0,0-.41,1.47,3.9,3.9,0,0,0,.16,1.44A3.82,3.82,0,0,0,177.35,234.4Zm-.55-7.08-.66.26-.08-1.49.84-.69Z"/><path class="cls-2" d="M190.6,219.77l4.74,5.78-.81.67-5.8-7.07.63-.52,10.29,1.4-4.82-5.87.81-.67,5.79,7.06-.7.58Z"/><path class="cls-2" d="M218.1,206.88l-5.81-7.07,3.42-2.8a3.17,3.17,0,0,1,1.14-.61,3.3,3.3,0,0,1,1.19-.13,3.14,3.14,0,0,1,1.1.29,2.66,2.66,0,0,1,.85.66,2.63,2.63,0,0,1,.51,1,2.8,2.8,0,0,1,.1,1.11,3.07,3.07,0,0,1-1.16,2.1l-2.67,2.2,2.14,2.61ZM216.26,203l2.64-2.17a2.06,2.06,0,0,0,.55-.67,2.16,2.16,0,0,0,.21-.77,2.12,2.12,0,0,0-.1-.79,2.07,2.07,0,0,0-.39-.71,2.12,2.12,0,0,0-.64-.51,2.16,2.16,0,0,0-.78-.21,1.92,1.92,0,0,0-.82.09,2.3,2.3,0,0,0-.75.41l-2.57,2.1Z"/><path class="cls-2" d="M234.51,193.5a5.3,5.3,0,0,1-1.83,1,4.93,4.93,0,0,1-1.89.2,4.54,4.54,0,0,1-1.73-.5,4.22,4.22,0,0,1-1.37-1.1,4.14,4.14,0,0,1-.81-1.59,4.65,4.65,0,0,1-.12-1.82,5.19,5.19,0,0,1,1.87-3.36,5,5,0,0,1,1.84-1,4.76,4.76,0,0,1,1.89-.18,4.87,4.87,0,0,1,1.73.5,4.21,4.21,0,0,1,2.17,2.68,4.6,4.6,0,0,1,.12,1.81,5.15,5.15,0,0,1-1.87,3.34Zm-6-1.07a3.78,3.78,0,0,0,1.13.93,4.07,4.07,0,0,0,1.4.43,3.9,3.9,0,0,0,1.51-.14,4.21,4.21,0,0,0,2.5-2.07,4.27,4.27,0,0,0,.41-1.47,4.15,4.15,0,0,0-.17-1.45,3.77,3.77,0,0,0-.67-1.25,3.53,3.53,0,0,0-1.14-.92,3.68,3.68,0,0,0-1.4-.43,3.93,3.93,0,0,0-2.93.91,3.89,3.89,0,0,0-1.06,1.29,4,4,0,0,0-.42,1.47,4,4,0,0,0,.17,1.45A3.77,3.77,0,0,0,228.51,192.43Z"/><path class="cls-2" d="M245.68,184.25l-5.8-7.07.82-.67L246,183l4.77-3.91.5.62Z"/><path class="cls-2" d="M258.28,173.92l-5.81-7.07.82-.67,5.8,7.07Z"/><path class="cls-2" d="M267.54,155.52l-2.94,2.42,5.29,6.45-.81.67-5.3-6.45L260.84,161l-.51-.62,6.7-5.49Z"/><path class="cls-2" d="M284.92,151l.5.62-5.54,4.55-5.8-7.07,5.44-4.47.5.62-4.62,3.8,2.09,2.55,4-3.31.48.58-4,3.31,2.21,2.7Zm-8.68-5.29-.67.26-.07-1.49.84-.69Z"/><path class="cls-2" d="M289.11,142.63a4.24,4.24,0,0,1-.78-1.49,4.47,4.47,0,0,1-.17-1.75,5,5,0,0,1,.57-1.83,5.32,5.32,0,0,1,1.4-1.67,5.11,5.11,0,0,1,2.24-1.13,3.71,3.71,0,0,1,2.08.17l-.37.86a3,3,0,0,0-1-.19,4.08,4.08,0,0,0-.93.11,4.19,4.19,0,0,0-.85.34,5.63,5.63,0,0,0-.74.5,4.14,4.14,0,0,0-1.1,1.34,3.77,3.77,0,0,0-.22,2.88A4.07,4.07,0,0,0,290,142a3.65,3.65,0,0,0,1.17.93,4,4,0,0,0,1.43.41,3.9,3.9,0,0,0,1.51-.14,4,4,0,0,0,1.43-.76,4.52,4.52,0,0,0,.65-.66A3.86,3.86,0,0,0,297,140a2.8,2.8,0,0,0,0-1l.92-.25a2.83,2.83,0,0,1,0,1.16,4.57,4.57,0,0,1-.38,1.17,5.92,5.92,0,0,1-.67,1.09,5.78,5.78,0,0,1-.88.9,4.72,4.72,0,0,1-1.82,1,5,5,0,0,1-1.9.17,4.84,4.84,0,0,1-1.76-.51A4.32,4.32,0,0,1,289.11,142.63Z"/><path class="cls-2" d="M302.46,128l4.74,5.77-.82.67-5.8-7.07.63-.52,10.29,1.41-4.82-5.88.82-.67,5.79,7.06-.71.59Z"/><path class="cls-2" d="M321.17,122.32l-5.8-7.07.82-.67,5.8,7.07Z"/><path class="cls-2" d="M326.38,112.05a4.24,4.24,0,0,1-.78-1.49,4.29,4.29,0,0,1-.16-1.75A5,5,0,0,1,326,107a5.35,5.35,0,0,1,1.41-1.67,5,5,0,0,1,2.24-1.13,3.68,3.68,0,0,1,2.07.17l-.36.86a3.09,3.09,0,0,0-1-.19,4.08,4.08,0,0,0-.93.11,4.44,4.44,0,0,0-.85.34,6.39,6.39,0,0,0-.74.5,4.14,4.14,0,0,0-1.1,1.34,3.94,3.94,0,0,0-.4,1.46,3.75,3.75,0,0,0,.18,1.42,3.88,3.88,0,0,0,.68,1.23,3.61,3.61,0,0,0,1.16.93,4.08,4.08,0,0,0,2.95.27,3.93,3.93,0,0,0,1.42-.76,4.57,4.57,0,0,0,.66-.66,4.33,4.33,0,0,0,.51-.82,3.88,3.88,0,0,0,.3-.93,2.74,2.74,0,0,0,0-1l.92-.26a2.82,2.82,0,0,1,0,1.16,5,5,0,0,1-.38,1.17,6,6,0,0,1-.68,1.09,5.78,5.78,0,0,1-.88.9,4.72,4.72,0,0,1-1.82,1,5,5,0,0,1-1.9.17,4.78,4.78,0,0,1-1.75-.51A4.25,4.25,0,0,1,326.38,112.05Z"/><path class="cls-2" d="M340.3,94.8l.68-.57,9.23,4.26-.86.71-2.88-1.34-3.71,3,.76,3.07-.87.72Zm5.53,2.67-4.53-2.13,1.19,4.88Z"/></g></g></svg>