<svg xmlns="http://www.w3.org/2000/svg" viewBox="0 0 356 356"><defs><style>.cls-1{fill:#ffef00;stroke:#1f140f;stroke-miterlimit:10;}.cls-2{fill:#643e00;}</style></defs><title>Recurso 2</title><g id="Capa_2" data-name="Capa 2"><g id="Capa_1-2" data-name="Capa 1"><rect class="cls-1" x="0.5" y="0.5" width="355" height="355"/><path class="cls-2" d="M82.45,160.57a.7.7,0,0,1,.59.27.85.85,0,0,1,.18.65q-.42,1.88-3.24,3.38a35.25,35.25,0,0,1-7.06,2.64,87.14,87.14,0,0,1-9,1.92l-1,.15a45.2,45.2,0,0,1-5.53,6.79A25.24,25.24,0,0,1,51.21,181a14,14,0,0,1-6.58,1.69,10.16,10.16,0,0,1-4.74-.94,5.83,5.83,0,0,1-2.55-2.36,6,6,0,0,1-.76-2.87,6.72,6.72,0,0,1,1-3.4,7.65,7.65,0,0,1,6.86-3.82q6.48,0,13.12-.61a68.66,68.66,0,0,0,4-8.82,78,78,0,0,0,2.91-9.51,56.26,56.26,0,0,0,1.42-9.17,26.7,26.7,0,0,0-.52-7.82,10.91,10.91,0,0,0-2.86-5.47,7.67,7.67,0,0,0-5.62-2q-6.82,0-12.46,6.56-4.56,5.32-8.13,14.68a106.75,106.75,0,0,0-4,13.37c-.87,4-1.38,6.61-1.54,7.81q.39,13.45,1.27,24.76t1.53,16.43a2.4,2.4,0,0,1-.59,1.84,2.29,2.29,0,0,1-3.24.19,2.41,2.41,0,0,1-.81-1.45q-.61-4.76-1.69-16t-1.68-24.87a250.45,250.45,0,0,1,0-25.31q.64-11.73,3.45-17.4a2.62,2.62,0,0,1,2.26-1.34,2.43,2.43,0,0,1,2.09,1.05,2.63,2.63,0,0,1,.37,2.36,63.66,63.66,0,0,0-2.46,14q-.69,8.46-.65,18.24a109.34,109.34,0,0,1,4.18-14.15q3.64-9.63,8.4-15.19,6.09-7.06,13.61-7.06a15.62,15.62,0,0,1,8.35,2,12.88,12.88,0,0,1,4.89,5.45,20.69,20.69,0,0,1,1.9,7.83,38.91,38.91,0,0,1-.67,9.28,55.12,55.12,0,0,1-2.82,9.74A58.2,58.2,0,0,1,64,167.86q3.77-.62,7.69-1.56a38.76,38.76,0,0,0,6.77-2.2c1.89-.85,3-1.82,3.22-2.92a.88.88,0,0,1,.29-.44A.76.76,0,0,1,82.45,160.57Zm-37.82,20.6q3,0,6.06-3a36.48,36.48,0,0,0,6-7.87q-4,.34-7.25.44c-2.18.07-3.84.1-5,.1a6.45,6.45,0,0,0-3.34.84,6.12,6.12,0,0,0-2.18,2.17,5.28,5.28,0,0,0-.77,2.67,4.23,4.23,0,0,0,.63,2.2,4.76,4.76,0,0,0,2.06,1.75A8.83,8.83,0,0,0,44.63,181.17Z"/><path class="cls-2" d="M31.32,212.66a2.78,2.78,0,0,1-1.89-.71,3,3,0,0,1-1-1.77c-.41-3.21-1-8.61-1.69-16.08s-1.29-15.87-1.69-24.9a251.44,251.44,0,0,1,0-25.36c.43-7.85,1.61-13.78,3.5-17.61a3.18,3.18,0,0,1,2.75-1.64,2.93,2.93,0,0,1,2.53,1.28,3.1,3.1,0,0,1,.44,2.82,63.74,63.74,0,0,0-2.43,13.88c-.35,4.25-.56,8.81-.63,13.6.82-3,1.86-6.29,3.11-9.75,2.44-6.45,5.3-11.61,8.5-15.35,4.15-4.81,8.87-7.25,14-7.25a16.2,16.2,0,0,1,8.63,2.1,13.41,13.41,0,0,1,5.09,5.67,21.13,21.13,0,0,1,2,8A40,40,0,0,1,71.9,149a55.4,55.4,0,0,1-2.85,9.84,59.35,59.35,0,0,1-4,8.26c2.13-.37,4.31-.83,6.51-1.35a39,39,0,0,0,6.67-2.18c1.72-.76,2.7-1.62,2.92-2.54a1.38,1.38,0,0,1,.47-.74,1.33,1.33,0,0,1,1.84.18,1.45,1.45,0,0,1,.28,1c-.32,1.48-1.51,2.73-3.52,3.8A35.12,35.12,0,0,1,73.06,168a88.12,88.12,0,0,1-9,1.93l-.81.12a45.33,45.33,0,0,1-5.45,6.67,25.91,25.91,0,0,1-6.33,4.74,14.73,14.73,0,0,1-6.83,1.75,10.82,10.82,0,0,1-5-1,6.4,6.4,0,0,1-2.77-2.58,6.58,6.58,0,0,1-.83-3.13,7.24,7.24,0,0,1,1-3.67,8.21,8.21,0,0,1,7.33-4.09c4.19,0,8.49-.19,12.78-.58a67.63,67.63,0,0,0,3.88-8.5A74.84,74.84,0,0,0,64,150.24a55.19,55.19,0,0,0,1.41-9.08,26.29,26.29,0,0,0-.5-7.66,10.55,10.55,0,0,0-2.71-5.21,7.22,7.22,0,0,0-5.25-1.85c-4.36,0-8.42,2.14-12,6.37-3,3.49-5.69,8.37-8,14.53a108.48,108.48,0,0,0-3.93,13.29c-.86,4-1.37,6.57-1.52,7.76.26,8.82.68,17.14,1.27,24.64s1.1,13,1.53,16.41a3,3,0,0,1-.72,2.27A2.72,2.72,0,0,1,31.32,212.66Zm0-87a2.1,2.1,0,0,0-1.81,1.1c-1.79,3.64-2.94,9.42-3.37,17.12s-.44,16.26,0,25.27,1,17.36,1.68,24.84,1.28,12.85,1.69,16a1.85,1.85,0,0,0,.62,1.12,1.7,1.7,0,0,0,1.18.44,1.64,1.64,0,0,0,1.3-.58,1.92,1.92,0,0,0,.47-1.45c-.44-3.39-1-8.93-1.54-16.43s-1-15.86-1.27-24.79c.16-1.29.68-3.94,1.55-7.93a108.37,108.37,0,0,1,4-13.44A50.63,50.63,0,0,1,44,132.1c3.85-4.47,8.18-6.74,12.87-6.74a8.25,8.25,0,0,1,6,2.16,11.51,11.51,0,0,1,3,5.73,27.84,27.84,0,0,1,.53,8A57.4,57.4,0,0,1,65,150.49a78.16,78.16,0,0,1-2.94,9.58A67.19,67.19,0,0,1,58,169l-.14.25-.28,0c-4.42.41-8.85.61-13.17.61a7.29,7.29,0,0,0-3.88,1A7.15,7.15,0,0,0,38,173.4a6.32,6.32,0,0,0-.88,3.13,5.48,5.48,0,0,0,.7,2.62,5.41,5.41,0,0,0,2.33,2.13,9.59,9.59,0,0,0,4.48.88A13.62,13.62,0,0,0,51,180.53,24.86,24.86,0,0,0,57,176a44.13,44.13,0,0,0,5.46-6.71l.13-.2.24,0,1-.15a88.66,88.66,0,0,0,8.9-1.91,34,34,0,0,0,6.94-2.6c1.73-.92,2.73-1.93,3-3a.32.32,0,0,0-.07-.2.23.23,0,0,0-.31,0,.34.34,0,0,0-.11.17c-.29,1.26-1.44,2.34-3.52,3.26a39.47,39.47,0,0,1-6.86,2.24c-2.62.63-5.23,1.15-7.73,1.56l-1.16.19.61-1a57.58,57.58,0,0,0,4.5-9.11,54,54,0,0,0,2.8-9.64,38.3,38.3,0,0,0,.66-9.15,20.15,20.15,0,0,0-1.85-7.62A12.35,12.35,0,0,0,65,126.83a15.14,15.14,0,0,0-8.06-1.93c-4.82,0-9.26,2.31-13.2,6.87-3.12,3.64-5.91,8.7-8.31,15a108.65,108.65,0,0,0-4.15,14.07l-1,4.91,0-5c0-6.51.19-12.66.65-18.28a64.88,64.88,0,0,1,2.48-14.1A2,2,0,0,0,33,126.5,1.89,1.89,0,0,0,31.36,125.67Zm13.27,56a9.3,9.3,0,0,1-4.07-.75,5.23,5.23,0,0,1-2.28-2,4.8,4.8,0,0,1-.71-2.48,5.8,5.8,0,0,1,.84-2.94,6.65,6.65,0,0,1,2.38-2.36,7,7,0,0,1,3.61-.92c1.15,0,2.82,0,5-.1s4.57-.21,7.22-.44l1-.09-.53.9a36.92,36.92,0,0,1-6,8C48.9,180.65,46.73,181.71,44.63,181.71Zm11-10.77c-2.27.18-4.36.3-6.24.35-2.15.07-3.84.1-5,.1a5.92,5.92,0,0,0-3.06.77,5.56,5.56,0,0,0-2,2,4.75,4.75,0,0,0-.69,2.4,3.59,3.59,0,0,0,.56,1.92A4.16,4.16,0,0,0,41,180a8.44,8.44,0,0,0,3.6.64c1.82,0,3.73-1,5.69-2.84A34.72,34.72,0,0,0,55.64,170.94Z"/><path class="cls-2" d="M109.57,162.18a.78.78,0,0,1,.57.23.68.68,0,0,1,.2.58,11.22,11.22,0,0,1-5,8.13,18.21,18.21,0,0,1-7.71,3.07.24.24,0,0,0,0,.11q-3.49,5.87-8.59,5.87a7.68,7.68,0,0,1-5-1.61,9.62,9.62,0,0,1-2.89-4.09,14.59,14.59,0,0,1-.94-5.25,15.33,15.33,0,0,1,.88-5.24,19,19,0,0,1-.54-4.64,10.19,10.19,0,0,1,3-7.42,9.94,9.94,0,0,1,7.35-3.09,8.21,8.21,0,0,1,7,3.7q2.63,3.71,2.63,9.92a25.43,25.43,0,0,1-2,10.05,16.56,16.56,0,0,0,6-2.65,9.67,9.67,0,0,0,4.29-7,.83.83,0,0,1,.25-.5A.73.73,0,0,1,109.57,162.18ZM96.68,172.8A23.43,23.43,0,0,0,99,162.45a16.75,16.75,0,0,0-2-8.55,6.78,6.78,0,0,0-6.06-3.53A8.51,8.51,0,0,0,84.67,153a8.73,8.73,0,0,0-2.6,6.35c0,.82,0,1.59.11,2.3A6.68,6.68,0,0,1,86,158.69a1.76,1.76,0,0,1,1.09.11,1.81,1.81,0,0,1,.83.77,1.66,1.66,0,0,1-.16,1.8,10.63,10.63,0,0,0-1.3,3.25,29.21,29.21,0,0,0-.81,4.81l0,0c.1.1.21.2.31.31a13,13,0,0,0,8.82,3.1C95.45,172.88,96.07,172.86,96.68,172.8Zm-7.63,5.84a6.36,6.36,0,0,0,4-1.31,11,11,0,0,0,2.67-2.91h-.92a14.73,14.73,0,0,1-9.24-3,15.36,15.36,0,0,0,.3,3.55,6.79,6.79,0,0,0,1.1,2.65A2.39,2.39,0,0,0,89.05,178.64Z"/><path class="cls-2" d="M89.05,180.71A8.15,8.15,0,0,1,83.68,179a10.17,10.17,0,0,1-3.06-4.31,15.38,15.38,0,0,1-1-5.44,16.09,16.09,0,0,1,.86-5.27,19.84,19.84,0,0,1-.52-4.61,10.74,10.74,0,0,1,3.21-7.8,10.54,10.54,0,0,1,7.73-3.25,8.73,8.73,0,0,1,7.44,3.93c1.81,2.55,2.73,6,2.73,10.23a26.26,26.26,0,0,1-1.68,9.26,16.09,16.09,0,0,0,4.77-2.3,9.17,9.17,0,0,0,4.07-6.59,1.33,1.33,0,0,1,2.27-.79,1.2,1.2,0,0,1,.34,1,11.78,11.78,0,0,1-5.16,8.51,18.68,18.68,0,0,1-7.66,3.12C95.64,178.68,92.61,180.71,89.05,180.71Zm1.88-31.34a9.47,9.47,0,0,0-7,2.93,9.7,9.7,0,0,0-2.9,7,18.92,18.92,0,0,0,.52,4.51l0,.16,0,.16a14.75,14.75,0,0,0-.85,5.05,14.19,14.19,0,0,0,.9,5.06,9.11,9.11,0,0,0,2.74,3.86,7.14,7.14,0,0,0,4.68,1.49c3.2,0,5.85-1.81,8.08-5.53l.06-.15.13-.25.27,0a17.6,17.6,0,0,0,7.49-3,10.74,10.74,0,0,0,4.72-7.75c0-.09,0-.11,0-.14a.34.34,0,0,0-.35,0,.25.25,0,0,0-.07.17,10.2,10.2,0,0,1-4.52,7.35A17.1,17.1,0,0,1,98.64,173l-1,.24.41-1a25,25,0,0,0,2-9.84c0-4-.86-7.24-2.53-9.6A7.61,7.61,0,0,0,90.93,149.37Zm-1.88,29.8a2.93,2.93,0,0,1-2.49-1.23,7.5,7.5,0,0,1-1.19-2.86,16.42,16.42,0,0,1-.31-3.67l0-1.06.84.65a14.33,14.33,0,0,0,8.92,2.88h1.89l-.51.82a12.14,12.14,0,0,1-2.79,3.06A6.94,6.94,0,0,1,89.05,179.17Zm-2.91-6.69a14.62,14.62,0,0,0,.29,2.38,6.23,6.23,0,0,0,1,2.44,1.9,1.9,0,0,0,1.62.8,5.93,5.93,0,0,0,3.71-1.19,11.38,11.38,0,0,0,2-1.95A15.59,15.59,0,0,1,86.14,172.48Zm8.7.94a13.6,13.6,0,0,1-9.17-3.24l-.52-.51,0-.29a30.3,30.3,0,0,1,.83-4.9,10.66,10.66,0,0,1,1.38-3.42,1.1,1.1,0,0,0,.11-1.25,1.16,1.16,0,0,0-.56-.51,1.19,1.19,0,0,0-.77-.08,6.11,6.11,0,0,0-3.48,2.72l-.83,1.28-.16-1.52a21.77,21.77,0,0,1-.12-2.36,9.27,9.27,0,0,1,2.76-6.73,9.06,9.06,0,0,1,6.64-2.78,7.33,7.33,0,0,1,6.52,3.78,17.4,17.4,0,0,1,2.11,8.84A24.19,24.19,0,0,1,97.17,173l-.14.28-.3,0C96.1,173.4,95.47,173.42,94.84,173.42Zm-8.61-4.19.17.16a12.55,12.55,0,0,0,8.44,3c.5,0,1,0,1.49-.05a23.06,23.06,0,0,0,2.15-9.84,16.29,16.29,0,0,0-2-8.28,6.23,6.23,0,0,0-5.59-3.26,7.91,7.91,0,0,0-5.87,2.46,8.11,8.11,0,0,0-2.45,6c0,.29,0,.57,0,.85a7,7,0,0,1,3.25-2,2.29,2.29,0,0,1,2.53,1.13,2.22,2.22,0,0,1-.18,2.39A10.14,10.14,0,0,0,87,164.75,30,30,0,0,0,86.23,169.23Z"/><path class="cls-2" d="M137.34,163a.64.64,0,0,1,.44.36.88.88,0,0,1,.06.6c-.39,1.25-1.12,3.45-2.21,6.61s-2.4,6.62-3.93,10.38Q124.22,199,118.81,199q-2.15,0-4-2.45a23.77,23.77,0,0,1-3.2-6.66,59.7,59.7,0,0,1-2.21-9.59,90,90,0,0,1-1-11.37,95.79,95.79,0,0,1,.42-12,72.31,72.31,0,0,1,2-11.39,39.75,39.75,0,0,1,3.82-9.61,20.53,20.53,0,0,1,5.83-6.65,13.44,13.44,0,0,1,8-2.46,8.46,8.46,0,0,1,6.75,2.8,10.31,10.31,0,0,1,2.15,6.79,21.15,21.15,0,0,1-1.76,8.08,28.56,28.56,0,0,1-4.87,7.8,24.22,24.22,0,0,1-16.3,8.36,156,156,0,0,0-.1,17.53A88.12,88.12,0,0,0,116.05,192q1.19,5.44,2.76,5.45a3.39,3.39,0,0,0,1.61-.6,10.16,10.16,0,0,0,2.42-2.37,37.7,37.7,0,0,0,3.26-5.2q1.84-3.42,4.18-9t3.91-10.3c1.08-3.13,1.8-5.32,2.19-6.57a.83.83,0,0,1,.38-.46A.62.62,0,0,1,137.34,163Zm-14.46-32a20.71,20.71,0,0,0-4.09,6.87,54.26,54.26,0,0,0-2.68,9.81,109.83,109.83,0,0,0-1.48,11.53,22.71,22.71,0,0,0,15-7.86,27,27,0,0,0,4.58-7.31,19.54,19.54,0,0,0,1.67-7.54,8.93,8.93,0,0,0-1.77-5.79,6.92,6.92,0,0,0-5.6-2.26A7.57,7.57,0,0,0,122.88,130.94Z"/><path class="cls-2" d="M118.81,199.54c-1.6,0-3.09-.9-4.4-2.67a24,24,0,0,1-3.28-6.81,59.75,59.75,0,0,1-2.23-9.68,91,91,0,0,1-1-11.44,98.86,98.86,0,0,1,.42-12,72,72,0,0,1,2-11.47,40.08,40.08,0,0,1,3.87-9.74,21.06,21.06,0,0,1,6-6.83,14,14,0,0,1,8.35-2.56,9,9,0,0,1,7.16,3,10.88,10.88,0,0,1,2.28,7.14,21.86,21.86,0,0,1-1.8,8.29,29.44,29.44,0,0,1-5,8,24.94,24.94,0,0,1-16.19,8.5,155.94,155.94,0,0,0-.07,17,87.4,87.4,0,0,0,1.62,13.73c1,4.66,2,5,2.23,5a2.89,2.89,0,0,0,1.34-.52,9.89,9.89,0,0,0,2.27-2.25,35.71,35.71,0,0,0,3.2-5.12c1.22-2.25,2.61-5.25,4.16-8.93s2.83-7.14,3.9-10.26,1.8-5.31,2.18-6.56a1.4,1.4,0,0,1,.63-.77,1.31,1.31,0,0,1,1.78.56,1.44,1.44,0,0,1,.09,1c-.39,1.26-1.11,3.43-2.22,6.66s-2.41,6.65-3.94,10.4C127.07,193.51,122.69,199.54,118.81,199.54Zm9.74-72.15a13,13,0,0,0-7.72,2.36,20,20,0,0,0-5.67,6.48,39.08,39.08,0,0,0-3.77,9.48,72.25,72.25,0,0,0-2,11.31,98.61,98.61,0,0,0-.41,11.9,88.89,88.89,0,0,0,1,11.3,58.62,58.62,0,0,0,2.18,9.5,23.1,23.1,0,0,0,3.13,6.51c1.1,1.48,2.29,2.23,3.53,2.23,2.3,0,6.32-3.08,12.39-17.77,1.52-3.73,2.84-7.21,3.92-10.34s1.83-5.38,2.2-6.6a.33.33,0,0,0,0-.21.11.11,0,0,0-.09-.07l0,0c-.07,0-.1,0-.12,0a.31.31,0,0,0-.15.18c-.37,1.22-1.11,3.44-2.18,6.56s-2.39,6.61-3.92,10.33-3,6.75-4.21,9a36.42,36.42,0,0,1-3.31,5.28,10.62,10.62,0,0,1-2.56,2.51,3.92,3.92,0,0,1-1.89.67c-1.39,0-2.4-1.81-3.29-5.87a89.44,89.44,0,0,1-1.64-13.9,159.46,159.46,0,0,1,.1-17.59l0-.46.47,0A23.88,23.88,0,0,0,130.42,152a28.17,28.17,0,0,0,4.77-7.65,20.68,20.68,0,0,0,1.72-7.87,9.87,9.87,0,0,0-2-6.44A7.87,7.87,0,0,0,128.55,127.39ZM114,159.75l0-.64a110.77,110.77,0,0,1,1.49-11.58,55.72,55.72,0,0,1,2.71-9.92,21.14,21.14,0,0,1,4.2-7,8.09,8.09,0,0,1,6.06-2.72,7.5,7.5,0,0,1,6,2.45,9.57,9.57,0,0,1,1.89,6.14,20.2,20.2,0,0,1-1.71,7.75,27.62,27.62,0,0,1-4.68,7.45,23.35,23.35,0,0,1-15.39,8.05Zm14.51-30.82a7,7,0,0,0-5.28,2.38,20.16,20.16,0,0,0-4,6.69,54.3,54.3,0,0,0-2.66,9.72,108.43,108.43,0,0,0-1.42,10.82,22.31,22.31,0,0,0,14-7.61,26.5,26.5,0,0,0,4.49-7.16,19,19,0,0,0,1.63-7.33,8.42,8.42,0,0,0-1.65-5.45A6.37,6.37,0,0,0,128.55,128.93Z"/><path class="cls-2" d="M185.7,162.18a.94.94,0,0,1,.47.38.66.66,0,0,1,0,.58q-.49,1.53-1.7,4.89c-.81,2.24-1.76,4.67-2.86,7.31a73.76,73.76,0,0,1-3.32,7.13,26.93,26.93,0,0,1-2.59,4,7.07,7.07,0,0,1-1.92,1.76,3.06,3.06,0,0,1-1.38.42,5.92,5.92,0,0,1-4.35-1.49,8.52,8.52,0,0,1-2.17-3.91,25,25,0,0,1-.78-5.28c-.09-1.9-.11-3.79-.06-5.65s0-3.28-.06-4.7a10.7,10.7,0,0,0-.61-3.42,1.8,1.8,0,0,0-1.75-1.28,3.9,3.9,0,0,0-3.14,1.63,15.19,15.19,0,0,0-2.28,4.31,46.21,46.21,0,0,0-1.71,5.91q-.74,3.22-1.34,6.48c-.54,2.92-1.12,5.58-1.73,8a22.15,22.15,0,0,1-2.24,5.85,3.93,3.93,0,0,1-3.44,2.22q-2.15,0-4-2.45a23.77,23.77,0,0,1-3.2-6.66,59.75,59.75,0,0,1-2.2-9.59,90.14,90.14,0,0,1-1-11.39,97.83,97.83,0,0,1,.42-12,72,72,0,0,1,2-11.38,39.51,39.51,0,0,1,3.82-9.58,20.46,20.46,0,0,1,5.83-6.66,13.44,13.44,0,0,1,8-2.45,8.43,8.43,0,0,1,6.75,2.8,10.26,10.26,0,0,1,2.14,6.75,21,21,0,0,1-1.76,8.11,28.06,28.06,0,0,1-4.87,7.76,24.15,24.15,0,0,1-16.3,8.4,158.39,158.39,0,0,0-.1,17.53A89.34,89.34,0,0,0,144,190.37q1.19,5.44,2.76,5.45t2.55-2.19a27,27,0,0,0,1.86-5.54q.81-3.36,1.5-7.08c.46-2.43,1-4.8,1.5-7.13a45.71,45.71,0,0,1,1.89-6.29,13.83,13.83,0,0,1,2.69-4.49,5.16,5.16,0,0,1,3.89-1.69,7.55,7.55,0,0,1,4.38,1.17,7.63,7.63,0,0,1,2.58,3.13,15.64,15.64,0,0,1,1.25,4.35,36.08,36.08,0,0,1,.36,4.93c0,1.69,0,3.3-.05,4.83s-.07,2.66,0,3.74a10.81,10.81,0,0,0,.31,2.61c.18.65.51,1,1,1a2,2,0,0,0,.81-.35,6.29,6.29,0,0,0,1.51-1.55,27.62,27.62,0,0,0,2.31-3.72c.9-1.67,2-3.93,3.16-6.77,1.1-2.61,2.05-5,2.84-7.25s1.35-3.83,1.69-4.83a.8.8,0,0,1,.38-.46A.64.64,0,0,1,185.7,162.18Zm-29.18-35.44a7.59,7.59,0,0,0-5.68,2.53,20.68,20.68,0,0,0-4.09,6.87,55.92,55.92,0,0,0-2.68,9.84,109.29,109.29,0,0,0-1.48,11.52,22.69,22.69,0,0,0,15-7.86,27.52,27.52,0,0,0,4.58-7.33,19.43,19.43,0,0,0,1.67-7.55,8.82,8.82,0,0,0-1.76-5.76A6.93,6.93,0,0,0,156.52,126.74Z"/><path class="cls-2" d="M146.77,197.89c-1.6,0-3.08-.9-4.4-2.67a24,24,0,0,1-3.28-6.81,59.87,59.87,0,0,1-2.23-9.67,91.28,91.28,0,0,1-1-11.46,101.28,101.28,0,0,1,.42-12.06,72.66,72.66,0,0,1,2-11.45,40.5,40.5,0,0,1,3.87-9.72,21.07,21.07,0,0,1,6-6.83,14.07,14.07,0,0,1,8.35-2.55,9,9,0,0,1,7.16,3,10.88,10.88,0,0,1,2.27,7.11,21.74,21.74,0,0,1-1.8,8.32,28.55,28.55,0,0,1-5,7.91A24.86,24.86,0,0,1,143,159.53a158.69,158.69,0,0,0-.07,17,88.47,88.47,0,0,0,1.62,13.72c1,4.66,2,5,2.23,5,.77,0,1.47-.63,2.07-1.88a28.22,28.22,0,0,0,1.82-5.44c.53-2.22,1-4.59,1.49-7.05s1-4.83,1.5-7.15a47.3,47.3,0,0,1,1.92-6.37,14.25,14.25,0,0,1,2.8-4.66,5.69,5.69,0,0,1,4.28-1.86,8.06,8.06,0,0,1,4.68,1.27,8.19,8.19,0,0,1,2.78,3.34A16.55,16.55,0,0,1,171.4,170a37,37,0,0,1,.36,5c0,1.68,0,3.32,0,4.85s-.07,2.64,0,3.71A10.33,10.33,0,0,0,172,186c.16.58.38.58.47.58a2.74,2.74,0,0,0,.53-.27,6.07,6.07,0,0,0,1.37-1.42,28.56,28.56,0,0,0,2.25-3.65c.89-1.64,1.95-3.91,3.14-6.72,1.09-2.58,2-5,2.83-7.22s1.35-3.83,1.68-4.82a1.44,1.44,0,0,1,.63-.76,1.19,1.19,0,0,1,1-.07,1.34,1.34,0,0,1,.73.61,1.19,1.19,0,0,1,.08,1c-.33,1-.91,2.67-1.71,4.88s-1.77,4.71-2.86,7.33a75,75,0,0,1-3.35,7.19,26.72,26.72,0,0,1-2.64,4.11,7.58,7.58,0,0,1-2.09,1.9,3.46,3.46,0,0,1-1.63.48,6.45,6.45,0,0,1-4.73-1.65,9.05,9.05,0,0,1-2.31-4.15,25.6,25.6,0,0,1-.8-5.39c-.09-1.92-.11-3.84-.06-5.7,0-1.69,0-3.26-.06-4.66a10.2,10.2,0,0,0-.57-3.24,1.27,1.27,0,0,0-1.25-.94,3.35,3.35,0,0,0-2.72,1.43,14.64,14.64,0,0,0-2.2,4.16,47.31,47.31,0,0,0-1.68,5.84c-.49,2.15-.94,4.32-1.34,6.46-.54,2.91-1.12,5.61-1.74,8a22.86,22.86,0,0,1-2.3,6A4.42,4.42,0,0,1,146.77,197.89Zm9.75-72.14a13,13,0,0,0-7.73,2.35,20,20,0,0,0-5.67,6.48,39.24,39.24,0,0,0-3.76,9.46,70.65,70.65,0,0,0-2,11.29,98.87,98.87,0,0,0-.42,11.92,90.93,90.93,0,0,0,1,11.32,59.7,59.7,0,0,0,2.18,9.5,23,23,0,0,0,3.13,6.51c1.1,1.48,2.29,2.23,3.53,2.23a3.38,3.38,0,0,0,3-2,22,22,0,0,0,2.19-5.7c.61-2.4,1.18-5.08,1.72-8,.4-2.15.85-4.34,1.34-6.5a48.86,48.86,0,0,1,1.73-6,15.68,15.68,0,0,1,2.37-4.47,4.42,4.42,0,0,1,3.56-1.83A2.31,2.31,0,0,1,164.9,164a11.19,11.19,0,0,1,.65,3.59c.06,1.43.08,3,.06,4.73s0,3.74.06,5.63a23.46,23.46,0,0,0,.77,5.16,7.81,7.81,0,0,0,2,3.66,5.45,5.45,0,0,0,4,1.34,2.55,2.55,0,0,0,1.13-.36,6.59,6.59,0,0,0,1.76-1.63,27.37,27.37,0,0,0,2.53-3.94,72.9,72.9,0,0,0,3.29-7.08c1.09-2.61,2.05-5.06,2.85-7.28s1.36-3.84,1.7-4.88a.17.17,0,0,0,0-.14.31.31,0,0,0-.19-.14c-.06,0-.08,0-.11,0a.3.3,0,0,0-.15.18q-.5,1.47-1.68,4.82c-.8,2.23-1.76,4.68-2.85,7.28-1.21,2.85-2.28,5.14-3.19,6.82a29.44,29.44,0,0,1-2.35,3.79,7.29,7.29,0,0,1-1.66,1.69,2.36,2.36,0,0,1-1.09.42c-.42,0-1.19-.18-1.51-1.38a11.87,11.87,0,0,1-.33-2.73c0-1.1,0-2.37,0-3.78s.07-3.13.06-4.8a38.44,38.44,0,0,0-.36-4.86,15,15,0,0,0-1.21-4.2,6.53,6.53,0,0,0-6.47-4,4.61,4.61,0,0,0-3.5,1.52,13.28,13.28,0,0,0-2.57,4.31A45.07,45.07,0,0,0,154.7,174c-.53,2.31-1,4.7-1.49,7.11s-1,4.86-1.5,7.11a28.34,28.34,0,0,1-1.9,5.65c-.8,1.65-1.82,2.49-3,2.49-1.38,0-2.4-1.81-3.29-5.87a90.68,90.68,0,0,1-1.64-13.9,159.46,159.46,0,0,1,.1-17.59l0-.46.46,0a23.77,23.77,0,0,0,15.95-8.23,27.43,27.43,0,0,0,4.77-7.61,20.55,20.55,0,0,0,1.72-7.9,9.82,9.82,0,0,0-2-6.41A7.84,7.84,0,0,0,156.52,125.75ZM142,158.1l0-.64a110.77,110.77,0,0,1,1.49-11.58,56.19,56.19,0,0,1,2.71-9.94,21.1,21.1,0,0,1,4.2-7,8.16,8.16,0,0,1,6.07-2.7,7.49,7.49,0,0,1,6,2.45,9.37,9.37,0,0,1,1.89,6.11,20.13,20.13,0,0,1-1.71,7.76A28.16,28.16,0,0,1,158,150a23.38,23.38,0,0,1-15.39,8Zm14.51-30.82a7,7,0,0,0-5.29,2.36,20.12,20.12,0,0,0-4,6.69,55.25,55.25,0,0,0-2.66,9.74c-.63,3.44-1.11,7.08-1.42,10.82a22.33,22.33,0,0,0,14-7.61,27,27,0,0,0,4.48-7.18,18.91,18.91,0,0,0,1.63-7.34,8.28,8.28,0,0,0-1.64-5.41A6.36,6.36,0,0,0,156.52,127.28Z"/><path class="cls-2" d="M203.67,162.66a.8.8,0,0,1,0,.59c-.38.77-1,1.94-1.74,3.49s-1.68,3.25-2.71,5.07a57.68,57.68,0,0,1-4,6.29,12.45,12.45,0,0,1-2.61,2.7,3,3,0,0,1-1.57.6h0a5.88,5.88,0,0,1-5.45-3.07A15.07,15.07,0,0,1,184,171a36.92,36.92,0,0,1,.86-8,50,50,0,0,1,2-6.63,2.49,2.49,0,0,1,1.07-1.27,2.08,2.08,0,0,1,1.61-.19,2.17,2.17,0,0,1,1.23.81,2.14,2.14,0,0,1,.46,1.34,3.11,3.11,0,0,1-.08.65,53,53,0,0,0-1.63,8.78,52.14,52.14,0,0,0-.19,8.86q.28,4.18,1.67,4.45h0a1.69,1.69,0,0,0,.55-.23,5.6,5.6,0,0,0,1.25-1.07,23.73,23.73,0,0,0,2.07-2.63,55.51,55.51,0,0,0,3-4.89q1.54-2.68,2.71-5c.78-1.53,1.34-2.68,1.7-3.45a.79.79,0,0,1,.43-.4.81.81,0,0,1,.57,0A.72.72,0,0,1,203.67,162.66Zm-12.56-11.3a2.64,2.64,0,0,1-1.88-4.5A2.64,2.64,0,1,1,193,150.6,2.56,2.56,0,0,1,191.11,151.36Z"/><path class="cls-2" d="M191.06,181.94H191a6.41,6.41,0,0,1-5.92-3.36,15.57,15.57,0,0,1-1.6-7.56,38,38,0,0,1,.87-8.08,52.59,52.59,0,0,1,2-6.7,3.09,3.09,0,0,1,1.31-1.55,2.81,2.81,0,0,1,3.54.76,2.7,2.7,0,0,1,.57,1.67,3.58,3.58,0,0,1-.09.77,51.85,51.85,0,0,0-1.62,8.72,51.05,51.05,0,0,0-.19,8.77c.22,3.16.86,3.8,1.15,3.93l.33-.16a5.14,5.14,0,0,0,1.1-1,24.68,24.68,0,0,0,2-2.57,53.47,53.47,0,0,0,3-4.84c1-1.78,1.92-3.44,2.7-5s1.34-2.67,1.69-3.44a1.34,1.34,0,0,1,.73-.68,1.3,1.3,0,0,1,1.68.8h0a1.41,1.41,0,0,1,0,.95L202.39,167c-.78,1.56-1.7,3.27-2.71,5.08a58.14,58.14,0,0,1-4.08,6.36,12.74,12.74,0,0,1-2.74,2.83A3.53,3.53,0,0,1,191.06,181.94Zm-2.16-26.51a1.37,1.37,0,0,0-.74.2,1.94,1.94,0,0,0-.84,1,50.27,50.27,0,0,0-1.95,6.55,36.52,36.52,0,0,0-.85,7.85,14.54,14.54,0,0,0,1.47,7,5.3,5.3,0,0,0,5,2.79,2.29,2.29,0,0,0,1.31-.51,12.07,12.07,0,0,0,2.47-2.58,57.85,57.85,0,0,0,4-6.23c1-1.79,1.91-3.49,2.69-5l1.74-3.49a.27.27,0,0,0,0-.18s0-.08-.13-.13a.24.24,0,0,0-.15,0s-.07,0-.12.13c-.36.76-.93,1.92-1.71,3.46s-1.7,3.23-2.72,5a55.37,55.37,0,0,1-3,4.93,24.8,24.8,0,0,1-2.12,2.69,5.81,5.81,0,0,1-1.39,1.18,1.82,1.82,0,0,1-.8.29h-.14c-1.22-.23-1.89-1.8-2.11-4.94a52.16,52.16,0,0,1,.2-8.95,53.39,53.39,0,0,1,1.64-8.88,2.14,2.14,0,0,0,.06-.5,1.7,1.7,0,0,0-.35-1,1.65,1.65,0,0,0-.93-.61A2,2,0,0,0,188.9,155.43Zm2.21-3.53a3.18,3.18,0,0,1-2.26-5.42,3.18,3.18,0,1,1,4.5,4.5A3.12,3.12,0,0,1,191.11,151.9Zm0-5.29a2,2,0,0,0-1.49.62,2.06,2.06,0,0,0-.61,1.49,2,2,0,0,0,.6,1.5,2.11,2.11,0,0,0,3,0,2,2,0,0,0,.63-1.49,2.15,2.15,0,0,0-2.11-2.11Z"/><path class="cls-2" d="M249.34,162.76a.7.7,0,0,1,.44-.35.8.8,0,0,1,.55,0,.77.77,0,0,1,.41.46.82.82,0,0,1-.06.61c-.44.82-1.19,2.07-2.26,3.74a53.74,53.74,0,0,1-4.11,5.47,34.31,34.31,0,0,1-7.67,6.86,26.34,26.34,0,0,1-1.46,6.37,20.6,20.6,0,0,1-3,5.52,14.67,14.67,0,0,1-4.41,3.92,11.42,11.42,0,0,1-5.77,1.45,5.66,5.66,0,0,1-4.22-1.59,5.75,5.75,0,0,1-1.57-4.24,9.18,9.18,0,0,1,1.28-4.6,10.45,10.45,0,0,1,3.68-3.74,10.7,10.7,0,0,1,5.7-1.48,13.94,13.94,0,0,0,2.88-.3,45,45,0,0,0,.67-6.31,26.4,26.4,0,0,0-.39-5.64,10,10,0,0,0-1.59-4.07,3.52,3.52,0,0,0-3-1.51,8,8,0,0,0-4.56,1.26,10.26,10.26,0,0,0-3.11,3.36,20.43,20.43,0,0,0-2,4.6,45.37,45.37,0,0,0-1.15,5c-.28,1.69-.5,3.26-.65,4.72a34.76,34.76,0,0,1-.73,4.39c-.26,1-.73,1.47-1.42,1.47v0q-2.42,0-4.39-2.67a23.82,23.82,0,0,1-3.36-7.13,56,56,0,0,1-2-10,72.78,72.78,0,0,1-.4-11.51,63.69,63.69,0,0,1,1.51-11.51,39.78,39.78,0,0,1,3.69-10.05,20.37,20.37,0,0,1,6.15-7.13,15,15,0,0,1,8.92-2.65,8.58,8.58,0,0,1,6.75,2.76,10.46,10.46,0,0,1,2.15,6.79,20.85,20.85,0,0,1-1.79,8.08,28.78,28.78,0,0,1-4.89,7.8,24,24,0,0,1-16.68,8.4,109.2,109.2,0,0,0,.23,13.06,58.37,58.37,0,0,0,1.53,10c.69,2.59,1.5,4,2.42,4.27l-.08.15.1-.07a.27.27,0,0,1,.17,0v0h-.19a8.57,8.57,0,0,0,.42-1.8c.13-.84.26-1.74.39-2.69q.3-2.83.93-6.23a33.28,33.28,0,0,1,1.94-6.54q3.27-7.56,10.09-7.55a9.58,9.58,0,0,1,6.58,2.24,12.89,12.89,0,0,1,3.72,5.85,22,22,0,0,1,1,7.75,40.05,40.05,0,0,0,8.27-8.35A54.92,54.92,0,0,0,249.34,162.76ZM222,127.05a8.41,8.41,0,0,0-6.2,2.62,20.55,20.55,0,0,0-4.29,7,51.6,51.6,0,0,0-2.65,9.88,96.73,96.73,0,0,0-1.24,11.22,22.58,22.58,0,0,0,15.45-7.9,26.38,26.38,0,0,0,4.62-7.31,19.35,19.35,0,0,0,1.67-7.54,8.83,8.83,0,0,0-1.8-5.79A7,7,0,0,0,222,127.05Zm0,68.27a4,4,0,0,0,3.05-1.78,17.87,17.87,0,0,0,2.57-4.68,38.24,38.24,0,0,0,1.82-6.35,15.15,15.15,0,0,1-2.57.23,8.63,8.63,0,0,0-8.15,4.7,8,8,0,0,0-1,3.58,4.31,4.31,0,0,0,1.13,3.17A4.26,4.26,0,0,0,222,195.32Z"/><path class="cls-2" d="M222,197.39a6.23,6.23,0,0,1-4.61-1.75A6.33,6.33,0,0,1,215.7,191a9.82,9.82,0,0,1,1.35-4.87,11,11,0,0,1,3.87-3.93,11.26,11.26,0,0,1,6-1.56,12.94,12.94,0,0,0,2.41-.22,43,43,0,0,0,.6-5.87,25.93,25.93,0,0,0-.38-5.52A9.42,9.42,0,0,0,228,165.2a3,3,0,0,0-2.56-1.29,7.46,7.46,0,0,0-4.26,1.17,9.91,9.91,0,0,0-2.95,3.18,19.8,19.8,0,0,0-1.9,4.48,44.32,44.32,0,0,0-1.14,5c-.27,1.67-.49,3.24-.64,4.68a35.83,35.83,0,0,1-.75,4.47c-.4,1.56-1.28,1.88-1.94,1.88h-.54v-.06a6.1,6.1,0,0,1-.72-.14l-1,1,.55-1.11a7.09,7.09,0,0,1-3.14-2.58,24.28,24.28,0,0,1-3.44-7.29,57.12,57.12,0,0,1-2.06-10.13,73.8,73.8,0,0,1-.4-11.59,64.68,64.68,0,0,1,1.53-11.61A40.27,40.27,0,0,1,206.44,135a20.88,20.88,0,0,1,6.32-7.32A15.64,15.64,0,0,1,222,125a9.09,9.09,0,0,1,7.15,3,11,11,0,0,1,2.29,7.14,21.51,21.51,0,0,1-1.83,8.29,29.72,29.72,0,0,1-5,8,24.69,24.69,0,0,1-16.57,8.54,108.62,108.62,0,0,0,.25,12.52,57.57,57.57,0,0,0,1.51,9.88,8.34,8.34,0,0,0,1.59,3.6c.06-.26.13-.61.2-1.07.12-.84.25-1.74.38-2.68.2-1.88.52-4,.94-6.26a33.51,33.51,0,0,1,2-6.65c2.26-5.23,5.82-7.88,10.59-7.88a10.17,10.17,0,0,1,6.93,2.37,13.56,13.56,0,0,1,3.88,6.09,22.51,22.51,0,0,1,1.06,6.8,38.75,38.75,0,0,0,7.27-7.54,54,54,0,0,0,4.23-6.5l0,0a1.22,1.22,0,0,1,.77-.6,1.42,1.42,0,0,1,.91.06,1.33,1.33,0,0,1,.61,1.82c-.44.84-1.21,2.11-2.29,3.78a52,52,0,0,1-4.15,5.53,35.08,35.08,0,0,1-7.57,6.83,27.93,27.93,0,0,1-1.46,6.24,21.53,21.53,0,0,1-3.05,5.66,15.33,15.33,0,0,1-4.57,4.06A12.07,12.07,0,0,1,222,197.39Zm3.45-34.56a4,4,0,0,1,3.43,1.74,10.51,10.51,0,0,1,1.68,4.28,26.87,26.87,0,0,1,.4,5.76,46,46,0,0,1-.68,6.38l-.07.36-.35.08a14.18,14.18,0,0,1-3,.31,10.11,10.11,0,0,0-5.41,1.4,9.91,9.91,0,0,0-3.5,3.55,8.69,8.69,0,0,0-1.21,4.33,5.2,5.2,0,0,0,1.41,3.86,5.08,5.08,0,0,0,3.84,1.43,10.93,10.93,0,0,0,5.5-1.38,14.1,14.1,0,0,0,4.25-3.77,20.6,20.6,0,0,0,2.9-5.38,26.2,26.2,0,0,0,1.42-6.24l0-.26.22-.14a33.78,33.78,0,0,0,7.55-6.76A51,51,0,0,0,248,167c1.06-1.65,1.82-2.9,2.24-3.7a.21.21,0,0,0,0-.2.19.19,0,0,0-.13-.14.32.32,0,0,0-.17,0,.15.15,0,0,0-.11.08,53.41,53.41,0,0,1-4.31,6.64,40.87,40.87,0,0,1-8.38,8.46l-.91.69,0-1.14a21.79,21.79,0,0,0-1-7.57,12.44,12.44,0,0,0-3.56-5.61,9.1,9.1,0,0,0-6.22-2.1c-4.36,0-7.49,2.36-9.59,7.23A31.68,31.68,0,0,0,214,176c-.42,2.24-.74,4.32-.94,6.19-.13,1-.26,1.86-.38,2.71-.08.46-.15.86-.23,1.18v1.08l-.46,0-.41.41.33,0h.24c.21-.08.47-.32.66-1a33.93,33.93,0,0,0,.71-4.32c.16-1.45.38-3,.66-4.74a44.25,44.25,0,0,1,1.16-5.11,21.1,21.1,0,0,1,2-4.72,10.79,10.79,0,0,1,3.27-3.53A8.57,8.57,0,0,1,225.48,162.83ZM222,126.05a14.6,14.6,0,0,0-8.61,2.55,19.91,19.91,0,0,0-6,7,39.29,39.29,0,0,0-3.63,9.91,63.47,63.47,0,0,0-1.5,11.41,71.6,71.6,0,0,0,.4,11.42,55.91,55.91,0,0,0,2,9.94,23.6,23.6,0,0,0,3.27,7,6,6,0,0,0,2.77,2.25l.27-.56c-.87-.6-1.58-2-2.21-4.38a59.55,59.55,0,0,1-1.55-10.06,110.47,110.47,0,0,1-.23-13.13l0-.48.48,0a23.57,23.57,0,0,0,16.32-8.22,28.52,28.52,0,0,0,4.8-7.65,20.5,20.5,0,0,0,1.74-7.87,9.94,9.94,0,0,0-2-6.45A8,8,0,0,0,222,126.05Zm0,69.81a4.74,4.74,0,0,1-3.51-1.29,4.81,4.81,0,0,1-1.29-3.55,8.56,8.56,0,0,1,1-3.83,9.41,9.41,0,0,1,3.16-3.51,9.51,9.51,0,0,1,5.47-1.48,15.13,15.13,0,0,0,2.48-.22l.77-.14-.15.78a39.2,39.2,0,0,1-1.85,6.43,18.28,18.28,0,0,1-2.65,4.83A4.55,4.55,0,0,1,222,195.86Zm6.75-12.7a15,15,0,0,1-1.88.12,8.14,8.14,0,0,0-7.67,4.4,7.54,7.54,0,0,0-.92,3.34,3.77,3.77,0,0,0,1,2.79,3.72,3.72,0,0,0,2.75,1,3.52,3.52,0,0,0,2.63-1.58,17.25,17.25,0,0,0,2.48-4.54A36.23,36.23,0,0,0,228.78,183.16ZM207,158.39l0-.61a95.61,95.61,0,0,1,1.25-11.28,52.86,52.86,0,0,1,2.67-10,21,21,0,0,1,4.42-7.23,8.94,8.94,0,0,1,6.58-2.78,7.49,7.49,0,0,1,6,2.41,9.35,9.35,0,0,1,1.93,6.14,20,20,0,0,1-1.71,7.75,26.86,26.86,0,0,1-4.71,7.45,23.18,23.18,0,0,1-15.82,8.09Zm15-30.8a7.81,7.81,0,0,0-5.81,2.46,19.91,19.91,0,0,0-4.18,6.86,51.39,51.39,0,0,0-2.62,9.77,96.84,96.84,0,0,0-1.2,10.53,22.13,22.13,0,0,0,14.48-7.66,26.16,26.16,0,0,0,4.53-7.16,19,19,0,0,0,1.62-7.33,8.28,8.28,0,0,0-1.68-5.44A6.34,6.34,0,0,0,222,127.59Z"/><path class="cls-2" d="M277.64,162.18a.8.8,0,0,1,.58.23.67.67,0,0,1,.19.58,11.22,11.22,0,0,1-5,8.13,18.21,18.21,0,0,1-7.71,3.07.51.51,0,0,0,0,.11q-3.48,5.87-8.59,5.87a7.66,7.66,0,0,1-5-1.61,9.64,9.64,0,0,1-2.9-4.09,14.81,14.81,0,0,1-.94-5.25,15.34,15.34,0,0,1,.89-5.24,19,19,0,0,1-.54-4.64,10.15,10.15,0,0,1,3-7.42,9.94,9.94,0,0,1,7.34-3.09,8.19,8.19,0,0,1,7,3.7q2.63,3.71,2.63,9.92a25.6,25.6,0,0,1-2,10.05,16.51,16.51,0,0,0,6-2.65,9.65,9.65,0,0,0,4.3-7,.73.73,0,0,1,.25-.5A.72.72,0,0,1,277.64,162.18ZM264.76,172.8a23.57,23.57,0,0,0,2.34-10.35,16.65,16.65,0,0,0-2-8.55,6.78,6.78,0,0,0-6.06-3.53,8.49,8.49,0,0,0-6.25,2.62,8.7,8.7,0,0,0-2.61,6.35,20.64,20.64,0,0,0,.12,2.3,6.69,6.69,0,0,1,3.83-2.95,1.74,1.74,0,0,1,1.92.88,1.64,1.64,0,0,1-.15,1.8,10.6,10.6,0,0,0-1.31,3.25,29.24,29.24,0,0,0-.8,4.81l0,0,.3.31a13.08,13.08,0,0,0,8.83,3.1C263.53,172.88,264.14,172.86,264.76,172.8Zm-7.64,5.84a6.37,6.37,0,0,0,4.05-1.31,11.39,11.39,0,0,0,2.67-2.91h-.92a14.76,14.76,0,0,1-9.25-3A15.91,15.91,0,0,0,254,175a6.79,6.79,0,0,0,1.09,2.65A2.4,2.4,0,0,0,257.12,178.64Z"/><path class="cls-2" d="M257.12,180.71a8.17,8.17,0,0,1-5.37-1.74,10.06,10.06,0,0,1-3.05-4.31,15.17,15.17,0,0,1-1-5.44,16.09,16.09,0,0,1,.86-5.27,19.85,19.85,0,0,1-.51-4.61,10.77,10.77,0,0,1,3.2-7.8,10.54,10.54,0,0,1,7.73-3.25,8.71,8.71,0,0,1,7.44,3.93c1.81,2.55,2.73,6,2.73,10.23a26.26,26.26,0,0,1-1.67,9.26,16.33,16.33,0,0,0,4.77-2.3,9.17,9.17,0,0,0,4.07-6.59,1.31,1.31,0,0,1,.42-.85,1.39,1.39,0,0,1,1.84.06,1.21,1.21,0,0,1,.35,1,11.76,11.76,0,0,1-5.17,8.51,18.62,18.62,0,0,1-7.66,3.12C263.71,178.68,260.68,180.71,257.12,180.71ZM259,149.37a9.48,9.48,0,0,0-7,2.93,9.69,9.69,0,0,0-2.89,7,18.42,18.42,0,0,0,.52,4.51l0,.16-.06.16a15,15,0,0,0-.85,5.05,14.19,14.19,0,0,0,.91,5.06,9.17,9.17,0,0,0,2.73,3.86,7.15,7.15,0,0,0,4.68,1.49c3.21,0,5.85-1.81,8.09-5.53l.06-.15.12-.25.28,0a17.61,17.61,0,0,0,7.48-3,10.74,10.74,0,0,0,4.72-7.75.16.16,0,0,0,0-.14.34.34,0,0,0-.35,0,.24.24,0,0,0-.08.17,10.22,10.22,0,0,1-4.51,7.35,17.26,17.26,0,0,1-6.18,2.73l-1,.24.41-1a25.11,25.11,0,0,0,2-9.84c0-4-.85-7.24-2.53-9.6A7.6,7.6,0,0,0,259,149.37Zm-1.88,29.8a2.92,2.92,0,0,1-2.48-1.23,7.2,7.2,0,0,1-1.19-2.86,15.83,15.83,0,0,1-.32-3.67l0-1.06.85.65a14.33,14.33,0,0,0,8.92,2.88h1.89l-.52.82a11.78,11.78,0,0,1-2.79,3.06A6.91,6.91,0,0,1,257.12,179.17Zm-2.9-6.69a13.59,13.59,0,0,0,.29,2.38,6.23,6.23,0,0,0,1,2.44,1.89,1.89,0,0,0,1.61.8,5.94,5.94,0,0,0,3.72-1.19,11.31,11.31,0,0,0,2-1.95A15.58,15.58,0,0,1,254.22,172.48Zm8.7.94a13.62,13.62,0,0,1-9.18-3.24l-.51-.51,0-.29a30.33,30.33,0,0,1,.82-4.9,10.88,10.88,0,0,1,1.39-3.42,1.1,1.1,0,0,0,.1-1.25,1.13,1.13,0,0,0-.55-.51,1.2,1.2,0,0,0-.77-.08,6.13,6.13,0,0,0-3.49,2.72l-.83,1.28-.16-1.52a21.77,21.77,0,0,1-.12-2.36,9.24,9.24,0,0,1,2.77-6.73,9,9,0,0,1,6.63-2.78,7.32,7.32,0,0,1,6.52,3.78,17.3,17.3,0,0,1,2.12,8.84,24.06,24.06,0,0,1-2.4,10.59l-.13.28-.31,0C264.18,173.4,263.54,173.42,262.92,173.42Zm-8.61-4.19.16.16a12.59,12.59,0,0,0,8.45,3c.49,0,1,0,1.48-.05a23.06,23.06,0,0,0,2.16-9.84,16.29,16.29,0,0,0-2-8.28,6.23,6.23,0,0,0-5.6-3.26,7.91,7.91,0,0,0-5.87,2.46,8.11,8.11,0,0,0-2.45,6c0,.29,0,.57,0,.85a7,7,0,0,1,3.24-2,2.35,2.35,0,0,1,1.47.14,2.32,2.32,0,0,1,1.07,1,2.2,2.2,0,0,1-.19,2.39,9.92,9.92,0,0,0-1.21,3.06A27.64,27.64,0,0,0,254.31,169.23Z"/><path class="cls-2" d="M314.62,162.18a.72.72,0,0,1,.42.4.78.78,0,0,1,0,.6q-.54,1.45-1.82,4.72T310.17,175c-1.31,2.87-2.46,5.17-3.47,6.91a28.42,28.42,0,0,1-2.63,3.91,6.76,6.76,0,0,1-1.9,1.7,3.09,3.09,0,0,1-1.36.41,5.17,5.17,0,0,1-4-1.67,10.63,10.63,0,0,1-2.3-4.43,27.6,27.6,0,0,1-.92-6.16,57.37,57.37,0,0,1,.11-6.92,64.29,64.29,0,0,1,.85-6.71q-1.23,2.34-2.65,4.94a86.52,86.52,0,0,1-4.58,7.43,14.62,14.62,0,0,1-2.88,3.24,3.13,3.13,0,0,1-1.71.73c-2.6-.11-4.39-1.14-5.37-3.11a15.07,15.07,0,0,1-1.28-7.33,44.51,44.51,0,0,1,1.23-8.78,62.63,62.63,0,0,1,2.2-7.44,2.31,2.31,0,0,1,1.11-1.23,2.29,2.29,0,0,1,3,1,2.38,2.38,0,0,1,.17,1.71,68.28,68.28,0,0,0-1.92,9.6,61.63,61.63,0,0,0-.61,9.65c.08,2.79.57,4.26,1.49,4.41a1.34,1.34,0,0,0,.39-.15A4.29,4.29,0,0,0,284,176a14.91,14.91,0,0,0,1.46-1.69c.59-.77,1.3-1.8,2.15-3.11s1.82-2.95,2.95-4.94c1.43-2.64,2.67-5,3.72-7.1s1.66-3.36,1.84-3.8c.08-.2.15-.41.23-.61a2.22,2.22,0,0,1,1.13-1.25,2.45,2.45,0,0,1,1.67-.13,2.16,2.16,0,0,1,1.29,1.11,2.5,2.5,0,0,1,.17,1.73,48.14,48.14,0,0,0-1.32,8c-.33,3.3-.49,6.64-.5,10a62.51,62.51,0,0,0,.46,8.61c.32,2.37.83,3.55,1.55,3.55a2.11,2.11,0,0,0,.79-.32,7,7,0,0,0,1.51-1.5,27.53,27.53,0,0,0,2.36-3.62q1.39-2.46,3.32-6.6,1.72-3.79,3-7c.86-2.15,1.46-3.71,1.82-4.68a.79.79,0,0,1,.4-.44A.74.74,0,0,1,314.62,162.18Z"/><path class="cls-2" d="M300.81,188.46a5.73,5.73,0,0,1-4.39-1.84A11.26,11.26,0,0,1,294,182a28.09,28.09,0,0,1-.94-6.27,58.53,58.53,0,0,1,.12-7c.09-1.23.21-2.43.36-3.61-.37.7-.76,1.41-1.15,2.14-1.88,3.31-3.43,5.83-4.62,7.48a14.84,14.84,0,0,1-3,3.37,3.49,3.49,0,0,1-2.05.83c-2.8-.11-4.76-1.26-5.82-3.41a15.66,15.66,0,0,1-1.34-7.59,46.29,46.29,0,0,1,1.24-8.88,60.6,60.6,0,0,1,2.23-7.51,2.78,2.78,0,0,1,1.37-1.52,2.69,2.69,0,0,1,2.05-.15,2.75,2.75,0,0,1,1.65,1.36,2.89,2.89,0,0,1,.21,2.09,68,68,0,0,0-1.9,9.55,60.41,60.41,0,0,0-.61,9.56c.08,3.06.66,3.72.95,3.86l.15-.07a4.88,4.88,0,0,0,.75-.61A12.89,12.89,0,0,0,285,174c.57-.75,1.29-1.78,2.12-3.07S289,168,290.1,166c1.41-2.59,2.65-5,3.71-7.07s1.65-3.34,1.82-3.76l.22-.6a2.77,2.77,0,0,1,1.41-1.55,3,3,0,0,1,2-.16,2.7,2.7,0,0,1,1.63,1.39,3,3,0,0,1,.21,2.1,49.86,49.86,0,0,0-1.31,7.93c-.31,3.26-.48,6.62-.49,10a63.23,63.23,0,0,0,.45,8.53c.4,3,1,3.08,1,3.08a2.37,2.37,0,0,0,.51-.25,6.24,6.24,0,0,0,1.37-1.37,26.51,26.51,0,0,0,2.31-3.55c.92-1.62,2-3.82,3.3-6.56,1.13-2.49,2.14-4.84,3-7s1.46-3.7,1.81-4.67a1.32,1.32,0,0,1,1.7-.78h0a1.2,1.2,0,0,1,.73.7,1.35,1.35,0,0,1,0,1c-.36,1-1,2.55-1.83,4.72s-1.89,4.57-3.06,7.13c-1.31,2.86-2.48,5.2-3.5,6.95a28.13,28.13,0,0,1-2.68,4,7.61,7.61,0,0,1-2.06,1.84A3.61,3.61,0,0,1,300.81,188.46Zm-5.1-29.8-.62,3.46c-.38,2.11-.66,4.35-.84,6.66a58.44,58.44,0,0,0-.11,6.86,27.11,27.11,0,0,0,.9,6,10.17,10.17,0,0,0,2.18,4.21,4.59,4.59,0,0,0,3.59,1.5,2.65,2.65,0,0,0,1.12-.35,6.61,6.61,0,0,0,1.73-1.57,26.92,26.92,0,0,0,2.57-3.84c1-1.71,2.16-4,3.45-6.85,1.16-2.54,2.19-4.92,3-7.07s1.46-3.74,1.81-4.71a.26.26,0,0,0,0-.21.15.15,0,0,0-.11-.09.19.19,0,0,0-.18,0,.21.21,0,0,0-.12.14c-.36,1-1,2.54-1.83,4.69s-1.88,4.54-3,7c-1.28,2.77-2.4,5-3.34,6.64a28.12,28.12,0,0,1-2.41,3.7,7.22,7.22,0,0,1-1.66,1.62,2.26,2.26,0,0,1-1.06.4c-1.37,0-1.84-2.14-2.09-4a64,64,0,0,1-.46-8.69c0-3.38.18-6.77.5-10.06a49.69,49.69,0,0,1,1.34-8.11,1.88,1.88,0,0,0-.14-1.34,1.61,1.61,0,0,0-1-.84,1.84,1.84,0,0,0-1.26.11,1.67,1.67,0,0,0-.86,1l-.22.6c-.2.47-.8,1.73-1.87,3.85s-2.31,4.51-3.73,7.11c-1.13,2-2.13,3.69-3,5s-1.58,2.37-2.17,3.14a15.12,15.12,0,0,1-1.52,1.75,5.09,5.09,0,0,1-1,.78,1.4,1.4,0,0,1-.63.21c-1.72-.28-2-3-2-4.93a61.48,61.48,0,0,1,.62-9.74,68.05,68.05,0,0,1,1.93-9.68,1.78,1.78,0,0,0-.13-1.31,1.68,1.68,0,0,0-1-.83,1.58,1.58,0,0,0-1.23.08,1.74,1.74,0,0,0-.86,1,61.23,61.23,0,0,0-2.18,7.36,44.89,44.89,0,0,0-1.21,8.68,14.59,14.59,0,0,0,1.23,7.06c.88,1.8,2.49,2.71,4.91,2.81.13,0,.52,0,1.37-.63a14.3,14.3,0,0,0,2.75-3.12,84.82,84.82,0,0,0,4.55-7.37c.94-1.73,1.82-3.38,2.64-4.93Z"/><path class="cls-2" d="M326.66,200.88a4,4,0,0,1,4,4,3.84,3.84,0,0,1-1.17,2.82,3.89,3.89,0,0,1-2.86,1.17,4,4,0,0,1-4-4,3.89,3.89,0,0,1,1.17-2.86A3.84,3.84,0,0,1,326.66,200.88ZM325,194.71l-2.19-68.81a3.89,3.89,0,0,1,1.13-2.84,3.86,3.86,0,0,1,5.5,0,3.88,3.88,0,0,1,1.12,2.84l-2.34,68.81Z"/><path class="cls-2" d="M326.66,209.44a4.54,4.54,0,1,1,3.24-1.33A4.39,4.39,0,0,1,326.66,209.44Zm0-8a3.28,3.28,0,0,0-2.43,1,3.31,3.31,0,0,0-1,2.48,3.47,3.47,0,0,0,3.45,3.45,3.34,3.34,0,0,0,2.48-1,3.3,3.3,0,0,0,1-2.44,3.45,3.45,0,0,0-3.49-3.49Zm2.06-6.17h-4.27l-2.2-69.34a4.42,4.42,0,0,1,1.29-3.23,4.41,4.41,0,0,1,6.27,0,4.48,4.48,0,0,1,1.27,3.22Zm-3.22-1.08h2.17L330,125.88a3.4,3.4,0,0,0-1-2.45,3.34,3.34,0,0,0-4.74,0,3.35,3.35,0,0,0-1,2.46Z"/><path class="cls-2" d="M47.89,224.38v-9.15h.9v9.15Z"/><path class="cls-2" d="M58.43,216.9v7.48h-.91v-9.15h.7l6,7.61v-7.6h.9v9.14h-.78Z"/><path class="cls-2" d="M73.3,219.74a4.93,4.93,0,0,1,.29-1.64,4.68,4.68,0,0,1,.85-1.47,4.46,4.46,0,0,1,1.36-1,4.08,4.08,0,0,1,1.84-.4,3.82,3.82,0,0,1,2.1.55A3.38,3.38,0,0,1,81,217.18l-.71.43a2.86,2.86,0,0,0-.53-.76,3.21,3.21,0,0,0-.68-.5,3,3,0,0,0-.75-.28,4,4,0,0,0-.76-.08,3,3,0,0,0-1.45.34,3.36,3.36,0,0,0-1.07.87,4.08,4.08,0,0,0-.65,1.22,4.62,4.62,0,0,0-.22,1.37,4.22,4.22,0,0,0,1,2.69,3.57,3.57,0,0,0,1.08.85,3,3,0,0,0,1.36.31,3.61,3.61,0,0,0,.79-.09,3.33,3.33,0,0,0,.79-.31,3.58,3.58,0,0,0,.7-.53,2.54,2.54,0,0,0,.54-.77l.75.39a2.94,2.94,0,0,1-.62.91,4.25,4.25,0,0,1-1.93,1.07,4,4,0,0,1-1.07.14,3.62,3.62,0,0,1-1.73-.41A4.41,4.41,0,0,1,74.5,223a5.06,5.06,0,0,1-1.2-3.22Z"/><path class="cls-2" d="M89.18,224.38v-9.15h.91v8.35h5.28v.8Z"/><path class="cls-2" d="M106.28,223.63a2.83,2.83,0,0,0,1.43-.33,2.63,2.63,0,0,0,.92-.86,3.46,3.46,0,0,0,.48-1.22,7.16,7.16,0,0,0,.13-1.38v-4.61h.9v4.61a7.65,7.65,0,0,1-.2,1.76,4.16,4.16,0,0,1-.67,1.46,3.26,3.26,0,0,1-1.19,1,3.91,3.91,0,0,1-1.79.37,3.86,3.86,0,0,1-1.82-.39,3.25,3.25,0,0,1-1.19-1,4.26,4.26,0,0,1-.65-1.47,7.32,7.32,0,0,1-.19-1.7v-4.61h.89v4.61a7.33,7.33,0,0,0,.14,1.41,3.69,3.69,0,0,0,.48,1.21,2.66,2.66,0,0,0,.91.85A2.9,2.9,0,0,0,106.28,223.63Z"/><path class="cls-2" d="M124.08,216.94a2.8,2.8,0,0,0-1-.7,3.6,3.6,0,0,0-1.47-.28,2.75,2.75,0,0,0-1.76.46,1.54,1.54,0,0,0-.56,1.24,1.34,1.34,0,0,0,.15.68,1.27,1.27,0,0,0,.46.46,2.93,2.93,0,0,0,.79.33c.32.1.7.19,1.14.29s.93.22,1.32.34a3.73,3.73,0,0,1,1,.49,2.1,2.1,0,0,1,.63.7,2.24,2.24,0,0,1,.22,1,2.21,2.21,0,0,1-.93,1.87,3.19,3.19,0,0,1-1,.46,6.17,6.17,0,0,1-1.33.14,5.46,5.46,0,0,1-3.67-1.32l.45-.74a3.27,3.27,0,0,0,.59.49,3.91,3.91,0,0,0,.76.41,5.79,5.79,0,0,0,.89.27,5.42,5.42,0,0,0,1,.09,3.15,3.15,0,0,0,1.7-.39,1.5,1.5,0,0,0,.44-1.9,1.5,1.5,0,0,0-.52-.51,3.65,3.65,0,0,0-.86-.36c-.35-.11-.75-.21-1.2-.31s-.9-.23-1.26-.35a3.43,3.43,0,0,1-.92-.45,1.82,1.82,0,0,1-.56-.65,2.22,2.22,0,0,1-.19-.94,2.52,2.52,0,0,1,.24-1.12,2.29,2.29,0,0,1,.68-.83,3.19,3.19,0,0,1,1-.5,4.47,4.47,0,0,1,1.31-.17,4.57,4.57,0,0,1,1.63.27,4.64,4.64,0,0,1,1.3.78Z"/><path class="cls-2" d="M133,224.38v-9.15h.9v9.15Z"/><path class="cls-2" d="M146.31,224.44a3.87,3.87,0,0,1-1.74-.39,4.25,4.25,0,0,1-1.36-1.05,4.8,4.8,0,0,1-.88-1.48,5.07,5.07,0,0,1-.31-1.72,4.85,4.85,0,0,1,1.24-3.23,4.38,4.38,0,0,1,1.36-1,4,4,0,0,1,3.45,0,4.41,4.41,0,0,1,1.35,1.06,4.86,4.86,0,0,1,0,6.41,4.16,4.16,0,0,1-1.36,1A3.89,3.89,0,0,1,146.31,224.44Zm-3.39-4.64a4.36,4.36,0,0,0,.25,1.44,3.75,3.75,0,0,0,.69,1.22,3.38,3.38,0,0,0,1.07.85,3,3,0,0,0,1.38.32,2.91,2.91,0,0,0,1.41-.34,3.32,3.32,0,0,0,1.06-.87,3.88,3.88,0,0,0,.68-1.23,4.18,4.18,0,0,0,0-2.82,4,4,0,0,0-.7-1.22,3.5,3.5,0,0,0-1.07-.84,3.11,3.11,0,0,0-2.77,0,3.36,3.36,0,0,0-1.07.87,4.18,4.18,0,0,0-.92,2.61ZM146.4,214l-.58-.22.76-1.2h.93Z"/><path class="cls-2" d="M159.64,216.9v7.48h-.9v-9.15h.7l6.05,7.61v-7.6h.9v9.14h-.78Z"/><path class="cls-2" d="M184.85,224.38v-9.15h3.79a2.36,2.36,0,0,1,1.09.25,2.9,2.9,0,0,1,.85.66,3.23,3.23,0,0,1,.57.92,2.72,2.72,0,0,1,.21,1,3.1,3.1,0,0,1-.2,1.09,2.9,2.9,0,0,1-.54.92,2.79,2.79,0,0,1-.83.65,2.37,2.37,0,0,1-1.07.24h-3v3.38Zm.9-4.18h2.93a1.56,1.56,0,0,0,.72-.17,1.7,1.7,0,0,0,.56-.47,2.07,2.07,0,0,0,.37-.67,2.56,2.56,0,0,0,.12-.79,2.36,2.36,0,0,0-.14-.8,2.34,2.34,0,0,0-.4-.67,2,2,0,0,0-.6-.44,1.57,1.57,0,0,0-.71-.16h-2.85Z"/><path class="cls-2" d="M203,224.44a3.91,3.91,0,0,1-1.75-.39,4.25,4.25,0,0,1-1.36-1.05,4.78,4.78,0,0,1-.87-1.48,4.84,4.84,0,0,1-.31-1.72,4.73,4.73,0,0,1,.33-1.75,4.93,4.93,0,0,1,.9-1.48,4.42,4.42,0,0,1,1.37-1,4,4,0,0,1,3.45,0,4.67,4.67,0,0,1,1.35,1.06,5.16,5.16,0,0,1,.87,1.49,5,5,0,0,1,.31,1.7,4.85,4.85,0,0,1-1.23,3.22,4.38,4.38,0,0,1-1.36,1A3.92,3.92,0,0,1,203,224.44Zm-3.39-4.64a4.35,4.35,0,0,0,.24,1.44,4,4,0,0,0,.7,1.22,3.38,3.38,0,0,0,1.07.85,3,3,0,0,0,1.38.32,2.87,2.87,0,0,0,1.4-.34,3.36,3.36,0,0,0,1.07-.87,4.15,4.15,0,0,0,.66-4,3.78,3.78,0,0,0-.7-1.22,3.38,3.38,0,0,0-1.07-.84A2.93,2.93,0,0,0,203,216a3,3,0,0,0-1.41.33,3.47,3.47,0,0,0-1.07.87,4.14,4.14,0,0,0-.67,1.22A4.19,4.19,0,0,0,199.6,219.8Z"/><path class="cls-2" d="M215.42,224.38v-9.15h.9v8.35h5.28v.8Z"/><path class="cls-2" d="M229.37,224.38v-9.15h.9v9.15Z"/><path class="cls-2" d="M245.49,216h-3.25v8.35h-.91V216h-3.25v-.8h7.41Z"/><path class="cls-2" d="M259.44,223.58v.8H253.3v-9.15h6v.8H254.2v3.3h4.47v.76H254.2v3.49Zm-2.87-9.6-.58-.22.76-1.2h.93Z"/><path class="cls-2" d="M266.79,219.74a4.69,4.69,0,0,1,.29-1.64,4.47,4.47,0,0,1,.84-1.47,4.39,4.39,0,0,1,1.37-1,4,4,0,0,1,1.84-.4,3.81,3.81,0,0,1,2.09.55,3.31,3.31,0,0,1,1.28,1.45l-.71.43a2.65,2.65,0,0,0-.53-.76,3.21,3.21,0,0,0-.68-.5,3,3,0,0,0-.74-.28,4.09,4.09,0,0,0-.76-.08,3,3,0,0,0-1.46.34,3.32,3.32,0,0,0-1.06.87,3.68,3.68,0,0,0-.65,1.22,4.32,4.32,0,0,0-.22,1.37,4.24,4.24,0,0,0,.26,1.46,4.42,4.42,0,0,0,.72,1.23,3.61,3.61,0,0,0,1.09.85,2.91,2.91,0,0,0,1.35.31,3.7,3.7,0,0,0,.8-.09,3.26,3.26,0,0,0,.78-.31,3.31,3.31,0,0,0,.7-.53,2.75,2.75,0,0,0,.55-.77l.74.39a2.78,2.78,0,0,1-.62.91,4.05,4.05,0,0,1-.88.66,4.42,4.42,0,0,1-1,.41,4.06,4.06,0,0,1-1.08.14,3.58,3.58,0,0,1-1.72-.41A4.34,4.34,0,0,1,268,223a5.11,5.11,0,0,1-.88-1.5A4.88,4.88,0,0,1,266.79,219.74Z"/><path class="cls-2" d="M283.57,216.9v7.48h-.9v-9.15h.69l6.06,7.61v-7.6h.9v9.14h-.79Z"/><path class="cls-2" d="M299.05,224.38v-9.15H300v9.15Z"/><path class="cls-2" d="M308.08,219.74a4.93,4.93,0,0,1,.29-1.64,4.68,4.68,0,0,1,.85-1.47,4.46,4.46,0,0,1,1.36-1,4.08,4.08,0,0,1,1.84-.4,3.82,3.82,0,0,1,2.1.55,3.38,3.38,0,0,1,1.28,1.45l-.71.43a2.86,2.86,0,0,0-.53-.76,3.49,3.49,0,0,0-.68-.5,3,3,0,0,0-.75-.28,4,4,0,0,0-.76-.08,3,3,0,0,0-1.45.34,3.36,3.36,0,0,0-1.07.87,4.08,4.08,0,0,0-.65,1.22,4.62,4.62,0,0,0-.22,1.37,4.22,4.22,0,0,0,1,2.69,3.45,3.45,0,0,0,1.08.85,3,3,0,0,0,1.36.31,3.61,3.61,0,0,0,.79-.09,3.5,3.5,0,0,0,.79-.31,3.58,3.58,0,0,0,.7-.53,2.72,2.72,0,0,0,.54-.77l.75.39a2.94,2.94,0,0,1-.62.91,4.25,4.25,0,0,1-1.93,1.07,4,4,0,0,1-1.07.14,3.62,3.62,0,0,1-1.73-.41,4.41,4.41,0,0,1-1.35-1.08,5.06,5.06,0,0,1-1.2-3.22Z"/><path class="cls-2" d="M326.67,215.23h.76l3.8,9.15h-1l-1.19-2.86H325l-1.17,2.86h-1Zm2.21,5.58L327,216.29l-1.86,4.52Z"/></g></g></svg>