<svg xmlns="http://www.w3.org/2000/svg" viewBox="0 0 306.46 103.09"><defs><style>.cls-1{fill:#fff;}</style></defs><title>Recurso 6</title><g id="Capa_2" data-name="Capa 2"><g id="Capa_1-2" data-name="Capa 1"><path class="cls-1" d="M57.68,39.2a.71.71,0,0,1,.59.27.91.91,0,0,1,.18.65c-.29,1.26-1.37,2.38-3.24,3.38a34.65,34.65,0,0,1-7.06,2.64,87.14,87.14,0,0,1-9,1.92l-1,.16A45.11,45.11,0,0,1,32.63,55a25.55,25.55,0,0,1-6.19,4.65,14.14,14.14,0,0,1-6.58,1.68,10.16,10.16,0,0,1-4.74-.94A5.87,5.87,0,0,1,12.57,58a6,6,0,0,1-.76-2.88,6.87,6.87,0,0,1,.95-3.4A7.65,7.65,0,0,1,19.63,48q6.48,0,13.12-.62a66.12,66.12,0,0,0,4-8.82A75.36,75.36,0,0,0,39.71,29a56.26,56.26,0,0,0,1.42-9.17A26.7,26.7,0,0,0,40.61,12a11,11,0,0,0-2.86-5.47,7.67,7.67,0,0,0-5.62-2q-6.83,0-12.46,6.56-4.56,5.32-8.13,14.69A106.65,106.65,0,0,0,7.59,39.14q-1.3,6-1.54,7.81.39,13.47,1.27,24.76T8.85,88.14A2.44,2.44,0,0,1,8.26,90a2.18,2.18,0,0,1-1.71.76A2.23,2.23,0,0,1,5,90.18a2.43,2.43,0,0,1-.81-1.46Q3.6,84,2.52,72.69T.84,47.81Q.22,34.22.87,22.5T4.33,5.1A2.62,2.62,0,0,1,6.59,3.76,2.41,2.41,0,0,1,8.68,4.82,2.57,2.57,0,0,1,9,7.17a64.53,64.53,0,0,0-2.45,14Q5.9,29.6,5.94,39.39a109.34,109.34,0,0,1,4.18-14.15q3.65-9.63,8.4-15.19Q24.61,3,32.13,3a15.64,15.64,0,0,1,8.35,2,12.85,12.85,0,0,1,4.89,5.44,20.69,20.69,0,0,1,1.9,7.83,38.87,38.87,0,0,1-.67,9.28,55.12,55.12,0,0,1-2.82,9.74,59.08,59.08,0,0,1-4.55,9.19q3.77-.62,7.69-1.55a39.58,39.58,0,0,0,6.77-2.21c1.89-.84,3-1.81,3.22-2.91a.9.9,0,0,1,.29-.45A.76.76,0,0,1,57.68,39.2ZM19.86,59.8q3,0,6.06-3a36.48,36.48,0,0,0,5.95-7.87q-4,.35-7.25.45c-2.18.06-3.84.09-5,.09a6.36,6.36,0,0,0-3.34.85,6,6,0,0,0-2.18,2.16,5.28,5.28,0,0,0-.77,2.67,4.2,4.2,0,0,0,.63,2.2A4.7,4.7,0,0,0,16,59.11,8.83,8.83,0,0,0,19.86,59.8Z"/><path class="cls-1" d="M6.55,91.29a2.78,2.78,0,0,1-1.89-.71,2.93,2.93,0,0,1-1-1.77C3.26,85.6,2.7,80.2,2,72.74S.7,56.86.3,47.84a251.63,251.63,0,0,1,0-25.37C.77,14.62,2,8.7,3.84,4.86A3.18,3.18,0,0,1,6.59,3.22,2.93,2.93,0,0,1,9.12,4.5a3.12,3.12,0,0,1,.44,2.83A63.53,63.53,0,0,0,7.13,21.2C6.78,25.45,6.57,30,6.5,34.8c.82-3,1.86-6.29,3.11-9.74,2.44-6.46,5.3-11.62,8.5-15.36,4.15-4.81,8.87-7.25,14-7.25a16.2,16.2,0,0,1,8.63,2.1,13.41,13.41,0,0,1,5.09,5.67,21.13,21.13,0,0,1,1.95,8,39.42,39.42,0,0,1-.67,9.41,55.4,55.4,0,0,1-2.85,9.84,58.81,58.81,0,0,1-4,8.26c2.13-.37,4.31-.82,6.51-1.35a38.16,38.16,0,0,0,6.67-2.17c1.72-.77,2.7-1.63,2.92-2.55a1.33,1.33,0,0,1,2.31-.55,1.41,1.41,0,0,1,.28,1c-.32,1.48-1.51,2.74-3.52,3.81a35.72,35.72,0,0,1-7.17,2.69,90.92,90.92,0,0,1-9,1.92l-.81.13A45.79,45.79,0,0,1,33,55.39a25.63,25.63,0,0,1-6.32,4.73,14.61,14.61,0,0,1-6.83,1.75,10.69,10.69,0,0,1-5-1,6.4,6.4,0,0,1-2.77-2.58,6.55,6.55,0,0,1-.83-3.13,7.27,7.27,0,0,1,1-3.67,8.27,8.27,0,0,1,2.89-2.93,8.38,8.38,0,0,1,4.44-1.15c4.19,0,8.49-.2,12.78-.59a67.63,67.63,0,0,0,3.88-8.5,76.38,76.38,0,0,0,2.89-9.44,55.35,55.35,0,0,0,1.41-9.08,26.38,26.38,0,0,0-.5-7.67,10.47,10.47,0,0,0-2.71-5.2,7.19,7.19,0,0,0-5.25-1.86c-4.36,0-8.42,2.14-12.05,6.37-3,3.49-5.69,8.38-8,14.53A109,109,0,0,0,8.11,39.26c-.86,4-1.37,6.58-1.52,7.76.26,8.83.68,17.15,1.27,24.65s1.1,13,1.53,16.41a3,3,0,0,1-.73,2.26A2.69,2.69,0,0,1,6.55,91.29Zm0-87A2.1,2.1,0,0,0,4.78,5.4C3,9,1.84,14.82,1.41,22.53a252.56,252.56,0,0,0,0,25.26c.4,9,1,17.36,1.68,24.85s1.28,12.84,1.69,16a1.85,1.85,0,0,0,.62,1.12,1.7,1.7,0,0,0,1.18.44,1.64,1.64,0,0,0,1.3-.58,1.9,1.9,0,0,0,.46-1.45c-.43-3.39-.94-8.93-1.53-16.43S5.77,55.89,5.51,47c.16-1.3.68-3.94,1.55-7.94a108.37,108.37,0,0,1,4-13.44c2.39-6.27,5.16-11.27,8.23-14.85C23.11,6.26,27.44,4,32.13,4a8.21,8.21,0,0,1,6,2.17,11.47,11.47,0,0,1,3,5.73,27.75,27.75,0,0,1,.53,8,58.36,58.36,0,0,1-1.43,9.25A78.16,78.16,0,0,1,37.3,38.7a68.5,68.5,0,0,1-4.08,8.89l-.14.25-.28,0c-4.42.41-8.85.62-13.17.62A7.1,7.1,0,0,0,13.23,52a6.25,6.25,0,0,0-.88,3.13,5.42,5.42,0,0,0,.7,2.62,5.49,5.49,0,0,0,2.33,2.14,9.72,9.72,0,0,0,4.48.87,13.6,13.6,0,0,0,6.33-1.62,25.17,25.17,0,0,0,6.06-4.55,44.53,44.53,0,0,0,5.46-6.7l.13-.2.24,0,1-.15A89.26,89.26,0,0,0,48,45.62,33.47,33.47,0,0,0,55,43c1.73-.91,2.73-1.93,3-3a.4.4,0,0,0-.07-.2.24.24,0,0,0-.31,0,.39.39,0,0,0-.11.17c-.29,1.26-1.44,2.34-3.52,3.26a39.47,39.47,0,0,1-6.86,2.24c-2.63.63-5.23,1.15-7.73,1.56l-1.16.19.61-1a57.47,57.47,0,0,0,4.5-9.1,53.27,53.27,0,0,0,2.79-9.65,37.82,37.82,0,0,0,.67-9.15,20.19,20.19,0,0,0-1.85-7.62,12.33,12.33,0,0,0-4.69-5.22,15.05,15.05,0,0,0-8.06-1.94c-4.82,0-9.26,2.32-13.2,6.87-3.12,3.65-5.91,8.7-8.31,15A108.3,108.3,0,0,0,6.47,39.51l-1,4.91,0-5c0-6.51.19-12.67.65-18.29A64.88,64.88,0,0,1,8.53,7a2.08,2.08,0,0,0-.29-1.88A1.9,1.9,0,0,0,6.59,4.3Zm13.27,56a9.3,9.3,0,0,1-4.07-.75,5.23,5.23,0,0,1-2.28-2,4.77,4.77,0,0,1-.71-2.48,5.8,5.8,0,0,1,.84-2.94A6.65,6.65,0,0,1,16,49.86a7,7,0,0,1,3.61-.92c1.15,0,2.82,0,5-.09s4.57-.21,7.22-.44l1-.09-.53.9a37.17,37.17,0,0,1-6,8C24.13,59.28,22,60.34,19.86,60.34Zm11-10.77c-2.26.18-4.35.3-6.23.36-2.15.06-3.84.09-5,.09a5.92,5.92,0,0,0-3.06.77,5.64,5.64,0,0,0-2,2,4.78,4.78,0,0,0-.69,2.4,3.65,3.65,0,0,0,.56,1.93,4.14,4.14,0,0,0,1.82,1.53,8.29,8.29,0,0,0,3.6.64c1.82,0,3.73-1,5.69-2.84A34.33,34.33,0,0,0,30.86,49.57Z"/><path class="cls-1" d="M84.8,40.81a.78.78,0,0,1,.57.23.65.65,0,0,1,.19.58,11.18,11.18,0,0,1-4.94,8.13,18.08,18.08,0,0,1-7.71,3.07.24.24,0,0,0,0,.11q-3.5,5.88-8.59,5.87a7.63,7.63,0,0,1-5-1.61,9.53,9.53,0,0,1-2.89-4.08,14.6,14.6,0,0,1-.94-5.26,15.27,15.27,0,0,1,.88-5.23A19,19,0,0,1,55.76,38a10.2,10.2,0,0,1,3.05-7.43,9.93,9.93,0,0,1,7.35-3.08,8.19,8.19,0,0,1,7,3.7q2.63,3.69,2.62,9.91a25.39,25.39,0,0,1-2,10.05,16.44,16.44,0,0,0,6-2.65,9.63,9.63,0,0,0,4.3-7,.83.83,0,0,1,.25-.5A.77.77,0,0,1,84.8,40.81ZM71.91,51.44a23.47,23.47,0,0,0,2.34-10.36,16.8,16.8,0,0,0-2-8.55A6.8,6.8,0,0,0,66.16,29a8.52,8.52,0,0,0-6.26,2.63A8.71,8.71,0,0,0,57.3,38a21,21,0,0,0,.11,2.3,6.7,6.7,0,0,1,3.84-3,1.76,1.76,0,0,1,1.09.12,1.7,1.7,0,0,1,.82.77A1.64,1.64,0,0,1,63,40a10.44,10.44,0,0,0-1.3,3.24,29.21,29.21,0,0,0-.81,4.81l0,0c.1.1.2.21.31.31a13,13,0,0,0,8.82,3.1C70.68,51.51,71.3,51.49,71.91,51.44Zm-7.63,5.83a6.36,6.36,0,0,0,4-1.31A11.22,11.22,0,0,0,71,53.05h-.92a14.77,14.77,0,0,1-9.24-3,15.28,15.28,0,0,0,.3,3.54,6.79,6.79,0,0,0,1.1,2.65A2.39,2.39,0,0,0,64.28,57.27Z"/><path class="cls-1" d="M64.28,59.34a8.2,8.2,0,0,1-5.37-1.73,10.23,10.23,0,0,1-3.06-4.31,15.48,15.48,0,0,1-1-5.45,16,16,0,0,1,.86-5.26A20,20,0,0,1,55.22,38a10.76,10.76,0,0,1,3.21-7.81,10.53,10.53,0,0,1,7.73-3.24,8.74,8.74,0,0,1,7.44,3.92c1.81,2.55,2.72,6,2.72,10.23a26.17,26.17,0,0,1-1.67,9.26A15.62,15.62,0,0,0,79.42,48a9.13,9.13,0,0,0,4.07-6.59,1.32,1.32,0,0,1,.43-.84,1.38,1.38,0,0,1,1.84,0,1.24,1.24,0,0,1,.34,1,11.76,11.76,0,0,1-5.16,8.5,18.68,18.68,0,0,1-7.66,3.12C70.87,57.31,67.84,59.34,64.28,59.34ZM66.16,28a9.46,9.46,0,0,0-7,2.92,9.74,9.74,0,0,0-2.9,7,19,19,0,0,0,.52,4.51l0,.15,0,.16A14.75,14.75,0,0,0,56,47.85a14.19,14.19,0,0,0,.9,5.06,9,9,0,0,0,2.74,3.86,7.12,7.12,0,0,0,4.68,1.49c3.2,0,5.85-1.81,8.08-5.53a1.16,1.16,0,0,1,.06-.15l.13-.25.27,0a17.75,17.75,0,0,0,7.49-3A10.74,10.74,0,0,0,85,41.57c0-.1,0-.12,0-.14a.32.32,0,0,0-.35,0,.27.27,0,0,0-.07.17,10.19,10.19,0,0,1-4.52,7.35,17.29,17.29,0,0,1-6.18,2.74l-1,.23.41-1a24.94,24.94,0,0,0,2-9.84c0-4-.85-7.24-2.52-9.6A7.6,7.6,0,0,0,66.16,28Zm-1.88,29.8a2.93,2.93,0,0,1-2.49-1.24,7.52,7.52,0,0,1-1.19-2.85,16.47,16.47,0,0,1-.31-3.67l0-1.07.84.65a14.33,14.33,0,0,0,8.92,2.88H72l-.51.82a12,12,0,0,1-2.79,3.06A7,7,0,0,1,64.28,57.81Zm-2.91-6.7a14.62,14.62,0,0,0,.29,2.38,6.23,6.23,0,0,0,1,2.44,1.87,1.87,0,0,0,1.62.8A5.87,5.87,0,0,0,68,55.54a11.38,11.38,0,0,0,2-1.95A15.51,15.51,0,0,1,61.37,51.11Zm8.7.94a13.63,13.63,0,0,1-9.18-3.23l-.51-.52,0-.29a30.3,30.3,0,0,1,.83-4.9,10.59,10.59,0,0,1,1.38-3.41,1.12,1.12,0,0,0,.11-1.26,1.26,1.26,0,0,0-.56-.51,1.19,1.19,0,0,0-.77-.08,6.11,6.11,0,0,0-3.48,2.72L57,41.85l-.16-1.52A21.58,21.58,0,0,1,56.76,38a9.26,9.26,0,0,1,2.76-6.73,9.07,9.07,0,0,1,6.64-2.79,7.33,7.33,0,0,1,6.52,3.78,17.45,17.45,0,0,1,2.11,8.84A24.19,24.19,0,0,1,72.4,51.67l-.14.28L72,52C71.33,52,70.7,52.05,70.07,52.05Zm-8.61-4.19.17.17A12.59,12.59,0,0,0,70.07,51c.5,0,1,0,1.49,0a23,23,0,0,0,2.15-9.84,16.29,16.29,0,0,0-2-8.28,6.23,6.23,0,0,0-5.59-3.26A7.92,7.92,0,0,0,60.29,32a8.08,8.08,0,0,0-2.45,6c0,.28,0,.57,0,.84a7.11,7.11,0,0,1,3.25-2,2.4,2.4,0,0,1,1.46.14,2.35,2.35,0,0,1,1.07,1,2.2,2.2,0,0,1-.18,2.38,10.14,10.14,0,0,0-1.22,3.06A29,29,0,0,0,61.46,47.86Z"/><path class="cls-1" d="M112.57,41.58a.64.64,0,0,1,.44.36.83.83,0,0,1,0,.6q-.57,1.88-2.2,6.62t-3.93,10.37Q99.45,77.63,94,77.63c-1.43,0-2.75-.81-4-2.45a23.69,23.69,0,0,1-3.2-6.65,60,60,0,0,1-2.21-9.59,92.21,92.21,0,0,1-1-11.38,97.59,97.59,0,0,1,.43-12,71,71,0,0,1,2-11.39,39.58,39.58,0,0,1,3.82-9.61,20.57,20.57,0,0,1,5.83-6.66,13.5,13.5,0,0,1,8-2.45,8.43,8.43,0,0,1,6.75,2.8,10.29,10.29,0,0,1,2.15,6.79,21.15,21.15,0,0,1-1.76,8.07A28.61,28.61,0,0,1,106.05,31a24.31,24.31,0,0,1-16.31,8.36,158.3,158.3,0,0,0-.09,17.53,88.12,88.12,0,0,0,1.63,13.8Q92.46,76.1,94,76.1a3.46,3.46,0,0,0,1.61-.59,10.25,10.25,0,0,0,2.42-2.38,37.09,37.09,0,0,0,3.26-5.2q1.85-3.42,4.18-9t3.91-10.3c1.08-3.13,1.8-5.33,2.19-6.58a.8.8,0,0,1,.38-.46A.65.65,0,0,1,112.57,41.58Zm-14.46-32A20.71,20.71,0,0,0,94,16.44a54.37,54.37,0,0,0-2.68,9.82,109.63,109.63,0,0,0-1.48,11.52,22.71,22.71,0,0,0,15-7.86,26.8,26.8,0,0,0,4.58-7.31,19.49,19.49,0,0,0,1.67-7.53,8.94,8.94,0,0,0-1.77-5.8A7,7,0,0,0,103.78,7,7.57,7.57,0,0,0,98.11,9.57Z"/><path class="cls-1" d="M94,78.17c-1.61,0-3.09-.9-4.4-2.67a23.75,23.75,0,0,1-3.28-6.81A59.87,59.87,0,0,1,84.13,59a93.16,93.16,0,0,1-1-11.44,101,101,0,0,1,.43-12,72,72,0,0,1,2-11.47,39.69,39.69,0,0,1,3.87-9.74,21.17,21.17,0,0,1,6-6.83A14.07,14.07,0,0,1,103.78,5a9,9,0,0,1,7.16,3,10.93,10.93,0,0,1,2.28,7.15,21.81,21.81,0,0,1-1.8,8.28,29.44,29.44,0,0,1-5,8,24.9,24.9,0,0,1-16.19,8.5,156.13,156.13,0,0,0-.07,17,87.26,87.26,0,0,0,1.62,13.72c1,4.66,2,5,2.23,5A2.89,2.89,0,0,0,95.38,75a9.89,9.89,0,0,0,2.27-2.25,35.71,35.71,0,0,0,3.2-5.12c1.22-2.24,2.61-5.25,4.16-8.92s2.83-7.15,3.9-10.27,1.8-5.31,2.18-6.56a1.36,1.36,0,0,1,.63-.77,1.31,1.31,0,0,1,1.78.57,1.42,1.42,0,0,1,.09,1c-.39,1.26-1.11,3.43-2.22,6.66S109,56,107.43,59.74C102.3,72.14,97.92,78.17,94,78.17ZM103.78,6a13,13,0,0,0-7.72,2.35,20.12,20.12,0,0,0-5.67,6.48,39.25,39.25,0,0,0-3.77,9.48,72.25,72.25,0,0,0-2,11.31,98.69,98.69,0,0,0-.42,11.9,90.72,90.72,0,0,0,1,11.3,59,59,0,0,0,2.18,9.51,23.31,23.31,0,0,0,3.12,6.5c1.11,1.48,2.3,2.23,3.54,2.23,2.3,0,6.32-3.08,12.39-17.77,1.52-3.72,2.84-7.2,3.92-10.34s1.82-5.37,2.2-6.6a.33.33,0,0,0,0-.21s0-.05-.09-.07h-.05c-.07,0-.1,0-.12,0a.31.31,0,0,0-.15.18c-.37,1.23-1.11,3.44-2.18,6.56s-2.39,6.62-3.92,10.33-3,6.75-4.21,9a36.23,36.23,0,0,1-3.31,5.27A10.8,10.8,0,0,1,95.93,76a3.92,3.92,0,0,1-1.89.67c-1.39,0-2.4-1.81-3.29-5.87a89.44,89.44,0,0,1-1.64-13.9,159.28,159.28,0,0,1,.1-17.58l0-.47.47,0a23.84,23.84,0,0,0,16-8.19,28.17,28.17,0,0,0,4.77-7.65,20.63,20.63,0,0,0,1.72-7.86,9.88,9.88,0,0,0-2-6.45A7.86,7.86,0,0,0,103.78,6ZM89.27,38.38l0-.64a110.77,110.77,0,0,1,1.49-11.58,56,56,0,0,1,2.71-9.92,21.4,21.4,0,0,1,4.19-7,8.16,8.16,0,0,1,6.07-2.72,7.47,7.47,0,0,1,6,2.46,9.5,9.5,0,0,1,1.9,6.14A20.19,20.19,0,0,1,110,22.82a27.67,27.67,0,0,1-4.68,7.46,23.34,23.34,0,0,1-15.39,8ZM103.78,7.56A7,7,0,0,0,98.5,9.94a20.55,20.55,0,0,0-4,6.69,55.54,55.54,0,0,0-2.65,9.73,107.84,107.84,0,0,0-1.42,10.81,22.31,22.31,0,0,0,14-7.61A26.5,26.5,0,0,0,109,22.4a19,19,0,0,0,1.63-7.32A8.5,8.5,0,0,0,109,9.62,6.37,6.37,0,0,0,103.78,7.56Z"/><path class="cls-1" d="M160.93,40.81a.91.91,0,0,1,.47.39.63.63,0,0,1,0,.57q-.5,1.54-1.7,4.89T156.87,54a75.06,75.06,0,0,1-3.32,7.13,26.41,26.41,0,0,1-2.59,4A6.9,6.9,0,0,1,149,66.89a3,3,0,0,1-1.38.43,5.92,5.92,0,0,1-4.35-1.5,8.52,8.52,0,0,1-2.17-3.91,25,25,0,0,1-.78-5.28c-.09-1.9-.11-3.79-.06-5.65s0-3.28-.06-4.7a10.7,10.7,0,0,0-.61-3.42,1.8,1.8,0,0,0-1.75-1.28,3.9,3.9,0,0,0-3.14,1.63,15.26,15.26,0,0,0-2.28,4.32,46,46,0,0,0-1.71,5.9q-.74,3.23-1.34,6.48-.81,4.38-1.73,8a22.15,22.15,0,0,1-2.24,5.85A4,4,0,0,1,122,76q-2.15,0-4-2.46a23.69,23.69,0,0,1-3.2-6.65,58.93,58.93,0,0,1-2.2-9.59,88.33,88.33,0,0,1-1-11.39,97.93,97.93,0,0,1,.42-12,71.66,71.66,0,0,1,2-11.37A39.59,39.59,0,0,1,117.88,13a20.57,20.57,0,0,1,5.83-6.66,13.51,13.51,0,0,1,8-2.45,8.44,8.44,0,0,1,6.75,2.8,10.28,10.28,0,0,1,2.14,6.75,21.18,21.18,0,0,1-1.76,8.11A28,28,0,0,1,134,29.27a24.23,24.23,0,0,1-16.3,8.4,158.37,158.37,0,0,0-.1,17.53A88.12,88.12,0,0,0,119.24,69c.79,3.64,1.71,5.45,2.76,5.45s1.85-.73,2.55-2.18a27.16,27.16,0,0,0,1.86-5.55q.81-3.35,1.5-7.07t1.5-7.14a45.71,45.71,0,0,1,1.89-6.29A13.83,13.83,0,0,1,134,41.73a5.16,5.16,0,0,1,3.89-1.68,7.07,7.07,0,0,1,7,4.29,15.84,15.84,0,0,1,1.25,4.35,36.2,36.2,0,0,1,.36,4.93c0,1.69,0,3.3,0,4.84s-.07,2.65,0,3.74a10.79,10.79,0,0,0,.31,2.6c.17.66.51,1,1,1a2,2,0,0,0,.81-.34A6.57,6.57,0,0,0,150,63.88a26.76,26.76,0,0,0,2.3-3.72q1.36-2.5,3.17-6.77c1.1-2.6,2-5,2.84-7.25s1.35-3.83,1.69-4.83a.83.83,0,0,1,.38-.46A.67.67,0,0,1,160.93,40.81ZM131.75,5.37a7.62,7.62,0,0,0-5.68,2.53A20.68,20.68,0,0,0,122,14.77a55.92,55.92,0,0,0-2.68,9.84,109.63,109.63,0,0,0-1.48,11.52,22.69,22.69,0,0,0,15-7.86,27.52,27.52,0,0,0,4.58-7.33,19.43,19.43,0,0,0,1.67-7.55,8.76,8.76,0,0,0-1.77-5.75A6.9,6.9,0,0,0,131.75,5.37Z"/><path class="cls-1" d="M122,76.53c-1.6,0-3.08-.9-4.4-2.68A24,24,0,0,1,114.32,67a59.87,59.87,0,0,1-2.23-9.67,91.28,91.28,0,0,1-1-11.46,99,99,0,0,1,.42-12,72.59,72.59,0,0,1,2-11.46,40.83,40.83,0,0,1,3.87-9.72,21.18,21.18,0,0,1,6-6.83,14.07,14.07,0,0,1,8.35-2.55,9,9,0,0,1,7.16,3,10.9,10.9,0,0,1,2.27,7.11,21.7,21.7,0,0,1-1.8,8.32,28.63,28.63,0,0,1-5,7.91,24.82,24.82,0,0,1-16.19,8.54,158.69,158.69,0,0,0-.07,17,88.31,88.31,0,0,0,1.62,13.72c1,4.66,2,5,2.23,5,.77,0,1.46-.63,2.07-1.88a28.1,28.1,0,0,0,1.82-5.43c.53-2.23,1-4.6,1.49-7s1-4.84,1.5-7.16A47.3,47.3,0,0,1,130.8,46a14.25,14.25,0,0,1,2.8-4.66,5.68,5.68,0,0,1,4.28-1.85,7.57,7.57,0,0,1,7.45,4.61,16,16,0,0,1,1.3,4.5,37.12,37.12,0,0,1,.36,5c0,1.69,0,3.32-.05,4.85s-.07,2.64,0,3.71a10.33,10.33,0,0,0,.29,2.48c.16.58.38.58.47.58a2.06,2.06,0,0,0,.53-.27,5.85,5.85,0,0,0,1.37-1.42,28.29,28.29,0,0,0,2.25-3.64c.89-1.65,1.95-3.92,3.14-6.73,1.09-2.58,2-5,2.83-7.22s1.35-3.82,1.68-4.82a1.44,1.44,0,0,1,.63-.76,1.2,1.2,0,0,1,1-.07,1.38,1.38,0,0,1,.74.62,1.17,1.17,0,0,1,.08,1c-.34,1-.91,2.68-1.71,4.89s-1.77,4.7-2.86,7.33A73.49,73.49,0,0,1,154,61.36a26.9,26.9,0,0,1-2.64,4.12,7.36,7.36,0,0,1-2.09,1.89,3.52,3.52,0,0,1-1.63.49,6.5,6.5,0,0,1-4.73-1.65,9.09,9.09,0,0,1-2.31-4.16,25.5,25.5,0,0,1-.8-5.39c-.09-1.92-.11-3.83-.06-5.7,0-1.69,0-3.26-.06-4.66a10.08,10.08,0,0,0-.57-3.23,1.27,1.27,0,0,0-1.25-1,3.38,3.38,0,0,0-2.72,1.43,14.64,14.64,0,0,0-2.2,4.16,49.07,49.07,0,0,0-1.69,5.84c-.48,2.15-.93,4.33-1.33,6.46-.54,2.91-1.12,5.62-1.74,8a22.94,22.94,0,0,1-2.3,6A4.44,4.44,0,0,1,122,76.53Zm9.75-72.15A13,13,0,0,0,124,6.73a20.16,20.16,0,0,0-5.67,6.49,39,39,0,0,0-3.76,9.45,70.85,70.85,0,0,0-2,11.29,99,99,0,0,0-.42,11.92,88.74,88.74,0,0,0,1,11.32,60.09,60.09,0,0,0,2.18,9.51,23,23,0,0,0,3.13,6.5c1.1,1.48,2.29,2.24,3.53,2.24a3.39,3.39,0,0,0,3-2,22,22,0,0,0,2.19-5.7c.61-2.4,1.18-5.08,1.72-8,.4-2.16.85-4.34,1.34-6.51a49.92,49.92,0,0,1,1.73-6,15.68,15.68,0,0,1,2.37-4.47A4.45,4.45,0,0,1,137.88,41a2.31,2.31,0,0,1,2.25,1.62,11.47,11.47,0,0,1,.65,3.59c.06,1.43.08,3,.06,4.74s0,3.73.06,5.62a24,24,0,0,0,.76,5.16,8,8,0,0,0,2,3.67,5.45,5.45,0,0,0,4,1.34,2.73,2.73,0,0,0,1.13-.36,7,7,0,0,0,1.76-1.63,27.57,27.57,0,0,0,2.53-4,71.79,71.79,0,0,0,3.29-7.08c1.09-2.61,2-5.06,2.85-7.28s1.36-3.84,1.7-4.88c0-.08,0-.11,0-.14a.3.3,0,0,0-.18-.14c-.06,0-.08,0-.11,0a.3.3,0,0,0-.15.18c-.33,1-.89,2.6-1.68,4.83S157,51,156,53.6c-1.21,2.85-2.28,5.14-3.19,6.82a30.43,30.43,0,0,1-2.35,3.8,7.4,7.4,0,0,1-1.66,1.68,2.25,2.25,0,0,1-1.09.42c-.42,0-1.19-.18-1.51-1.37a11.5,11.5,0,0,1-.33-2.74c0-1.1,0-2.37,0-3.77s.07-3.14,0-4.81a36.69,36.69,0,0,0-.35-4.86,15.11,15.11,0,0,0-1.21-4.2,6.5,6.5,0,0,0-6.47-4,4.6,4.6,0,0,0-3.5,1.51,13.33,13.33,0,0,0-2.57,4.32,44.5,44.5,0,0,0-1.88,6.21c-.53,2.31-1,4.71-1.49,7.12s-1,4.86-1.5,7.1A29,29,0,0,1,125,72.5c-.8,1.65-1.82,2.49-3,2.49-1.39,0-2.4-1.81-3.29-5.87a90.53,90.53,0,0,1-1.64-13.89,159.45,159.45,0,0,1,.1-17.59l0-.47.46,0a23.8,23.8,0,0,0,16-8.22,27.63,27.63,0,0,0,4.77-7.62,20.7,20.7,0,0,0,1.72-7.9,9.82,9.82,0,0,0-2-6.41A7.84,7.84,0,0,0,131.75,4.38ZM117.24,36.73l0-.64a110.77,110.77,0,0,1,1.49-11.58,56.07,56.07,0,0,1,2.71-9.93,21.05,21.05,0,0,1,4.2-7,8.16,8.16,0,0,1,6.07-2.7,7.48,7.48,0,0,1,6,2.46,9.38,9.38,0,0,1,1.89,6.1,20.09,20.09,0,0,1-1.71,7.76,28.16,28.16,0,0,1-4.67,7.47,23.33,23.33,0,0,1-15.4,8.05ZM131.75,5.91a7,7,0,0,0-5.29,2.37,20,20,0,0,0-4,6.68,55.13,55.13,0,0,0-2.66,9.75,107.66,107.66,0,0,0-1.42,10.82,22.4,22.4,0,0,0,14.05-7.62,27,27,0,0,0,4.48-7.18,18.91,18.91,0,0,0,1.63-7.34A8.32,8.32,0,0,0,136.93,8,6.37,6.37,0,0,0,131.75,5.91Z"/><path class="cls-1" d="M178.9,41.29a.83.83,0,0,1,0,.6l-1.74,3.49q-1.17,2.34-2.71,5.06a57.68,57.68,0,0,1-4,6.29,12.45,12.45,0,0,1-2.61,2.7,2.84,2.84,0,0,1-1.57.6h0A5.88,5.88,0,0,1,160.74,57a15,15,0,0,1-1.53-7.31,36.75,36.75,0,0,1,.86-7.95,49.66,49.66,0,0,1,2-6.64,2.54,2.54,0,0,1,1.07-1.27,2.08,2.08,0,0,1,1.61-.19,2.24,2.24,0,0,1,1.69,2.15,3.11,3.11,0,0,1-.08.65,55,55,0,0,0-1.82,17.65c.19,2.78.75,4.27,1.67,4.45h0a2,2,0,0,0,.55-.23A6,6,0,0,0,168,57.19a23.73,23.73,0,0,0,2.07-2.63,55.51,55.51,0,0,0,3-4.89c1-1.79,1.93-3.45,2.71-5s1.34-2.69,1.7-3.46a.83.83,0,0,1,.43-.4.81.81,0,0,1,.57,0A.72.72,0,0,1,178.9,41.29ZM166.34,30a2.65,2.65,0,1,1,1.86-4.51,2.61,2.61,0,0,1,0,3.74A2.57,2.57,0,0,1,166.34,30Z"/><path class="cls-1" d="M166.29,60.57h-.1a6.38,6.38,0,0,1-5.92-3.36,15.57,15.57,0,0,1-1.6-7.56,37.87,37.87,0,0,1,.87-8.07,52.75,52.75,0,0,1,2-6.71,3,3,0,0,1,1.31-1.54,2.57,2.57,0,0,1,2-.25A2.77,2.77,0,0,1,167,35.75a3.58,3.58,0,0,1-.09.77,51.85,51.85,0,0,0-1.62,8.72,51.05,51.05,0,0,0-.19,8.77c.22,3.16.86,3.8,1.15,3.93l.33-.15a5.38,5.38,0,0,0,1.1-1,23.64,23.64,0,0,0,2-2.57,53.47,53.47,0,0,0,3-4.84c1-1.77,1.92-3.44,2.7-5S176.66,41.77,177,41a1.32,1.32,0,0,1,.73-.69,1.41,1.41,0,0,1,.95,0,1.26,1.26,0,0,1,.72.77h0a1.44,1.44,0,0,1,0,1l-1.77,3.54c-.78,1.57-1.7,3.28-2.72,5.08a56.86,56.86,0,0,1-4.07,6.36,12.51,12.51,0,0,1-2.74,2.83A3.53,3.53,0,0,1,166.29,60.57Zm-2.16-26.51a1.47,1.47,0,0,0-.74.2,1.94,1.94,0,0,0-.84,1,48.49,48.49,0,0,0-2,6.56,36.36,36.36,0,0,0-.85,7.84,14.61,14.61,0,0,0,1.47,7.05,5.31,5.31,0,0,0,5,2.78,2.29,2.29,0,0,0,1.31-.51A12.07,12.07,0,0,0,170,56.4a56.84,56.84,0,0,0,4-6.23c1-1.79,1.91-3.48,2.69-5l1.74-3.49a.31.31,0,0,0,0-.19.28.28,0,0,0-.13-.13.24.24,0,0,0-.15,0s-.07,0-.13.14c-.35.75-.92,1.91-1.7,3.45s-1.7,3.23-2.72,5a57.28,57.28,0,0,1-3,4.94,24.49,24.49,0,0,1-2.12,2.68A5.81,5.81,0,0,1,167,58.74a1.82,1.82,0,0,1-.8.29h-.14c-1.22-.24-1.89-1.81-2.11-5a53.15,53.15,0,0,1,.19-8.95,54.1,54.1,0,0,1,1.65-8.87,2.16,2.16,0,0,0,.06-.51,1.7,1.7,0,0,0-.35-1,1.88,1.88,0,0,0-1.4-.67Zm2.21-3.52a3.18,3.18,0,0,1-2.26-5.43,3.14,3.14,0,0,1,4.5,0,3.15,3.15,0,0,1,0,4.51A3.12,3.12,0,0,1,166.34,30.54Zm0-5.3a2,2,0,0,0-1.49.63,2,2,0,0,0-.62,1.48,2,2,0,0,0,.61,1.5,2.1,2.1,0,0,0,3,0,2,2,0,0,0,.63-1.49,2.15,2.15,0,0,0-2.11-2.11Z"/><path class="cls-1" d="M224.57,41.39A.7.7,0,0,1,225,41a.8.8,0,0,1,.55,0,.77.77,0,0,1,.41.46.84.84,0,0,1-.06.62q-.66,1.22-2.26,3.74a54.84,54.84,0,0,1-4.11,5.46,34.37,34.37,0,0,1-7.67,6.87,26.74,26.74,0,0,1-1.46,6.36,20.81,20.81,0,0,1-3,5.53A14.64,14.64,0,0,1,203,74a11.43,11.43,0,0,1-5.77,1.46A5.66,5.66,0,0,1,193,73.9a5.78,5.78,0,0,1-1.57-4.24,9.21,9.21,0,0,1,1.28-4.61,10.53,10.53,0,0,1,3.68-3.74,10.7,10.7,0,0,1,5.7-1.47,13.3,13.3,0,0,0,2.88-.31,45,45,0,0,0,.67-6.31,26.4,26.4,0,0,0-.39-5.64,9.91,9.91,0,0,0-1.59-4.06,3.53,3.53,0,0,0-3-1.52,8,8,0,0,0-4.57,1.27,10.2,10.2,0,0,0-3.1,3.35,20.31,20.31,0,0,0-2,4.61,44.7,44.7,0,0,0-1.15,5c-.28,1.69-.5,3.26-.65,4.72a34.44,34.44,0,0,1-.73,4.39c-.26,1-.73,1.48-1.42,1.48v0q-2.41,0-4.39-2.67A23.58,23.58,0,0,1,179.38,57a55.85,55.85,0,0,1-2-10,72.74,72.74,0,0,1-.4-11.51A63.46,63.46,0,0,1,178.46,24a39.87,39.87,0,0,1,3.68-10,20.53,20.53,0,0,1,6.16-7.14,15.07,15.07,0,0,1,8.92-2.64A8.58,8.58,0,0,1,204,6.91a10.42,10.42,0,0,1,2.15,6.79,20.84,20.84,0,0,1-1.79,8.07,28.48,28.48,0,0,1-4.89,7.8A24,24,0,0,1,182.76,38,109.07,109.07,0,0,0,183,51a58.37,58.37,0,0,0,1.53,10c.69,2.59,1.5,4,2.42,4.27l-.08.16.1-.08a.35.35,0,0,1,.17,0v0h-.19a8.26,8.26,0,0,0,.42-1.8c.13-.84.26-1.74.38-2.68.21-1.9.52-4,.94-6.24A33.28,33.28,0,0,1,190.62,48q3.25-7.55,10.09-7.55a9.63,9.63,0,0,1,6.58,2.24A13,13,0,0,1,211,48.56a22.11,22.11,0,0,1,1,7.75A39.77,39.77,0,0,0,220.29,48,54.8,54.8,0,0,0,224.57,41.39ZM197.22,5.68A8.42,8.42,0,0,0,191,8.31a20.4,20.4,0,0,0-4.29,7,52,52,0,0,0-2.65,9.88,96.73,96.73,0,0,0-1.24,11.22,22.54,22.54,0,0,0,15.45-7.9,26.23,26.23,0,0,0,4.62-7.31,19.31,19.31,0,0,0,1.67-7.53,8.84,8.84,0,0,0-1.8-5.8A7,7,0,0,0,197.22,5.68Zm0,68.27a4,4,0,0,0,3.05-1.78,17.87,17.87,0,0,0,2.57-4.68,38.24,38.24,0,0,0,1.82-6.35,14.19,14.19,0,0,1-2.57.23,8.63,8.63,0,0,0-8.15,4.7,8.07,8.07,0,0,0-1,3.59A3.92,3.92,0,0,0,197.26,74Z"/><path class="cls-1" d="M197.26,76a6.2,6.2,0,0,1-4.61-1.76,6.32,6.32,0,0,1-1.72-4.61,9.77,9.77,0,0,1,1.35-4.87,11,11,0,0,1,3.87-3.94,11.26,11.26,0,0,1,6-1.55,13,13,0,0,0,2.41-.23,43,43,0,0,0,.6-5.87,25.93,25.93,0,0,0-.38-5.52,9.38,9.38,0,0,0-1.49-3.84,3,3,0,0,0-2.56-1.3,7.46,7.46,0,0,0-4.26,1.18,9.71,9.71,0,0,0-2.95,3.18,19.42,19.42,0,0,0-1.9,4.48,44.16,44.16,0,0,0-1.14,5c-.28,1.67-.49,3.25-.64,4.68a36.05,36.05,0,0,1-.75,4.48c-.4,1.55-1.28,1.88-1.94,1.88h-.54v-.07a4.57,4.57,0,0,1-.72-.14l-1,1,.55-1.11a7.19,7.19,0,0,1-3.14-2.59,24.16,24.16,0,0,1-3.44-7.29,57.12,57.12,0,0,1-2.06-10.13,73.76,73.76,0,0,1-.4-11.59,64.56,64.56,0,0,1,1.53-11.6,40.2,40.2,0,0,1,3.73-10.19A21.06,21.06,0,0,1,188,6.35a15.63,15.63,0,0,1,9.23-2.74,9.11,9.11,0,0,1,7.15,2.94,11,11,0,0,1,2.29,7.15A21.47,21.47,0,0,1,204.83,22a29.57,29.57,0,0,1-5,8,24.67,24.67,0,0,1-16.57,8.55A108.45,108.45,0,0,0,183.53,51,57.57,57.57,0,0,0,185,60.87a8.27,8.27,0,0,0,1.59,3.6c.06-.26.13-.61.2-1.07.12-.84.25-1.73.38-2.68.2-1.88.52-4,.94-6.26a33.42,33.42,0,0,1,2-6.64c2.26-5.24,5.82-7.89,10.59-7.89a10.13,10.13,0,0,1,6.93,2.38,13.48,13.48,0,0,1,3.88,6.08,22.51,22.51,0,0,1,1.06,6.8,38.75,38.75,0,0,0,7.27-7.54,54,54,0,0,0,4.23-6.5l0,0a1.25,1.25,0,0,1,.77-.6,1.36,1.36,0,0,1,.91.07,1.32,1.32,0,0,1,.7.79,1.3,1.3,0,0,1-.09,1c-.45.84-1.21,2.11-2.29,3.79A54.4,54.4,0,0,1,220,51.71a35.08,35.08,0,0,1-7.57,6.83,27.8,27.8,0,0,1-1.46,6.24,21.53,21.53,0,0,1-3,5.66,15.33,15.33,0,0,1-4.57,4.06A12.08,12.08,0,0,1,197.26,76Zm3.45-34.57a4.07,4.07,0,0,1,3.43,1.74,10.51,10.51,0,0,1,1.68,4.28,26.87,26.87,0,0,1,.4,5.76,46.29,46.29,0,0,1-.68,6.39l-.07.35-.35.08a14.26,14.26,0,0,1-3,.32,10.19,10.19,0,0,0-5.41,1.39,10,10,0,0,0-3.5,3.55A8.71,8.71,0,0,0,192,69.66a5.23,5.23,0,0,0,1.42,3.86A5.12,5.12,0,0,0,197.26,75a10.94,10.94,0,0,0,5.5-1.39A14.1,14.1,0,0,0,207,69.79a20.6,20.6,0,0,0,2.9-5.38,26.2,26.2,0,0,0,1.42-6.24l0-.26.22-.14A33.78,33.78,0,0,0,219.13,51a51,51,0,0,0,4.06-5.41c1.06-1.65,1.82-2.89,2.24-3.7a.21.21,0,0,0,0-.2c0-.05,0-.09-.13-.14a.32.32,0,0,0-.17,0,.18.18,0,0,0-.11.08,54.65,54.65,0,0,1-4.31,6.64,40.87,40.87,0,0,1-8.38,8.46l-.91.69,0-1.14a21.7,21.7,0,0,0-1-7.56,12.33,12.33,0,0,0-3.56-5.61A9.1,9.1,0,0,0,200.71,41c-4.36,0-7.49,2.36-9.59,7.23a32.35,32.35,0,0,0-1.91,6.42c-.41,2.24-.73,4.33-.93,6.19-.13,1-.26,1.87-.39,2.71-.07.47-.14.86-.22,1.19v1.07l-.46,0-.41.4.33,0h.24c.21-.08.47-.32.66-1a33.93,33.93,0,0,0,.71-4.32c.16-1.45.38-3.05.66-4.74a43.63,43.63,0,0,1,1.16-5.1,20.91,20.91,0,0,1,2-4.73,11,11,0,0,1,3.27-3.53A8.57,8.57,0,0,1,200.71,41.46ZM197.22,4.68a14.6,14.6,0,0,0-8.61,2.55,20,20,0,0,0-6,7A39.37,39.37,0,0,0,179,24.1a63.24,63.24,0,0,0-1.5,11.4,71.72,71.72,0,0,0,.4,11.43,55.09,55.09,0,0,0,2,9.93,23.48,23.48,0,0,0,3.27,7,5.89,5.89,0,0,0,2.77,2.25l.27-.55c-.87-.61-1.58-2-2.21-4.38a58.69,58.69,0,0,1-1.55-10.07A110.43,110.43,0,0,1,182.22,38l0-.48.48,0A23.58,23.58,0,0,0,199,29.21a28.52,28.52,0,0,0,4.8-7.65,20.45,20.45,0,0,0,1.74-7.86,10,10,0,0,0-2-6.45A8,8,0,0,0,197.22,4.68Zm0,69.81a4.46,4.46,0,0,1-4.8-4.83,8.56,8.56,0,0,1,1-3.83,9.17,9.17,0,0,1,8.63-5,13.91,13.91,0,0,0,2.47-.22l.78-.14-.15.78a39.61,39.61,0,0,1-1.85,6.44,18.36,18.36,0,0,1-2.65,4.82A4.55,4.55,0,0,1,197.26,74.49ZM204,61.79a15,15,0,0,1-1.88.12,8.14,8.14,0,0,0-7.67,4.4,7.57,7.57,0,0,0-.92,3.35,3.76,3.76,0,0,0,1,2.78,3.72,3.72,0,0,0,2.75,1,3.53,3.53,0,0,0,2.63-1.58,17.25,17.25,0,0,0,2.48-4.54A35.89,35.89,0,0,0,204,61.79ZM182.26,37l0-.62a95.84,95.84,0,0,1,1.25-11.28,52.86,52.86,0,0,1,2.67-10,20.87,20.87,0,0,1,4.42-7.22,9,9,0,0,1,6.58-2.79,7.49,7.49,0,0,1,6,2.41,9.43,9.43,0,0,1,1.93,6.15,20,20,0,0,1-1.71,7.74,27.3,27.3,0,0,1-4.71,7.46A23.21,23.21,0,0,1,182.88,37Zm15-30.81a7.8,7.8,0,0,0-5.81,2.47,19.86,19.86,0,0,0-4.18,6.85,51.59,51.59,0,0,0-2.62,9.77,96.74,96.74,0,0,0-1.2,10.54,22.19,22.19,0,0,0,14.48-7.67A26.16,26.16,0,0,0,202.42,21,19,19,0,0,0,204,13.7a8.29,8.29,0,0,0-1.68-5.45A6.37,6.37,0,0,0,197.22,6.22Z"/><path class="cls-1" d="M252.87,40.81a.8.8,0,0,1,.58.23.68.68,0,0,1,.19.58,11.22,11.22,0,0,1-4.95,8.13A18.08,18.08,0,0,1,241,52.82a.51.51,0,0,0,0,.11q-3.48,5.88-8.59,5.87a7.6,7.6,0,0,1-5-1.61,9.55,9.55,0,0,1-2.9-4.08,14.82,14.82,0,0,1-.94-5.26,15.52,15.52,0,0,1,.88-5.23,19.56,19.56,0,0,1-.53-4.64,10.16,10.16,0,0,1,3-7.43,9.93,9.93,0,0,1,7.34-3.08,8.16,8.16,0,0,1,7,3.7q2.63,3.69,2.63,9.91a25.57,25.57,0,0,1-2,10.05,16.51,16.51,0,0,0,6-2.65,9.63,9.63,0,0,0,4.3-7,.73.73,0,0,1,.25-.5A.76.76,0,0,1,252.87,40.81ZM240,51.44a23.6,23.6,0,0,0,2.33-10.36,16.7,16.7,0,0,0-2-8.55A6.8,6.8,0,0,0,234.23,29,8.5,8.5,0,0,0,228,31.63,8.68,8.68,0,0,0,225.37,38a20.9,20.9,0,0,0,.12,2.3,6.71,6.71,0,0,1,3.83-3,1.8,1.8,0,0,1,1.1.12,1.74,1.74,0,0,1,.82.77,1.64,1.64,0,0,1-.15,1.8,10.42,10.42,0,0,0-1.31,3.24,29.24,29.24,0,0,0-.8,4.81l0,0,.3.31a13.07,13.07,0,0,0,8.82,3.1C238.76,51.51,239.37,51.49,240,51.44Zm-7.64,5.83A6.37,6.37,0,0,0,236.4,56a11.39,11.39,0,0,0,2.67-2.91h-.93a14.81,14.81,0,0,1-9.24-3,15.82,15.82,0,0,0,.31,3.54,6.79,6.79,0,0,0,1.09,2.65A2.4,2.4,0,0,0,232.35,57.27Z"/><path class="cls-1" d="M232.35,59.34A8.22,8.22,0,0,1,227,57.61a10.12,10.12,0,0,1-3-4.31,15.26,15.26,0,0,1-1-5.45,16,16,0,0,1,.86-5.26A20,20,0,0,1,223.3,38a10.79,10.79,0,0,1,3.2-7.81,10.53,10.53,0,0,1,7.73-3.24,8.73,8.73,0,0,1,7.44,3.92c1.81,2.55,2.73,6,2.73,10.23a26.17,26.17,0,0,1-1.67,9.26A15.85,15.85,0,0,0,247.5,48a9.13,9.13,0,0,0,4.07-6.59,1.26,1.26,0,0,1,.42-.84,1.38,1.38,0,0,1,1.84,0,1.22,1.22,0,0,1,.35,1,11.74,11.74,0,0,1-5.17,8.5,18.62,18.62,0,0,1-7.66,3.12C238.94,57.31,235.91,59.34,232.35,59.34ZM234.23,28a9.47,9.47,0,0,0-7,2.92,9.73,9.73,0,0,0-2.89,7,18.54,18.54,0,0,0,.52,4.51l0,.15-.06.16a15,15,0,0,0-.85,5.05,14.19,14.19,0,0,0,.91,5.06,9,9,0,0,0,2.73,3.86,7.15,7.15,0,0,0,4.68,1.49c3.21,0,5.85-1.81,8.09-5.53a1.16,1.16,0,0,1,.06-.15l.12-.25.28,0a17.76,17.76,0,0,0,7.48-3,10.74,10.74,0,0,0,4.72-7.74c0-.1,0-.12,0-.14a.32.32,0,0,0-.35,0,.27.27,0,0,0-.08.17,10.2,10.2,0,0,1-4.51,7.35A17.45,17.45,0,0,1,242,51.66l-1,.23.41-1a25.11,25.11,0,0,0,2-9.84c0-4-.85-7.24-2.53-9.6A7.59,7.59,0,0,0,234.23,28Zm-1.88,29.8a2.93,2.93,0,0,1-2.48-1.24,7.22,7.22,0,0,1-1.19-2.85,15.88,15.88,0,0,1-.32-3.67l0-1.07.85.65a14.32,14.32,0,0,0,8.91,2.88H240l-.52.82a11.62,11.62,0,0,1-2.79,3.06A6.93,6.93,0,0,1,232.35,57.81Zm-2.9-6.7a13.59,13.59,0,0,0,.29,2.38,6.09,6.09,0,0,0,1,2.44,1.86,1.86,0,0,0,1.61.8,5.88,5.88,0,0,0,3.72-1.19,11.31,11.31,0,0,0,2-1.95A15.5,15.5,0,0,1,229.45,51.11Zm8.69.94A13.61,13.61,0,0,1,229,48.82l-.51-.52,0-.29a30.33,30.33,0,0,1,.82-4.9,10.57,10.57,0,0,1,1.39-3.41,1.12,1.12,0,0,0,.1-1.26,1.24,1.24,0,0,0-.55-.51,1.2,1.2,0,0,0-.77-.08,6.13,6.13,0,0,0-3.49,2.72l-.83,1.28L225,40.33a21.58,21.58,0,0,1-.12-2.35,9.23,9.23,0,0,1,2.77-6.73,9,9,0,0,1,6.63-2.79,7.32,7.32,0,0,1,6.52,3.78,17.35,17.35,0,0,1,2.11,8.84,24.05,24.05,0,0,1-2.39,10.59l-.13.28L240,52C239.41,52,238.77,52.05,238.14,52.05Zm-8.6-4.19.16.17A12.63,12.63,0,0,0,238.14,51c.5,0,1,0,1.49,0a23,23,0,0,0,2.15-9.84,16.29,16.29,0,0,0-1.95-8.28,6.23,6.23,0,0,0-5.6-3.26A7.92,7.92,0,0,0,228.36,32a8.08,8.08,0,0,0-2.45,6c0,.28,0,.57,0,.84a7.08,7.08,0,0,1,3.24-2,2.3,2.3,0,0,1,2.54,1.14,2.18,2.18,0,0,1-.19,2.38,10.14,10.14,0,0,0-1.22,3.06A29,29,0,0,0,229.54,47.86Z"/><path class="cls-1" d="M289.85,40.81a.71.71,0,0,1,.42.41.76.76,0,0,1,0,.59q-.54,1.45-1.82,4.72c-.86,2.17-1.88,4.54-3.05,7.09-1.31,2.87-2.46,5.17-3.47,6.91a27.81,27.81,0,0,1-2.63,3.91,7,7,0,0,1-1.9,1.71,3.06,3.06,0,0,1-1.36.4,5.17,5.17,0,0,1-4-1.67,10.63,10.63,0,0,1-2.3-4.43,27.6,27.6,0,0,1-.92-6.15,57.53,57.53,0,0,1,.11-6.93,64.29,64.29,0,0,1,.85-6.71q-1.23,2.34-2.65,5A86,86,0,0,1,262.56,53a14.62,14.62,0,0,1-2.88,3.24A3.05,3.05,0,0,1,258,57q-3.9-.15-5.37-3.11a15,15,0,0,1-1.28-7.32,44.51,44.51,0,0,1,1.23-8.79,60.81,60.81,0,0,1,2.2-7.44,2.31,2.31,0,0,1,1.11-1.23,2.29,2.29,0,0,1,3,1A2.39,2.39,0,0,1,259,31.8a68.15,68.15,0,0,0-1.92,9.61,61.44,61.44,0,0,0-.61,9.64c.07,2.79.57,4.26,1.49,4.41a1.45,1.45,0,0,0,.39-.15,4.29,4.29,0,0,0,.88-.69,14.91,14.91,0,0,0,1.46-1.69c.58-.76,1.3-1.8,2.15-3.1s1.82-3,2.95-4.95q2.15-3.94,3.72-7.1c1.05-2.09,1.66-3.36,1.84-3.79l.23-.62a2.17,2.17,0,0,1,1.13-1.24,2.39,2.39,0,0,1,1.67-.14,2.22,2.22,0,0,1,1.29,1.11,2.51,2.51,0,0,1,.17,1.73,48.33,48.33,0,0,0-1.33,8q-.48,4.93-.49,10a62.69,62.69,0,0,0,.46,8.61c.32,2.36.83,3.55,1.55,3.55a2,2,0,0,0,.79-.33,7,7,0,0,0,1.51-1.5,26.86,26.86,0,0,0,2.36-3.62q1.4-2.46,3.32-6.6,1.73-3.8,3-7c.85-2.15,1.46-3.7,1.82-4.68a.79.79,0,0,1,.4-.44A.78.78,0,0,1,289.85,40.81Z"/><path class="cls-1" d="M276,67.09a5.73,5.73,0,0,1-4.39-1.84,11.28,11.28,0,0,1-2.42-4.65,28.28,28.28,0,0,1-.94-6.28,60.67,60.67,0,0,1,.11-7c.1-1.22.22-2.43.37-3.6l-1.15,2.13c-1.88,3.32-3.43,5.83-4.62,7.49a15.22,15.22,0,0,1-3,3.36,3.49,3.49,0,0,1-2.05.83c-2.8-.11-4.76-1.26-5.82-3.41a15.61,15.61,0,0,1-1.34-7.58A46.28,46.28,0,0,1,252,37.66a61.12,61.12,0,0,1,2.23-7.51,2.81,2.81,0,0,1,1.37-1.52,2.69,2.69,0,0,1,2.05-.15,2.77,2.77,0,0,1,1.65,1.37,2.86,2.86,0,0,1,.21,2.08,68.24,68.24,0,0,0-1.9,9.55A60.41,60.41,0,0,0,257,51c.08,3.06.66,3.72,1,3.86l.15-.07a4.46,4.46,0,0,0,.75-.6,13.94,13.94,0,0,0,1.4-1.63c.57-.75,1.29-1.78,2.12-3.07s1.82-2.93,2.94-4.92c1.41-2.58,2.65-5,3.71-7.07s1.65-3.34,1.82-3.76l.22-.6a2.75,2.75,0,0,1,1.41-1.54,3,3,0,0,1,2-.17,2.76,2.76,0,0,1,1.63,1.39,3,3,0,0,1,.21,2.1,49.81,49.81,0,0,0-1.31,7.94c-.31,3.26-.48,6.61-.49,10a63.23,63.23,0,0,0,.45,8.53c.4,3,1,3.08,1,3.09a2.25,2.25,0,0,0,.51-.26,5.76,5.76,0,0,0,1.37-1.37,26.51,26.51,0,0,0,2.31-3.55c.92-1.62,2-3.82,3.3-6.55,1.13-2.49,2.14-4.85,3-7s1.46-3.69,1.81-4.66a1.32,1.32,0,0,1,.68-.75,1.29,1.29,0,0,1,1,0h0a1.23,1.23,0,0,1,.73.7,1.35,1.35,0,0,1,0,1q-.54,1.45-1.83,4.73c-.86,2.17-1.89,4.57-3.06,7.12-1.31,2.86-2.48,5.2-3.5,6.95a28.13,28.13,0,0,1-2.68,4,7.61,7.61,0,0,1-2.06,1.84A3.61,3.61,0,0,1,276,67.09Zm-5.1-29.79-.62,3.46a66.65,66.65,0,0,0-.84,6.65,58.48,58.48,0,0,0-.11,6.86,27.29,27.29,0,0,0,.9,6,10.23,10.23,0,0,0,2.18,4.21A4.62,4.62,0,0,0,276,66a2.76,2.76,0,0,0,1.12-.34,6.89,6.89,0,0,0,1.73-1.58,27.31,27.31,0,0,0,2.57-3.83c1-1.72,2.16-4,3.45-6.86,1.16-2.54,2.19-4.91,3-7.07s1.46-3.74,1.81-4.71a.26.26,0,0,0,0-.21.17.17,0,0,0-.11-.09.22.22,0,0,0-.18,0,.21.21,0,0,0-.12.14q-.54,1.47-1.83,4.69c-.87,2.17-1.88,4.54-3,7.05-1.28,2.76-2.4,5-3.34,6.64a28.82,28.82,0,0,1-2.41,3.7,7.69,7.69,0,0,1-1.66,1.62,2.26,2.26,0,0,1-1.06.4c-1.37,0-1.84-2.15-2.09-4a64,64,0,0,1-.46-8.69c0-3.38.18-6.76.5-10.06a49.35,49.35,0,0,1,1.34-8.1,1.87,1.87,0,0,0-.14-1.34,1.6,1.6,0,0,0-1-.85,1.78,1.78,0,0,0-1.26.12,1.62,1.62,0,0,0-.86,1l-.22.61c-.2.46-.8,1.72-1.87,3.84s-2.31,4.51-3.73,7.12c-1.13,2-2.13,3.68-3,5s-1.58,2.37-2.18,3.14A14.55,14.55,0,0,1,259.61,55a5,5,0,0,1-1,.77A1.4,1.4,0,0,1,258,56c-1.72-.27-2-2.94-2-4.93a61.36,61.36,0,0,1,.62-9.73,66.56,66.56,0,0,1,1.93-9.69,1.79,1.79,0,0,0-.13-1.31,1.68,1.68,0,0,0-1-.83,1.58,1.58,0,0,0-1.23.09,1.68,1.68,0,0,0-.86.95,61.23,61.23,0,0,0-2.18,7.36,44.89,44.89,0,0,0-1.21,8.68,14.57,14.57,0,0,0,1.23,7.06c.88,1.8,2.49,2.72,4.91,2.81.13,0,.52,0,1.37-.63a14.32,14.32,0,0,0,2.75-3.12,84.82,84.82,0,0,0,4.55-7.37q1.41-2.6,2.64-4.93Z"/><path class="cls-1" d="M301.89,79.51a4,4,0,0,1,4,4,3.84,3.84,0,0,1-1.17,2.82,3.89,3.89,0,0,1-2.86,1.17,4,4,0,0,1-4-4,3.9,3.9,0,0,1,1.17-2.86A3.84,3.84,0,0,1,301.89,79.51Zm-1.69-6.17L298,4.53a3.91,3.91,0,0,1,1.13-2.84,3.86,3.86,0,0,1,5.5,0,3.9,3.9,0,0,1,1.12,2.84l-2.34,68.81Z"/><path class="cls-1" d="M301.89,88.07a4.54,4.54,0,1,1,3.24-1.33A4.39,4.39,0,0,1,301.89,88.07Zm0-8a3.47,3.47,0,0,0,0,6.94,3.34,3.34,0,0,0,2.48-1,3.3,3.3,0,0,0,1-2.44,3.47,3.47,0,0,0-3.49-3.49ZM304,73.88h-4.27l-2.2-69.34a4.45,4.45,0,0,1,1.28-3.23,4.42,4.42,0,0,1,6.28,0,4.48,4.48,0,0,1,1.27,3.22Zm-3.22-1.08h2.17l2.33-68.29a3.36,3.36,0,0,0-1-2.44,3.33,3.33,0,0,0-4.74,0,3.36,3.36,0,0,0-1,2.46Z"/><path class="cls-1" d="M23.12,103V93.86H24V103Z"/><path class="cls-1" d="M33.65,95.54V103h-.9V93.86h.7l6,7.62v-7.6h.9V103h-.78Z"/><path class="cls-1" d="M48.53,98.37a4.93,4.93,0,0,1,.29-1.64,4.63,4.63,0,0,1,.85-1.46,4.2,4.2,0,0,1,1.36-1,4.08,4.08,0,0,1,1.84-.41,3.83,3.83,0,0,1,2.1.56,3.35,3.35,0,0,1,1.28,1.44l-.71.44a2.71,2.71,0,0,0-.53-.76,3.18,3.18,0,0,0-.68-.51,2.6,2.6,0,0,0-.75-.27,3.35,3.35,0,0,0-.76-.09,3,3,0,0,0-1.45.34,3.36,3.36,0,0,0-1.07.87,4.08,4.08,0,0,0-.65,1.22,4.62,4.62,0,0,0-.22,1.37,4.22,4.22,0,0,0,1,2.69,3.45,3.45,0,0,0,1.08.85,3,3,0,0,0,1.36.31,3.61,3.61,0,0,0,.79-.09,3.5,3.5,0,0,0,.79-.31,3.23,3.23,0,0,0,.7-.53,2.94,2.94,0,0,0,.54-.77l.75.39a2.83,2.83,0,0,1-.62.91,4.11,4.11,0,0,1-.89.66,4.25,4.25,0,0,1-1,.41,4,4,0,0,1-1.07.15,3.63,3.63,0,0,1-1.73-.42,4.53,4.53,0,0,1-1.35-1.07,5,5,0,0,1-.88-1.51A4.85,4.85,0,0,1,48.53,98.37Z"/><path class="cls-1" d="M64.41,103V93.86h.91v8.35H70.6v.8Z"/><path class="cls-1" d="M81.51,102.26a2.83,2.83,0,0,0,1.43-.33,2.54,2.54,0,0,0,.92-.86,3.45,3.45,0,0,0,.47-1.22,6.34,6.34,0,0,0,.14-1.38V93.86h.9v4.61a7.65,7.65,0,0,1-.2,1.76,4.08,4.08,0,0,1-.67,1.46,3.26,3.26,0,0,1-1.19,1,3.91,3.91,0,0,1-1.79.37,3.86,3.86,0,0,1-1.82-.39,3.25,3.25,0,0,1-1.19-1,4.26,4.26,0,0,1-.65-1.47,7.32,7.32,0,0,1-.19-1.7V93.86h.89v4.61a6.55,6.55,0,0,0,.14,1.41,3.41,3.41,0,0,0,.48,1.21,2.56,2.56,0,0,0,.91.85A2.9,2.9,0,0,0,81.51,102.26Z"/><path class="cls-1" d="M99.31,95.58a2.7,2.7,0,0,0-1-.71,3.78,3.78,0,0,0-1.47-.27,2.75,2.75,0,0,0-1.76.45,1.54,1.54,0,0,0-.56,1.25,1.33,1.33,0,0,0,.15.67,1.27,1.27,0,0,0,.46.46,3.28,3.28,0,0,0,.79.34c.32.09.7.18,1.14.28a11.36,11.36,0,0,1,1.32.35,4,4,0,0,1,1,.48,2.1,2.1,0,0,1,.63.7,2.53,2.53,0,0,1,0,2.13,2.18,2.18,0,0,1-.68.77,3,3,0,0,1-1,.46,5.58,5.58,0,0,1-1.33.15,5.47,5.47,0,0,1-3.67-1.33l.45-.74a2.9,2.9,0,0,0,.59.49,3.91,3.91,0,0,0,.76.41,4,4,0,0,0,.89.27,4.68,4.68,0,0,0,1,.1,3.05,3.05,0,0,0,1.7-.4,1.5,1.5,0,0,0,.44-1.9,1.47,1.47,0,0,0-.52-.5,3.27,3.27,0,0,0-.86-.37c-.35-.1-.75-.21-1.2-.31s-.9-.23-1.26-.35a3.29,3.29,0,0,1-.92-.45,1.82,1.82,0,0,1-.56-.65,2.14,2.14,0,0,1-.19-.93,2.57,2.57,0,0,1,.24-1.13,2.29,2.29,0,0,1,.68-.83,3.41,3.41,0,0,1,1-.5,4.83,4.83,0,0,1,1.31-.17,4.36,4.36,0,0,1,2.93,1Z"/><path class="cls-1" d="M108.22,103V93.86h.9V103Z"/><path class="cls-1" d="M121.54,103.07a3.87,3.87,0,0,1-1.74-.39,4.25,4.25,0,0,1-1.36-1,4.92,4.92,0,0,1-1.19-3.2,4.78,4.78,0,0,1,.33-1.76,4.88,4.88,0,0,1,.91-1.48,4.27,4.27,0,0,1,1.36-1,3.92,3.92,0,0,1,1.7-.38,3.79,3.79,0,0,1,1.75.4,4.3,4.3,0,0,1,1.35,1.07,4.7,4.7,0,0,1,.87,1.48,4.84,4.84,0,0,1-.92,4.92,4.16,4.16,0,0,1-1.36,1A3.75,3.75,0,0,1,121.54,103.07Zm-3.39-4.63a4.35,4.35,0,0,0,.25,1.43,3.91,3.91,0,0,0,.69,1.23,3.69,3.69,0,0,0,1.07.85,3,3,0,0,0,1.38.31,3,3,0,0,0,1.41-.33,3.49,3.49,0,0,0,1.06-.88,4,4,0,0,0,.68-1.22,4.19,4.19,0,0,0,.24-1.39,4.12,4.12,0,0,0-.25-1.44,4,4,0,0,0-.7-1.22,3.5,3.5,0,0,0-1.07-.84,3.11,3.11,0,0,0-2.77,0,3.36,3.36,0,0,0-1.07.87,4.16,4.16,0,0,0-.68,1.22A4.21,4.21,0,0,0,118.15,98.44Zm3.48-5.83-.58-.22.76-1.19h.93Z"/><path class="cls-1" d="M134.87,95.54V103H134V93.86h.7l6.05,7.62v-7.6h.9V103h-.78Z"/><path class="cls-1" d="M160.08,103V93.86h3.79a2.49,2.49,0,0,1,1.09.25,2.9,2.9,0,0,1,.85.66,3.23,3.23,0,0,1,.57.92,2.77,2.77,0,0,1,.21,1,3.18,3.18,0,0,1-.74,2,2.75,2.75,0,0,1-.83.64,2.37,2.37,0,0,1-1.07.24h-3V103Zm.9-4.18h2.93a1.47,1.47,0,0,0,.72-.17,1.8,1.8,0,0,0,.56-.46,2.07,2.07,0,0,0,.36-.67,2.44,2.44,0,0,0,0-1.6,2.42,2.42,0,0,0-.4-.66,1.89,1.89,0,0,0-.6-.45,1.71,1.71,0,0,0-.71-.16H161Z"/><path class="cls-1" d="M178.22,103.07a3.91,3.91,0,0,1-1.75-.39,4.36,4.36,0,0,1-1.36-1,4.91,4.91,0,0,1,0-6.44,4.42,4.42,0,0,1,1.37-1,3.89,3.89,0,0,1,1.7-.38,3.79,3.79,0,0,1,1.75.4,4.53,4.53,0,0,1,1.35,1.07,5.11,5.11,0,0,1,.87,1.48,5,5,0,0,1,.31,1.7,4.85,4.85,0,0,1-1.23,3.22,4.38,4.38,0,0,1-1.36,1A3.78,3.78,0,0,1,178.22,103.07Zm-3.39-4.63a4.34,4.34,0,0,0,.24,1.43,4.14,4.14,0,0,0,.7,1.23,3.69,3.69,0,0,0,1.07.85,3.18,3.18,0,0,0,2.78,0,3.53,3.53,0,0,0,1.07-.88,4.15,4.15,0,0,0,.66-4,3.78,3.78,0,0,0-.7-1.22,3.5,3.5,0,0,0-1.07-.84,3,3,0,0,0-1.36-.32,3,3,0,0,0-1.41.33,3.47,3.47,0,0,0-1.07.87,4.14,4.14,0,0,0-.67,1.22A4.21,4.21,0,0,0,174.83,98.44Z"/><path class="cls-1" d="M190.65,103V93.86h.9v8.35h5.28v.8Z"/><path class="cls-1" d="M204.6,103V93.86h.9V103Z"/><path class="cls-1" d="M220.72,94.66h-3.26V103h-.9V94.66H213.3v-.8h7.42Z"/><path class="cls-1" d="M234.67,102.21v.8h-6.14V93.86h6v.8h-5.13V98h4.47v.76h-4.47v3.49Zm-2.87-9.6-.58-.22L232,91.2h.93Z"/><path class="cls-1" d="M242,98.37a4.69,4.69,0,0,1,.29-1.64,4.42,4.42,0,0,1,.84-1.46,4.24,4.24,0,0,1,1.37-1,4.05,4.05,0,0,1,1.84-.41,3.81,3.81,0,0,1,2.09.56,3.29,3.29,0,0,1,1.28,1.44l-.71.44a2.52,2.52,0,0,0-.53-.76,3,3,0,0,0-.68-.51,2.65,2.65,0,0,0-.74-.27,3.42,3.42,0,0,0-.76-.09,3,3,0,0,0-1.46.34,3.32,3.32,0,0,0-1.06.87,3.68,3.68,0,0,0-.65,1.22,4.32,4.32,0,0,0-.22,1.37,4.24,4.24,0,0,0,.26,1.46,4.42,4.42,0,0,0,.72,1.23A3.61,3.61,0,0,0,245,102a2.91,2.91,0,0,0,1.35.31,3.7,3.7,0,0,0,.8-.09,3.26,3.26,0,0,0,.78-.31,3,3,0,0,0,.7-.53,2.75,2.75,0,0,0,.55-.77l.74.39a2.68,2.68,0,0,1-.62.91,4.05,4.05,0,0,1-.88.66,4.42,4.42,0,0,1-1,.41,4.13,4.13,0,0,1-1.08.15,3.59,3.59,0,0,1-1.72-.42,4.45,4.45,0,0,1-1.36-1.07,5.16,5.16,0,0,1-.88-1.51A4.84,4.84,0,0,1,242,98.37Z"/><path class="cls-1" d="M258.8,95.54V103h-.9V93.86h.69l6.06,7.62v-7.6h.9V103h-.79Z"/><path class="cls-1" d="M274.28,103V93.86h.9V103Z"/><path class="cls-1" d="M283.31,98.37a4.93,4.93,0,0,1,.29-1.64,4.45,4.45,0,0,1,.85-1.46,4.2,4.2,0,0,1,1.36-1,4.08,4.08,0,0,1,1.84-.41,3.83,3.83,0,0,1,2.1.56A3.42,3.42,0,0,1,291,95.81l-.71.44a2.54,2.54,0,0,0-.54-.76,2.9,2.9,0,0,0-.67-.51,2.6,2.6,0,0,0-.75-.27,3.35,3.35,0,0,0-.76-.09,3,3,0,0,0-1.45.34,3.26,3.26,0,0,0-1.07.87,4.08,4.08,0,0,0-.65,1.22,4.62,4.62,0,0,0-.22,1.37,4.22,4.22,0,0,0,1,2.69,3.45,3.45,0,0,0,1.08.85,3,3,0,0,0,1.36.31,3.61,3.61,0,0,0,.79-.09,3.5,3.5,0,0,0,.79-.31,3.23,3.23,0,0,0,.7-.53,2.94,2.94,0,0,0,.54-.77l.75.39a2.83,2.83,0,0,1-.62.91,4.11,4.11,0,0,1-.89.66,4.25,4.25,0,0,1-1,.41,4,4,0,0,1-1.07.15,3.63,3.63,0,0,1-1.73-.42,4.53,4.53,0,0,1-1.35-1.07,5,5,0,0,1-.88-1.51A4.85,4.85,0,0,1,283.31,98.37Z"/><path class="cls-1" d="M301.9,93.86h.76l3.8,9.15h-.95l-1.19-2.86h-4.11L299,103h-1Zm2.21,5.58-1.84-4.52-1.87,4.52Z"/></g></g></svg>