<svg xmlns="http://www.w3.org/2000/svg" viewBox="0 0 196.4 169.88"><defs><style>.cls-1{isolation:isolate;}.cls-2,.cls-5{fill:#cdcccc;}.cls-3{fill:#5b84bf;}.cls-4{fill:#8d8d8c;}.cls-5{mix-blend-mode:multiply;}.cls-6,.cls-7,.cls-8{font-size:70px;font-family:MyriadPro-Regular, Myriad Pro;}.cls-6{fill:#010001;}.cls-7{fill:#1f140f;}.cls-8{fill:none;stroke:#1f140f;stroke-miterlimit:10;stroke-width:4px;}</style></defs><title>Recurso 4</title><g class="cls-1"><g id="Capa_2" data-name="Capa 2"><g id="Capa_1-2" data-name="Capa 1"><path class="cls-2" d="M109.72.11a6.5,6.5,0,0,0,5,5.05.14.14,0,0,1,0,.27,6.51,6.51,0,0,0-5,5.05.14.14,0,0,1-.27,0,6.5,6.5,0,0,0-5-5.05.14.14,0,0,1,0-.27,6.49,6.49,0,0,0,5-5A.14.14,0,0,1,109.72.11Z"/><circle class="cls-3" cx="114.89" cy="11.11" r="2.16"/><path class="cls-2" d="M54.56,77.12a6.54,6.54,0,0,0,5.09,5.09.14.14,0,0,1,0,.27,6.54,6.54,0,0,0-5.09,5.08.14.14,0,0,1-.27,0,6.53,6.53,0,0,0-5.08-5.08.14.14,0,0,1,0-.27,6.53,6.53,0,0,0,5.08-5.09A.14.14,0,0,1,54.56,77.12Z"/><path class="cls-4" d="M46.88,72.21a4.21,4.21,0,0,0,3.27,3.27.09.09,0,0,1,0,.17,4.21,4.21,0,0,0-3.27,3.27.09.09,0,0,1-.18,0,4.21,4.21,0,0,0-3.27-3.27.09.09,0,0,1,0-.17,4.21,4.21,0,0,0,3.27-3.27A.09.09,0,0,1,46.88,72.21Z"/><rect class="cls-4" x="94" y="41.53" width="8.65" height="93.23"/><path class="cls-2" d="M100.82,4.24l16.84,34.11a2.93,2.93,0,0,0,2.2,1.6l37.64,5.47a2.92,2.92,0,0,1,1.62,5L131.89,77a2.94,2.94,0,0,0-.85,2.59L137.47,117a2.93,2.93,0,0,1-4.25,3.09l-33.66-17.7a2.91,2.91,0,0,0-2.72,0l-33.67,17.7A2.93,2.93,0,0,1,58.92,117l6.43-37.48A2.9,2.9,0,0,0,64.51,77L37.28,50.41a2.92,2.92,0,0,1,1.62-5L76.54,40a2.94,2.94,0,0,0,2.2-1.6L95.57,4.24A2.92,2.92,0,0,1,100.82,4.24Z"/><path class="cls-2" d="M105.1,129.07H91.29A16.83,16.83,0,0,0,74.46,145.9v20.34a3.64,3.64,0,0,0,3.65,3.64h40.18a3.64,3.64,0,0,0,3.64-3.64V145.9A16.82,16.82,0,0,0,105.1,129.07Z"/><path class="cls-3" d="M4.66,43.46c2,4.08,5.25,6,8.6,6a24.5,24.5,0,0,0-1.2-13.06,12,12,0,0,0-5.68-6.68c-1.1-.53-2.51.67-2.86,2.49A18.46,18.46,0,0,0,4.66,43.46Z"/><path class="cls-3" d="M23.11,46.4c-3,2.63-6.54,3.76-9.85,3.08a16,16,0,0,1,5.55-11.42,10.2,10.2,0,0,1,8.1-2.31,2.14,2.14,0,0,1,1.34,3A18.46,18.46,0,0,1,23.11,46.4Z"/><path class="cls-3" d="M3.4,65.3c2.74,3.51,6.34,4.66,9.64,4A23.06,23.06,0,0,0,9.22,57.16,12,12,0,0,0,2.28,52C1.1,51.66,0,53.08,0,54.86A17.66,17.66,0,0,0,3.4,65.3Z"/><path class="cls-3" d="M22.07,64.47a11.65,11.65,0,0,1-9,4.88,15.15,15.15,0,0,1,3.13-12,10.25,10.25,0,0,1,7.44-3.77,2.08,2.08,0,0,1,1.93,2.53A17.59,17.59,0,0,1,22.07,64.47Z"/><path class="cls-3" d="M6.49,86.51c3.36,2.85,7.12,3.26,10.23,2a22.36,22.36,0,0,0-6.12-11,12.07,12.07,0,0,0-7.83-3.63c-1.22,0-2,1.54-1.66,3.25A17.28,17.28,0,0,0,6.49,86.51Z"/><path class="cls-3" d="M24.62,82a11.69,11.69,0,0,1-7.9,6.51,14.84,14.84,0,0,1,.73-12.17A10.3,10.3,0,0,1,24,71.26a2.07,2.07,0,0,1,2.39,2A17,17,0,0,1,24.62,82Z"/><path class="cls-3" d="M13.61,106.51a9.84,9.84,0,0,0,10.41,0,21.87,21.87,0,0,0-8.12-9.54,12,12,0,0,0-8.37-2c-1.2.2-1.71,1.89-1,3.48A17.15,17.15,0,0,0,13.61,106.51Z"/><path class="cls-3" d="M30.51,98.56A11.73,11.73,0,0,1,24,106.47a14.72,14.72,0,0,1-1.63-12,10.33,10.33,0,0,1,5.44-6.24,2.06,2.06,0,0,1,2.74,1.52A16.86,16.86,0,0,1,30.51,98.56Z"/><path class="cls-3" d="M24.46,124.71c4.19,1.35,7.82.29,10.21-2a21.92,21.92,0,0,0-9.82-7.8,12,12,0,0,0-8.6-.3c-1.13.43-1.3,2.19-.3,3.6A17.12,17.12,0,0,0,24.46,124.71Z"/><path class="cls-3" d="M39.49,113.62a11.73,11.73,0,0,1-4.82,9,14.73,14.73,0,0,1-3.94-11.49A10.33,10.33,0,0,1,34.85,104a2,2,0,0,1,3,1A17,17,0,0,1,39.49,113.62Z"/><path class="cls-3" d="M38.74,140.54c4.4.52,7.77-1.21,9.65-4a22.29,22.29,0,0,0-11.24-5.79,12,12,0,0,0-8.51,1.36c-1,.65-.85,2.41.42,3.61A17.36,17.36,0,0,0,38.74,140.54Z"/><path class="cls-3" d="M51.3,126.71a11.66,11.66,0,0,1-2.91,9.84A14.91,14.91,0,0,1,42.19,126a10.3,10.3,0,0,1,2.63-7.87,2,2,0,0,1,3.11.37A17.08,17.08,0,0,1,51.3,126.71Z"/><path class="cls-3" d="M56.15,153.42c4.48-.34,7.47-2.7,8.75-5.79a23.27,23.27,0,0,0-12.39-3.56,12,12,0,0,0-8.13,3c-.88.84-.35,2.54,1.15,3.48A17.88,17.88,0,0,0,56.15,153.42Z"/><path class="cls-3" d="M65.7,137.36c1.3,3.74,1.06,7.45-.8,10.27a15.3,15.3,0,0,1-8.39-9.24,10.22,10.22,0,0,1,1-8.26,2.07,2.07,0,0,1,3.15-.24A17.89,17.89,0,0,1,65.7,137.36Z"/><path class="cls-3" d="M191.73,43.46c-1.95,4.08-5.25,6-8.6,6a24.7,24.7,0,0,1,1.2-13.06A12,12,0,0,1,190,29.74c1.09-.53,2.51.67,2.85,2.49A18.32,18.32,0,0,1,191.73,43.46Z"/><path class="cls-3" d="M173.28,46.4c3,2.63,6.55,3.76,9.85,3.08a15.88,15.88,0,0,0-5.55-11.42,10.18,10.18,0,0,0-8.09-2.31,2.14,2.14,0,0,0-1.35,3A18.46,18.46,0,0,0,173.28,46.4Z"/><path class="cls-3" d="M193,65.3c-2.73,3.51-6.34,4.66-9.63,4a23,23,0,0,1,3.81-12.19,12,12,0,0,1,7-5.21c1.18-.29,2.31,1.13,2.28,2.91A17.67,17.67,0,0,1,193,65.3Z"/><path class="cls-3" d="M174.33,64.47a11.62,11.62,0,0,0,9,4.88,15.19,15.19,0,0,0-3.13-12,10.27,10.27,0,0,0-7.45-3.77,2.08,2.08,0,0,0-1.92,2.53A17.49,17.49,0,0,0,174.33,64.47Z"/><path class="cls-3" d="M189.91,86.51c-3.36,2.85-7.12,3.26-10.23,2a22.28,22.28,0,0,1,6.12-11,12.07,12.07,0,0,1,7.83-3.63c1.21,0,2,1.54,1.66,3.25A17.28,17.28,0,0,1,189.91,86.51Z"/><path class="cls-3" d="M171.78,82a11.65,11.65,0,0,0,7.9,6.51A14.84,14.84,0,0,0,179,76.35a10.29,10.29,0,0,0-6.56-5.09,2.06,2.06,0,0,0-2.38,2A16.94,16.94,0,0,0,171.78,82Z"/><path class="cls-3" d="M182.79,106.51c-3.85,2.12-7.61,1.79-10.42,0a22,22,0,0,1,8.12-9.54,12,12,0,0,1,8.38-2c1.2.2,1.7,1.89,1,3.48A17.2,17.2,0,0,1,182.79,106.51Z"/><path class="cls-3" d="M165.88,98.56a11.76,11.76,0,0,0,6.49,7.91,14.68,14.68,0,0,0,1.63-12,10.3,10.3,0,0,0-5.44-6.24,2,2,0,0,0-2.73,1.52A17,17,0,0,0,165.88,98.56Z"/><path class="cls-3" d="M171.93,124.71a9.81,9.81,0,0,1-10.21-2,22,22,0,0,1,9.83-7.8,12,12,0,0,1,8.59-.3c1.13.43,1.31,2.19.31,3.6A17.15,17.15,0,0,1,171.93,124.71Z"/><path class="cls-3" d="M156.91,113.62a11.73,11.73,0,0,0,4.81,9,14.78,14.78,0,0,0,3.95-11.49,10.31,10.31,0,0,0-4.13-7.18,2,2,0,0,0-3,1A16.82,16.82,0,0,0,156.91,113.62Z"/><path class="cls-3" d="M157.65,140.54c-4.4.52-7.76-1.21-9.65-4a22.36,22.36,0,0,1,11.25-5.79,12,12,0,0,1,8.5,1.36c1,.65.85,2.41-.41,3.61A17.38,17.38,0,0,1,157.65,140.54Z"/><path class="cls-3" d="M145.09,126.71c-.47,3.88.53,7.45,2.91,9.84A14.88,14.88,0,0,0,154.2,126a10.29,10.29,0,0,0-2.62-7.87,2.05,2.05,0,0,0-3.12.37A17.28,17.28,0,0,0,145.09,126.71Z"/><path class="cls-3" d="M140.25,153.42c-4.48-.34-7.47-2.7-8.75-5.79a23.27,23.27,0,0,1,12.39-3.56,12,12,0,0,1,8.13,3c.88.84.34,2.54-1.16,3.48A17.85,17.85,0,0,1,140.25,153.42Z"/><path class="cls-3" d="M130.7,137.36c-1.3,3.74-1.06,7.45.8,10.27a15.33,15.33,0,0,0,8.39-9.24,10.22,10.22,0,0,0-1-8.26,2.07,2.07,0,0,0-3.15-.24A17.87,17.87,0,0,0,130.7,137.36Z"/><path class="cls-5" d="M105.1,129.07h-2.45v-25l30.57,16.07a2.93,2.93,0,0,0,4.25-3.09L131,79.55a2.94,2.94,0,0,1,.85-2.59l27.23-26.55a2.92,2.92,0,0,0-1.62-5L119.86,40a2.93,2.93,0,0,1-2.2-1.6L100.82,4.24a2.86,2.86,0,0,0-2.68-1.62V169.88h20.15a3.64,3.64,0,0,0,3.64-3.64V145.9A16.82,16.82,0,0,0,105.1,129.07Z"/><text class="cls-6" transform="matrix(1.06, -0.02, 0.01, 1, 79.46, 94.42)">2</text><text class="cls-7" transform="matrix(1.06, -0.02, 0.01, 1, 79.46, 94.42)">2</text><text class="cls-8" transform="matrix(1.06, -0.02, 0.01, 1, 79.46, 94.42)">2</text></g></g></g></svg>