<?xml version="1.0" encoding="iso-8859-1"?>
<!-- Generator: Adobe Illustrator 19.0.0, SVG Export Plug-In . SVG Version: 6.00 Build 0)  -->
<svg version="1.1" id="Capa_1" xmlns="http://www.w3.org/2000/svg" xmlns:xlink="http://www.w3.org/1999/xlink" x="0px" y="0px"
	 viewBox="0 0 512 512" style="enable-background:new 0 0 512 512;" xml:space="preserve">
<circle style="fill:#D1E7F8;" cx="256" cy="256" r="248.5"/>
<path style="fill:#C2DFF6;" d="M128.457,221.729c0-91.217,49.158-170.941,122.418-214.164C115.999,10.295,7.5,120.471,7.5,256
	c0,137.243,111.257,248.5,248.5,248.5c46.025,0,89.118-12.528,126.083-34.336c-1.705,0.035-3.412,0.065-5.126,0.065
	C239.714,470.228,128.457,358.971,128.457,221.729z"/>
<path style="fill:#3535AA;" d="M192.887,330.437l-33.044-101.7c-1.358-4.179,0.13-8.757,3.685-11.34l86.511-62.854
	c3.555-2.583,8.369-2.583,11.924,0l86.511,62.854c3.555,2.583,5.042,7.161,3.685,11.34l-33.044,101.7
	c-1.358,4.179-5.252,7.009-9.646,7.009H202.533C198.139,337.446,194.244,334.616,192.887,330.437z"/>
<path style="fill:#2A2A93;" d="M230.939,275.47l-28.14-86.606l-39.272,28.533c-3.555,2.583-5.042,7.161-3.685,11.34l33.044,101.7
	c1.358,4.179,5.252,7.009,9.646,7.009h106.934c4.394,0,8.289-2.829,9.646-7.009l14.428-44.406h-88.066
	C238.854,286.031,232.985,281.768,230.939,275.47z"/>
<path style="fill:#3535AA;" d="M255.995,7.5c-35.582,0-69.409,7.494-100.012,20.965l94.053,68.321c3.555,2.583,8.369,2.583,11.924,0
	l94.146-68.277C325.477,15.01,291.615,7.5,255.995,7.5z"/>
<g>
	<path style="fill:#2A2A93;" d="M155.983,28.463l36.647,26.621c16.85-18.622,36.482-34.68,58.24-47.518
		C217.166,8.249,185.112,15.64,155.983,28.463z"/>
	<path style="fill:#2A2A93;" d="M55.967,108.587C25.513,149.834,7.5,200.827,7.5,256.032c0,15.253,1.382,30.182,4.013,44.676
		l86.169-74.129c3.334-2.863,4.445-7.547,2.752-11.603L55.967,108.587z"/>
	<path style="fill:#2A2A93;" d="M166.558,389.812c-1.334-4.187-5.212-7.039-9.606-7.064l-115.123-0.645
		c34.259,58.045,91.433,100.948,159.086,116.252L166.558,389.812z"/>
</g>
<g>
	<path style="fill:#3535AA;" d="M411.475,213.617c-1.692,4.055-0.581,8.739,2.753,11.602l86.486,74.191
		c2.485-14.099,3.787-28.606,3.787-43.417c0-55.482-18.188-106.712-48.919-148.066L411.475,213.617z"/>
	<path style="fill:#3535AA;" d="M313.041,497.908c66.796-15.686,123.194-58.321,157.119-115.805l-113.079,0.651
		c-4.394,0.025-8.272,2.877-9.606,7.064L313.041,497.908z"/>
</g>
<path style="fill:#2A2A93;" d="M376.957,470.228c-18.287,0-36.106-1.994-53.268-5.742l-10.647,33.422
	c24.627-5.783,47.835-15.241,69.03-27.745C380.369,470.198,378.667,470.228,376.957,470.228z"/>
<path d="M490.514,153.182c-13.771-31.365-33.408-59.272-58.366-82.946c-3.003-2.85-7.751-2.726-10.603,0.28
	c-2.851,3.005-2.726,7.752,0.28,10.603c9.196,8.723,17.605,18.029,25.2,27.835l-42.472,101.775c-0.136,0.325-0.25,0.655-0.365,0.984
	l-46.76,4.47c-1.171-1.85-92.926-68.92-93.914-69.387l0.014-42.269c0.981-0.465,93.488-67.413,93.488-67.413
	c13.486,6.242,26.453,13.76,38.751,22.53c3.374,2.406,8.056,1.619,10.461-1.752c2.405-3.373,1.62-8.056-1.752-10.461
	C360.963,16.401,309.621,0,256,0C187.62,0,123.333,26.629,74.98,74.98C26.629,123.333,0,187.62,0,256s26.629,132.667,74.98,181.02
	C123.333,485.371,187.62,512,256,512s132.668-26.629,181.02-74.98C485.371,388.667,512,324.38,512,256
	C512,220.249,504.771,185.656,490.514,153.182z M418.396,216.506l38.907-93.233C483.154,162.239,497,207.904,497,256
	c0,9.765-0.599,19.392-1.734,28.856l-76.153-65.328C418.242,218.78,417.954,217.566,418.396,216.506z M465.716,374.629
	c0,0-111.068,0.774-112.216,1.014l-28.915-39.25c0.677-1.129,34.7-105.32,34.7-105.32l46.435-4.439
	c0.954,1.577,2.167,3.025,3.625,4.277l83.181,71.356C487.484,328.09,478.311,352.45,465.716,374.629z M340.819,30.33l-83.267,60.388
	c-0.93,0.676-2.178,0.675-3.108,0L171.352,30.36C197.702,20.442,226.225,15,256,15C285.343,15,313.955,20.226,340.819,30.33z
	 M155.163,37.14c0,0,92.361,66.942,93.364,67.413l-0.014,42.23c-0.997,0.469-93.229,68.066-94.451,70.267l-46.162-3.455
	c-0.16-0.508-43.316-103.839-43.316-103.839C88.313,78.771,119.376,53.694,155.163,37.14z M158.226,375.305
	c-0.408-0.031-111.942-0.676-111.942-0.676c-12.388-21.814-21.472-45.736-26.565-71.086c0,0,85.247-73.673,86.148-75.057
	l47.153,3.529c0,0,33.641,103.068,34.252,104.126L158.226,375.305z M54.353,124.175l39.16,93.692
	c0.442,1.06,0.154,2.274-0.722,3.027l-75.904,65.299C15.645,276.299,15,266.224,15,256C15,207.377,29.488,162.081,54.353,124.175z
	 M55.575,389.681l101.334,0.568c1.148,0.006,2.154,0.746,2.499,1.827l30.273,95.642C134.24,471.827,86.925,436.528,55.575,389.681z
	 M206.749,491.933c0,0-34.399-107.716-35.396-109.146L199.6,344.7c0.957,0.16,16.4,0.246,16.4,0.246c4.142,0,7.5-3.358,7.5-7.5
	s-3.358-7.5-7.5-7.5h-13.467c-1.148,0-2.159-0.734-2.514-1.826l-33.044-101.701c-0.355-1.092,0.031-2.28,0.96-2.955l86.511-62.854
	c0.93-0.675,2.178-0.675,3.107,0l86.511,62.854c0.93,0.675,1.315,1.863,0.961,2.955L311.98,328.121
	c-0.354,1.092-1.365,1.825-2.514,1.825h-60.134c-4.142,0-7.5,3.358-7.5,7.5s3.358,7.5,7.5,7.5c0,0,61.909-0.073,62.773-0.202
	l29.424,39.941c-0.474,0.905-34.322,106.821-34.322,106.821C290.699,495.093,273.569,497,256,497
	C239.126,497,222.654,495.249,206.749,491.933z M324.352,487.111l30.27-95.016c0.349-1.094,1.354-1.834,2.502-1.84l99.299-0.572
	C425.459,435.954,378.913,470.946,324.352,487.111z"/>
<g>
</g>
<g>
</g>
<g>
</g>
<g>
</g>
<g>
</g>
<g>
</g>
<g>
</g>
<g>
</g>
<g>
</g>
<g>
</g>
<g>
</g>
<g>
</g>
<g>
</g>
<g>
</g>
<g>
</g>
</svg>
