<svg height="512pt" viewBox="-65 0 512 512.00024" width="512pt" xmlns="http://www.w3.org/2000/svg"><path d="m381.832031 173.558594h-87.476562c-4.273438 0-7.898438 3.144531-8.503907 7.378906-1.164062 7.695312-3.941406 15.058594-8.15625 21.605469-10.511718 15.363281-25.746093 26.878906-43.390624 32.804687-28.03125 10.179688-58.75 10.179688-86.777344 0-17.648438-5.925781-32.882813-17.441406-43.390625-32.804687-4.214844-6.546875-6.996094-13.910157-8.160157-21.605469-.601562-4.234375-4.226562-7.378906-8.503906-7.378906h-87.472656c0-27.59375 23.34375-52.414063 60.746094-69.855469h260.339844c37.402343 17.441406 60.746093 42.261719 60.746093 69.855469zm0 0" fill="#c03a2b"/><path d="m104.136719 60.746094v147.523437h-43.390625v-147.523437c0-4.792969 3.886718-8.679688 8.679687-8.679688h26.03125c4.792969 0 8.679688 3.886719 8.679688 8.679688zm0 0" fill="#f0c419"/><path d="m95.457031 60.746094v147.523437h-34.710937v-147.523437c-.421875-4.296875 2.65625-8.148438 6.941406-8.679688h20.828125c4.285156.53125 7.367187 4.382813 6.941406 8.679688zm0 0" fill="#f3d55b"/><path d="m321.085938 60.746094v147.523437h-43.390626v-147.523437c0-4.792969 3.886719-8.679688 8.675782-8.679688h26.035156c4.792969 0 8.679688 3.886719 8.679688 8.679688zm0 0" fill="#f0c419"/><path d="m312.40625 60.746094v147.523437h-34.710938v-147.523437c-.421874-4.296875 2.65625-8.148438 6.941407-8.679688h20.828125c4.285156.53125 7.367187 4.382813 6.941406 8.679688zm0 0" fill="#f3d55b"/><path d="m104.136719 237.253906v-193.863281c0-4.792969 3.882812-8.679687 8.675781-8.679687h26.035156c4.792969 0 8.679688 3.886718 8.679688 8.679687v226.667969" fill="#f0c419"/><path d="m104.136719 237.253906v-193.863281c-.425781-4.296875 2.65625-8.148437 6.941406-8.679687h20.828125c4.285156.53125 7.363281 4.382812 6.941406 8.679687v226.667969" fill="#f3d55b"/><path d="m190.914062 277.695312v-199.59375c0-4.792968 3.886719-8.679687 8.679688-8.679687h26.035156c4.792969 0 8.675782 3.886719 8.675782 8.679687v191.957032" fill="#f0c419"/><path d="m190.914062 277.695312v-199.59375c-.421874-4.296874 2.660157-8.148437 6.945313-8.679687h20.824219c4.285156.53125 7.367187 4.382813 6.945312 8.679687v191.957032" fill="#f3d55b"/><path d="m147.527344 270.058594v-261.378906c0-4.792969 3.882812-8.679688 8.675781-8.679688h26.035156c4.792969 0 8.675781 3.886719 8.675781 8.679688v269.015624" fill="#f0c419"/><path d="m147.527344 270.058594v-261.378906c-.425782-4.296876 2.65625-8.148438 6.941406-8.679688h20.828125c4.285156.53125 7.363281 4.382812 6.941406 8.679688v269.015624" fill="#f3d55b"/><path d="m234.304688 270.058594v-261.378906c0-4.792969 3.886718-8.679688 8.679687-8.679688h26.03125c4.792969 0 8.679687 3.886719 8.679687 8.679688v228.574218" fill="#f0c419"/><path d="m234.304688 270.058594v-261.378906c-.421876-4.296876 2.65625-8.148438 6.941406-8.679688h20.828125c4.285156.53125 7.367187 4.382812 6.941406 8.679688v228.574218" fill="#f3d55b"/><path d="m381.832031 173.558594-11.976562 78.101562-5.378907 34.710938-1.304687 8.679687-1.300781 8.679688-30.980469 200.894531c-.621094 4.257812-4.285156 7.40625-8.589844 7.375h-262.769531c-4.304688.03125-7.972656-3.117188-8.589844-7.375l-30.980468-200.894531-1.304688-8.679688-1.300781-8.679687-5.378907-34.710938-11.976562-78.101562h87.472656c4.277344 0 7.902344 3.144531 8.503906 7.378906 1.164063 7.695312 3.945313 15.058594 8.160157 21.605469 10.507812 15.363281 25.742187 26.878906 43.390625 32.804687 28.027344 10.179688 58.746094 10.179688 86.777344 0 17.644531-5.925781 32.878906-17.441406 43.390624-32.804687 4.214844-6.546875 6.992188-13.910157 8.15625-21.605469.605469-4.234375 4.230469-7.378906 8.503907-7.378906zm0 0" fill="#e64c3c"/><path d="m156.203125 312.40625c0 14.378906-11.65625 26.035156-26.035156 26.035156-14.375 0-26.03125-11.65625-26.03125-26.035156s11.65625-26.035156 26.03125-26.035156c14.378906 0 26.035156 11.65625 26.035156 26.035156zm0 0" fill="#2c2f38"/><path d="m138.847656 312.40625c0 4.792969-3.886718 8.679688-8.679687 8.679688s-8.675781-3.886719-8.675781-8.679688 3.882812-8.675781 8.675781-8.675781 8.679687 3.882812 8.679687 8.675781zm0 0" fill="#fff"/><path d="m277.695312 312.40625c0 14.378906-11.65625 26.035156-26.035156 26.035156s-26.03125-11.65625-26.03125-26.035156 11.652344-26.035156 26.03125-26.035156 26.035156 11.65625 26.035156 26.035156zm0 0" fill="#2c2f38"/><path d="m260.339844 312.40625c0 4.792969-3.886719 8.679688-8.679688 8.679688-4.792968 0-8.675781-3.886719-8.675781-8.679688s3.882813-8.675781 8.675781-8.675781c4.792969 0 8.679688 3.882812 8.679688 8.675781zm0 0" fill="#fff"/><g fill="#f0c419"><path d="m95.457031 260.339844c0 4.792968-3.882812 8.675781-8.675781 8.675781h-72.117188l-2.6875-17.355469h74.804688c4.792969 0 8.675781 3.886719 8.675781 8.679688zm0 0"/><path d="m86.78125 295.050781c0 4.792969-3.886719 8.679688-8.679688 8.679688h-58.140624l-1.304688-8.679688-1.300781-8.679687h60.746093c4.792969 0 8.679688 3.886718 8.679688 8.679687zm0 0"/><path d="m369.855469 251.660156-2.691407 17.355469h-72.113281c-4.792969 0-8.679687-3.882813-8.679687-8.675781 0-4.792969 3.886718-8.679688 8.679687-8.679688zm0 0"/><path d="m364.476562 286.371094-1.304687 8.679687-1.300781 8.679688h-58.140625c-4.792969 0-8.679688-3.886719-8.679688-8.679688s3.886719-8.679687 8.679688-8.679687zm0 0"/></g><path d="m242.984375 364.472656c4.792969 0 8.675781 3.886719 8.675781 8.679688v17.355468c0 33.550782-27.195312 60.746094-60.746094 60.746094-33.546874 0-60.746093-27.195312-60.746093-60.746094v-17.355468c0-4.792969 3.886719-8.679688 8.679687-8.679688zm0 0" fill="#2c2f38"/><path d="m246.542969 414.894531c-9.691407 22.078125-31.519531 36.335938-55.628907 36.335938-24.109374 0-45.9375-14.257813-55.625-36.335938 16.457032-10.894531 35.902344-16.382812 55.625-15.707031 19.726563-.675781 39.167969 4.8125 55.628907 15.707031zm0 0" fill="#c03a2b"/></svg>