<svg xmlns="http://www.w3.org/2000/svg" viewBox="0 0 204.65 125.25"><defs><style>.cls-1{fill:#fff;}</style></defs><title>Recurso 1</title><g id="Capa_2" data-name="Capa 2"><g id="Layer_1" data-name="Layer 1"><path class="cls-1" d="M55.68,106.82l-.18,0a.6.6,0,0,1-.41-.57V43.86a.59.59,0,0,1,.59-.59H98.09a.58.58,0,0,1,.59.59V82a.22.22,0,0,1,0,.08c-2,15.16-15.66,15.49-15.8,15.5-.47,0-.94,0-1.43,0-2.76,0-6,.31-6.07.31-14.49,2.22-19.16,8.69-19.21,8.75A.58.58,0,0,1,55.68,106.82Zm.59-62.37v60.24c2.12-2.09,7.64-6.31,19-8a66.85,66.85,0,0,1,7.67-.29c.48,0,12.69-.34,14.6-14.44V44.45Z"/><path class="cls-1" d="M52.65,107a.58.58,0,0,1-.48-.25h0c-.05-.07-4.78-6.54-19.25-8.75h0a68.41,68.41,0,0,0-7.42-.27c-.17,0-13.81-.32-15.84-15.5V44a.58.58,0,0,1,.58-.59H52.65a.59.59,0,0,1,.59.59v62.36a.6.6,0,0,1-.41.56A.57.57,0,0,1,52.65,107ZM26.83,96.48c2.83,0,6.2.31,6.23.32,11.35,1.73,16.88,5.94,19,8V44.6H10.83V82.11C12.72,96.18,25,96.5,25.48,96.51S26.35,96.48,26.83,96.48Z"/><path class="cls-1" d="M98.09,41.55H10.6A.58.58,0,0,1,10,41V.59A.58.58,0,0,1,10.6,0H98.09a.58.58,0,0,1,.59.59V41A.58.58,0,0,1,98.09,41.55ZM11.18,40.38H97.5V1.18H11.18Z"/><path class="cls-1" d="M92.21,109.33a.6.6,0,0,1-.36-.12.58.58,0,0,1-.22-.46v-.15l.06-5a.45.45,0,0,1,0-.23c0-.72-.13-1.14-.34-1.23a.2.2,0,0,0-.11,0l-.86.06h-.88c-.6,0-5.85-.07-6.42-1.71a.72.72,0,0,1,0-.19V100c0-.94,1.29-1.57,3.84-1.87l.1,0c11.63-1.28,17.94-11.23,18-11.33a.59.59,0,0,1,.74-.23.58.58,0,0,1,.33.69c-.1.37-2.44,8.93-4.83,11.48a42.27,42.27,0,0,0,6.52-1.43.58.58,0,0,1,.63.2.59.59,0,0,1,0,.67c-3.41,5.71-8.65,9.35-16,11.12Zm.63-6.14a.75.75,0,0,1,0,.2l-.06,4.6c6.11-1.6,10.62-4.6,13.74-9.11A28.55,28.55,0,0,1,101,99.94c-.29,0-1.06,0-1.29-.59s.31-1.11.49-1.28c1.3-1.23,2.75-5,3.73-8-2.78,3.2-8.41,8.28-16.78,9.24h-.09a6,6,0,0,0-2.89.79v0c.32.31,2.14.88,5.28.89h1l.6-.06h.1a1.39,1.39,0,0,1,.61.13A2.11,2.11,0,0,1,92.84,103.19Z"/><path class="cls-1" d="M83.77,110a.56.56,0,0,1-.3-.08.58.58,0,0,1-.28-.49L83,100.31a.6.6,0,0,1,.49-.59.59.59,0,0,1,.66.39c.2.29,2,.91,5.31.92h1l.6-.06h.1a1.39,1.39,0,0,1,.61.13,2.25,2.25,0,0,1,1,2.38.64.64,0,0,1-.13.33,25.93,25.93,0,0,1-8.56,6.12l-.1,0A.6.6,0,0,1,83.77,110Zm.44-8.56.14,7a24.16,24.16,0,0,0,7.32-5.3c0-.6-.16-1-.35-1a.2.2,0,0,0-.11,0l-.86.06h-.88A17.53,17.53,0,0,1,84.21,101.46Z"/><path class="cls-1" d="M16.18,109.45l-.14,0C8.69,107.66,3.47,104,.08,98.3a.61.61,0,0,1,0-.66.6.6,0,0,1,.64-.2,41.75,41.75,0,0,0,6.48,1.43C4.86,96.34,2.53,87.76,2.43,87.39a.59.59,0,0,1,.33-.7.6.6,0,0,1,.74.23C3.56,87,9.86,97,21.42,98.26l.11,0c2.54.3,3.82.93,3.82,1.86v.21a.6.6,0,0,1-.05.24c-.71,1.57-5.81,1.64-6.39,1.64l-1.09,0-.66-.06a.29.29,0,0,0-.11,0c-.19.08-.35.44-.34,1.07a.88.88,0,0,1,0,.16.64.64,0,0,1,0,.2v.49l.07,4.72a.59.59,0,0,1-.59.63ZM1.91,99c3.1,4.51,7.59,7.5,13.67,9.11l-.06-4.7a.43.43,0,0,1,0-.16,2.11,2.11,0,0,1,1-2.13,1.47,1.47,0,0,1,.64-.13l.69.06h1c3,0,4.79-.53,5.24-.86a6.38,6.38,0,0,0-2.85-.75.23.23,0,0,1-.11,0c-8.32-1-13.92-6-16.68-9.23,1,3,2.42,6.76,3.7,8,.18.18.73.7.5,1.29s-1,.59-1.29.59A29,29,0,0,1,1.91,99Z"/><path class="cls-1" d="M24.59,110a.58.58,0,0,1-.28-.07h0a.31.31,0,0,1-.13-.06,25.74,25.74,0,0,1-8.5-6.08.71.71,0,0,1-.13-.34,2.2,2.2,0,0,1,1-2.34,1.47,1.47,0,0,1,.64-.13l.69.06h1c3.26,0,5.09-.63,5.33-1a.56.56,0,0,1,.56-.37.59.59,0,0,1,.57.6l-.18,9.11a.58.58,0,0,1-.34.52A.7.7,0,0,1,24.59,110Zm-7.88-6.82a24.1,24.1,0,0,0,7.31,5.3l.14-7a17.51,17.51,0,0,1-5.25.75l-1.09,0-.66-.06a.29.29,0,0,0-.11,0C16.87,102.26,16.71,102.6,16.71,103.19Z"/><path class="cls-1" d="M54.35,125.25h-.3c-17.61,0-33-4.65-38.28-11.56a.6.6,0,0,1-.12-.36l-.13-9.93a.58.58,0,0,1,.32-.54.6.6,0,0,1,.62,0,1,1,0,0,1,.14.15,25,25,0,0,0,8.14,5.79l.11.05h0l-.07,0,.07,0c7.91,3.8,18.55,6,29.2,6h.3c10.64,0,21.27-2.18,29.17-6l.14-.06a24.59,24.59,0,0,0,8.13-5.79.65.65,0,0,1,.68-.2.59.59,0,0,1,.4.54l-.13,9.94a.6.6,0,0,1-.12.36C87.34,120.6,72,125.25,54.35,125.25ZM16.82,113.12c5.12,6.46,20.37,10.95,37.23,10.95h.3c16.86,0,32.11-4.49,37.22-10.95l.1-8.21a28.84,28.84,0,0,1-7.53,5l-.1,0C76,113.83,65.16,116,54.35,116h-.3c-10.82,0-21.65-2.21-29.71-6.08l0,0a.36.36,0,0,1-.14-.07,28.68,28.68,0,0,1-7.46-5Z"/><path class="cls-1" d="M105.91,29.28c0-.69-.06-1.38-.08-2.07.48,0,1,0,1.44.05s1,0,1.44,0,1,0,1.43,0,1,0,1.44-.05a2.38,2.38,0,0,0,0,1l-.94-.07-.9-.06-1-.06-1.35,0c0,.34,0,.68,0,1s0,.67,0,1.07v1.22c0,.4,0,.71,0,.91l1.27,0,1,0,.86,0,.75-.06a2.65,2.65,0,0,0,0,.5,2.61,2.61,0,0,0,0,.48l-1-.08c-.38,0-.75,0-1.12,0h-1l-.79,0c0,.1,0,.21,0,.32V36.7c0,.4,0,.71,0,.9h1.12c.42,0,.82,0,1.21,0s.76,0,1.11-.06a8.85,8.85,0,0,0,.91-.12.93.93,0,0,0,0,.24c0,.09,0,.19,0,.25a1.3,1.3,0,0,0,0,.43c-.48,0-1,0-1.44,0h-2.93l-1.46,0c0-.69,0-1.38.08-2.06s0-1.39,0-2.1V31.38C106,30.67,105.94,30,105.91,29.28Z"/><path class="cls-1" d="M114,36.81a2.46,2.46,0,0,0,.53.54,3,3,0,0,0,.73.4,2.75,2.75,0,0,0,.93.14,2.33,2.33,0,0,0,1-.18,2,2,0,0,0,.72-.5,2.25,2.25,0,0,0,.46-.74,2.54,2.54,0,0,0,.16-.92,1.77,1.77,0,0,0-.37-1.18,3.31,3.31,0,0,0-1-.72,12.25,12.25,0,0,0-1.21-.54,6,6,0,0,1-1.22-.6,3.24,3.24,0,0,1-1-.93,2.74,2.74,0,0,1-.38-1.52,2.92,2.92,0,0,1,.25-1.24,2.56,2.56,0,0,1,.7-1,3.39,3.39,0,0,1,1.1-.64,4.71,4.71,0,0,1,1.46-.22,4.1,4.1,0,0,1,1.33.19,3.08,3.08,0,0,1,1,.57,3.72,3.72,0,0,0-.24.58c-.06.21-.13.46-.19.78h-.2a2.89,2.89,0,0,0-.21-.49,1.8,1.8,0,0,0-.37-.5,2.21,2.21,0,0,0-.56-.38,1.86,1.86,0,0,0-.77-.15,2.47,2.47,0,0,0-.84.14,1.93,1.93,0,0,0-1.25,1.86,1.78,1.78,0,0,0,.38,1.2,3.2,3.2,0,0,0,1,.73,10.29,10.29,0,0,0,1.21.54,7.21,7.21,0,0,1,1.22.57,3.29,3.29,0,0,1,.94.88,2.41,2.41,0,0,1,.38,1.42,3.58,3.58,0,0,1-.27,1.41,3.11,3.11,0,0,1-.77,1.15,3.62,3.62,0,0,1-1.24.77,5.09,5.09,0,0,1-1.67.26,4.32,4.32,0,0,1-1.62-.26,4.61,4.61,0,0,1-1-.62,3.33,3.33,0,0,0,.2-.67c0-.19.07-.45.11-.77h.19A3.11,3.11,0,0,0,114,36.81Z"/><path class="cls-1" d="M130,37.94a4.28,4.28,0,0,1-.75.27,8.1,8.1,0,0,1-1,.22,6.15,6.15,0,0,1-1.15.1,7.33,7.33,0,0,1-2.35-.36,5,5,0,0,1-1.87-1.11,5.39,5.39,0,0,1-1.22-1.82,6.33,6.33,0,0,1-.44-2.45,6.26,6.26,0,0,1,.44-2.45,5,5,0,0,1,1.24-1.82,5.25,5.25,0,0,1,1.92-1.13,7.3,7.3,0,0,1,2.44-.39,7.92,7.92,0,0,1,1.95.22,10.55,10.55,0,0,1,1.56.52,1.94,1.94,0,0,0-.21.62c-.06.26-.1.47-.13.65l-.1,0a3.31,3.31,0,0,0-.46-.44,5.24,5.24,0,0,0-.67-.47,4.31,4.31,0,0,0-.87-.38,3.64,3.64,0,0,0-1.07-.15,5,5,0,0,0-1.76.3,3.9,3.9,0,0,0-1.42,1,4.51,4.51,0,0,0-1,1.62,8.32,8.32,0,0,0,0,4.64,4.6,4.6,0,0,0,1,1.62,3.76,3.76,0,0,0,1.42.94,4.83,4.83,0,0,0,1.76.31,4.09,4.09,0,0,0,1.08-.14,6.75,6.75,0,0,0,.9-.36,5.76,5.76,0,0,0,.74-.43c.22-.15.41-.3.56-.41l.06.06-.14.95A2,2,0,0,1,130,37.94Z"/><path class="cls-1" d="M141.22,28.92c0-.83,0-1.4-.07-1.71a1.88,1.88,0,0,0,.33.05,1.73,1.73,0,0,0,.32,0,1.91,1.91,0,0,0,.49-.08c0,.38-.07.82-.1,1.35s-.05,1.08-.08,1.68-.05,1.22-.07,1.84,0,1.25,0,1.84a6.1,6.1,0,0,1-.33,1.94,4.39,4.39,0,0,1-.9,1.46,3.64,3.64,0,0,1-1.43.9,5.72,5.72,0,0,1-1.94.31,4.79,4.79,0,0,1-3.52-1.1A4.78,4.78,0,0,1,132.79,34c0-.5,0-1,0-1.35s0-.79,0-1.2c0-.9,0-1.71,0-2.41s0-1.29-.06-1.78a2.68,2.68,0,0,0,.42.05l.42,0a1.87,1.87,0,0,0,.34,0,2.27,2.27,0,0,0,.35-.05c0,.23,0,.54-.06.93s-.05.82-.07,1.3,0,1,0,1.57,0,1.14,0,1.74c0,.37,0,.75,0,1.15a6.23,6.23,0,0,0,.11,1.15,5,5,0,0,0,.31,1.07,2.71,2.71,0,0,0,.62.88,3,3,0,0,0,1,.6,4.44,4.44,0,0,0,1.52.22,3.86,3.86,0,0,0,1.49-.26,2.86,2.86,0,0,0,1-.68,3.22,3.22,0,0,0,.6-1,4.89,4.89,0,0,0,.32-1.15,9.73,9.73,0,0,0,.11-1.2c0-.39,0-.76,0-1.09C141.24,30.93,141.23,29.75,141.22,28.92Z"/><path class="cls-1" d="M145.34,29.28c0-.69-.05-1.38-.09-2.07.49,0,1,0,1.45.05s1,0,1.44,0,1,0,1.43,0,1,0,1.44-.05a2.63,2.63,0,0,0,0,.49,2.59,2.59,0,0,0,0,.48l-.94-.07-.9-.06-1-.06-1.36,0c0,.34,0,.68,0,1s0,.67,0,1.07,0,.82,0,1.22,0,.71,0,.91l1.27,0,1,0,.87,0,.75-.06a2.65,2.65,0,0,0,0,.5,2.61,2.61,0,0,0,0,.48c-.28,0-.6-.06-1-.08s-.74,0-1.11,0H147.5l-.78,0c0,.1,0,.21,0,.32s0,.26,0,.43v1.6c0,.62,0,1.12,0,1.52s0,.71,0,.9h1.14c.4,0,.8,0,1.19,0s.77,0,1.12-.06a8.49,8.49,0,0,0,.91-.12,1.72,1.72,0,0,0,0,.24v.25a1.69,1.69,0,0,0,0,.43c-.48,0-1,0-1.45,0h-2.92l-1.47,0c0-.69.06-1.38.09-2.06s0-1.39,0-2.1V31.38C145.38,30.67,145.37,30,145.34,29.28Z"/><path class="cls-1" d="M153.4,29.3c0-.68-.05-1.38-.08-2.09a2.73,2.73,0,0,0,.4.05l.38,0a2.69,2.69,0,0,0,.4,0,3.12,3.12,0,0,0,.4-.05c0,.71-.06,1.41-.09,2.09s0,1.39,0,2.1c0,1.35,0,2.53,0,3.53s0,1.89,0,2.67c.76,0,1.49,0,2.19,0a21.14,21.14,0,0,0,2.26-.18,2.07,2.07,0,0,0-.09.48,1.72,1.72,0,0,0,.09.44c-.5,0-1,0-1.49,0h-3l-1.49,0c0-.67.06-1.35.08-2s0-1.39,0-2.1V31.4C153.45,30.69,153.43,30,153.4,29.3Z"/><path class="cls-1" d="M170.41,38.32l-.43,0h-.85l-.43,0c-.08-.25-.18-.54-.3-.9s-.28-.72-.43-1.1-.32-.77-.48-1.16-.31-.76-.45-1.12c-.34,0-.69,0-1,0h-2.06l-1,0c-.34.83-.66,1.64-.93,2.39s-.49,1.4-.63,1.89a5.74,5.74,0,0,0-.6,0,5.6,5.6,0,0,0-.6,0c.88-1.89,1.72-3.76,2.55-5.63s1.66-3.76,2.5-5.69h.3c.26.63.55,1.3.85,2s.61,1.47.91,2.21.63,1.47.94,2.21.61,1.42.88,2,.52,1.19.74,1.69S170.27,38.05,170.41,38.32Zm-7.14-5,.87,0h1.77l.9,0L165,29.18Z"/><path class="cls-1" d="M105.91,48.71c0-.69-.06-1.39-.08-2.1.25,0,.51,0,.77.06l.78,0,.47,0,.56,0,.54,0,.44,0,.59,0a5.16,5.16,0,0,1,.75.1,3.52,3.52,0,0,1,.78.24,2.1,2.1,0,0,1,.71.47,2.23,2.23,0,0,1,.5.77,2.74,2.74,0,0,1,.2,1.14,3,3,0,0,1-.46,1.73,3.36,3.36,0,0,1-1.13,1,4.56,4.56,0,0,1-1.42.51,8.61,8.61,0,0,1-1.33.13l-.68,0a4.4,4.4,0,0,1-.62,0v.9c0,.71,0,1.4,0,2.1s.06,1.37.09,2q-.36,0-.78,0c-.29,0-.55,0-.79,0,0-.66,0-1.34.08-2s0-1.39,0-2.1V50.81C106,50.09,105.94,49.39,105.91,48.71Zm2.51,3.43a5.31,5.31,0,0,0,1-.11,2.54,2.54,0,0,0,1-.41,2.27,2.27,0,0,0,.74-.82,3,3,0,0,0,.28-1.36,2.82,2.82,0,0,0-.2-1.13,1.61,1.61,0,0,0-.54-.68,2.11,2.11,0,0,0-.84-.32,5.63,5.63,0,0,0-1.13-.09h-1.45V52A4.69,4.69,0,0,0,108.42,52.14Z"/><path class="cls-1" d="M114.46,49.74a5,5,0,0,1,1.24-1.81,5.4,5.4,0,0,1,1.91-1.14,7.86,7.86,0,0,1,4.89,0,5.4,5.4,0,0,1,1.91,1.14,5.17,5.17,0,0,1,1.24,1.81,6.89,6.89,0,0,1,0,4.9,5,5,0,0,1-3.15,2.93,8.48,8.48,0,0,1-4.89,0,5.06,5.06,0,0,1-1.91-1.11,4.91,4.91,0,0,1-1.24-1.82,7,7,0,0,1,0-4.9Zm9.71.13a4.18,4.18,0,0,0-.94-1.61,3.67,3.67,0,0,0-1.42-.95,5.08,5.08,0,0,0-1.76-.3,5,5,0,0,0-1.75.3,3.6,3.6,0,0,0-1.42.95,4.31,4.31,0,0,0-.94,1.61,7.86,7.86,0,0,0,0,4.64,4.28,4.28,0,0,0,.94,1.62,3.6,3.6,0,0,0,1.42.95,5,5,0,0,0,1.75.3,5.08,5.08,0,0,0,1.76-.3,3.67,3.67,0,0,0,1.42-.95,4.15,4.15,0,0,0,.94-1.62,8.09,8.09,0,0,0,0-4.64Z"/><path class="cls-1" d="M128.31,48.71c0-.69-.05-1.39-.08-2.1a2.76,2.76,0,0,0,.4.06l.38,0,.39,0a2.76,2.76,0,0,0,.4-.06c0,.71-.06,1.41-.08,2.1s0,1.38,0,2.1c0,1.36,0,2.53,0,3.53s0,1.88,0,2.68c.77,0,1.5,0,2.2,0a21.51,21.51,0,0,0,2.26-.19,2.14,2.14,0,0,0-.08.49,1.59,1.59,0,0,0,.08.43c-.5,0-1,0-1.49,0h-3l-1.49,0c0-.66.06-1.34.08-2s0-1.39,0-2.1V50.81C128.35,50.09,128.34,49.39,128.31,48.71Z"/><path class="cls-1" d="M136.38,48.71q0-1-.09-2.1l.4.06a2.56,2.56,0,0,0,.39,0l.39,0,.4-.06q0,1.06-.09,2.1c0,.68,0,1.38,0,2.1v2.78c0,.71,0,1.4,0,2.1s.06,1.37.09,2c-.25,0-.51,0-.79,0s-.55,0-.79,0c0-.66.06-1.34.09-2s0-1.39,0-2.1V50.81C136.42,50.09,136.4,49.39,136.38,48.71Z"/><path class="cls-1" d="M143.09,47.46h-.88l-.91,0-.9,0-.76.08a1.68,1.68,0,0,0,.08-.51,2,2,0,0,0-.08-.51l2.08.06c.68,0,1.37,0,2.08,0s1.41,0,2.08,0l2.09-.06a2.16,2.16,0,0,0-.09.52,1.71,1.71,0,0,0,.09.5l-.77-.08-.89,0-.92,0h-.88c0,1.11,0,2.23,0,3.35v2.78c0,.71,0,1.4,0,2.1s.05,1.37.08,2c-.24,0-.51,0-.79,0s-.54,0-.79,0c0-.66.07-1.34.09-2s0-1.39,0-2.1V50.81C143.14,49.69,143.13,48.57,143.09,47.46Z"/><path class="cls-1" d="M149.83,48.68c0-.69-.06-1.37-.09-2.07l1.44.06c.48,0,1,0,1.45,0s1,0,1.43,0l1.44-.06a2.09,2.09,0,0,0-.05.49,1.91,1.91,0,0,0,.05.48l-.94-.06-.92-.06c-.31,0-.66-.05-1-.06s-.83,0-1.36,0c0,.34,0,.67,0,1s0,.67,0,1.07,0,.83,0,1.23v.9c.48,0,.9,0,1.28,0s.72,0,1,0l.87,0,.75-.06a2.07,2.07,0,0,0,0,.5,2,2,0,0,0,0,.49,8.63,8.63,0,0,0-1-.08l-1.11,0-1.06,0h-.78v.31c0,.11,0,.25,0,.43v1.6c0,.61,0,1.12,0,1.52s0,.7,0,.91h1.12q.61,0,1.2,0l1.12-.06a8.4,8.4,0,0,0,.9-.13,1.9,1.9,0,0,0,0,.25,2.46,2.46,0,0,0,0,.26,1.53,1.53,0,0,0,0,.41l-1.44,0H151.2l-1.46,0,.09-2.06c0-.68,0-1.38,0-2.09V50.79C149.86,50.08,149.85,49.37,149.83,48.68Zm4.74-5.61a.72.72,0,0,1,.36.13.46.46,0,0,1,.18.4.59.59,0,0,1-.19.45,3.4,3.4,0,0,1-.39.3l-2.38,1.52h-.67l2.37-2.41A1.08,1.08,0,0,1,154.57,43.07Z"/><path class="cls-1" d="M165.81,57.34a3.81,3.81,0,0,1-.75.28c-.31.08-.63.15-1,.22a6.84,6.84,0,0,1-1.14.09,7.15,7.15,0,0,1-2.35-.36,5,5,0,0,1-3.09-2.93,7,7,0,0,1,0-4.9,5,5,0,0,1,1.24-1.81,5.4,5.4,0,0,1,1.91-1.14,7.64,7.64,0,0,1,2.46-.39,7.43,7.43,0,0,1,1.94.23,7.93,7.93,0,0,1,1.56.52,2,2,0,0,0-.21.61c-.06.26-.1.48-.13.65l-.1,0a3.16,3.16,0,0,0-.45-.45,4.73,4.73,0,0,0-.68-.46,5.22,5.22,0,0,0-.86-.39,4.07,4.07,0,0,0-1.07-.14,5.1,5.1,0,0,0-1.77.3,3.67,3.67,0,0,0-1.42.95,4.31,4.31,0,0,0-.94,1.61,8.09,8.09,0,0,0,0,4.64,4.28,4.28,0,0,0,.94,1.62,3.67,3.67,0,0,0,1.42.95,5.1,5.1,0,0,0,1.77.3,3.69,3.69,0,0,0,1.07-.15,4.9,4.9,0,0,0,.91-.34,5.62,5.62,0,0,0,.73-.43l.56-.42.07.07-.15,1A2,2,0,0,1,165.81,57.34Z"/><path class="cls-1" d="M173.82,53.52,169.62,49c0,.31,0,.71,0,1.22s0,1.2,0,2.06v.85c0,.33,0,.68,0,1s0,.74,0,1.12,0,.73,0,1.06,0,.6,0,.84a3.68,3.68,0,0,0,0,.49,5,5,0,0,0-.56,0,5.47,5.47,0,0,0-.6,0,5.27,5.27,0,0,0,.07-.59c0-.29.05-.64.07-1s.05-.85.08-1.32l.06-1.42c0-.49,0-.94,0-1.4s0-.85,0-1.22c0-1,0-1.91,0-2.66s0-1.3,0-1.67h.26l2.1,2.29,2.22,2.41,2.1,2.25c.67.7,1.24,1.31,1.74,1.8V53c0-1.12,0-2.23,0-3.31s-.05-2.08-.1-3a2.08,2.08,0,0,0,.55.09,2,2,0,0,0,.51-.09c0,.25,0,.6-.07,1.08s0,1-.08,1.51-.06,1.07-.07,1.59,0,.93,0,1.24v1c0,.37,0,.75,0,1.15s0,.8,0,1.2,0,.79,0,1.14,0,.65,0,.91v.53h-.22Q175.91,55.79,173.82,53.52Z"/><path class="cls-1" d="M181.19,48.71c0-.69-.05-1.39-.08-2.1a2.76,2.76,0,0,0,.4.06l.38,0a2.56,2.56,0,0,0,.39,0,2.76,2.76,0,0,0,.4-.06c0,.71-.05,1.41-.08,2.1s0,1.38,0,2.1v2.78c0,.71,0,1.4,0,2.1s.06,1.37.08,2c-.24,0-.51,0-.79,0s-.54,0-.78,0c0-.66.06-1.34.08-2s0-1.39,0-2.1V50.81C181.23,50.09,181.22,49.39,181.19,48.71Z"/><path class="cls-1" d="M193.6,57.34a4.18,4.18,0,0,1-.76.28c-.3.08-.63.15-1,.22a7,7,0,0,1-1.14.09,7.21,7.21,0,0,1-2.36-.36,5,5,0,0,1-3.08-2.93,7,7,0,0,1,0-4.9,5,5,0,0,1,1.24-1.81,5.31,5.31,0,0,1,1.91-1.14,7.63,7.63,0,0,1,2.45-.39,7.45,7.45,0,0,1,1.95.23,7.93,7.93,0,0,1,1.56.52,2,2,0,0,0-.22.61c-.05.26-.1.48-.12.65l-.1,0a3.3,3.3,0,0,0-.46-.45,4.11,4.11,0,0,0-.67-.46,4.76,4.76,0,0,0-.88-.39,3.89,3.89,0,0,0-1.06-.14,5.14,5.14,0,0,0-1.77.3,3.74,3.74,0,0,0-1.42.95,4.3,4.3,0,0,0-.93,1.61,8.09,8.09,0,0,0,0,4.64,4.26,4.26,0,0,0,.93,1.62,3.74,3.74,0,0,0,1.42.95,5.14,5.14,0,0,0,1.77.3,3.59,3.59,0,0,0,1.07-.15,4.65,4.65,0,0,0,.91-.34,6.53,6.53,0,0,0,.74-.43c.22-.16.41-.3.55-.42l.08.07-.16,1A1.86,1.86,0,0,1,193.6,57.34Z"/><path class="cls-1" d="M204.65,57.72l-.43,0h-.85l-.43,0c-.08-.24-.18-.54-.31-.9s-.27-.71-.43-1.1l-.47-1.16c-.16-.39-.31-.76-.45-1.12l-1.05,0h-2l-1,0q-.52,1.26-.93,2.4c-.29.76-.49,1.39-.64,1.88a5.41,5.41,0,0,0-.59,0,5.47,5.47,0,0,0-.6,0c.87-1.88,1.72-3.76,2.55-5.62s1.66-3.76,2.5-5.7h.3c.27.63.54,1.31.84,2l.92,2.21c.32.74.63,1.49.94,2.21s.6,1.42.88,2,.52,1.2.74,1.69S204.51,57.47,204.65,57.72Zm-7.15-5,.88,0,.86,0h.91q.45,0,.9,0l-1.79-4.1Z"/><path class="cls-1" d="M111.08,72.94l-4.19-4.49c0,.3,0,.71,0,1.21s0,1.2,0,2.07c0,.23,0,.51,0,.84s0,.69,0,1.06,0,.73,0,1.11,0,.73,0,1.05,0,.61,0,.85,0,.41,0,.49a4.86,4.86,0,0,0-.56,0,5.28,5.28,0,0,0-.59,0c0-.1,0-.3.07-.6s0-.64.07-1,0-.85.07-1.32,0-1,.06-1.43,0-.93.05-1.39,0-.85,0-1.21c0-1,0-1.93,0-2.67s0-1.3,0-1.66h.26q1,1.05,2.1,2.28l2.23,2.41,2.1,2.25c.66.7,1.24,1.3,1.73,1.8V72.37c0-1.14,0-2.24,0-3.31s-.05-2.09-.11-3a2.07,2.07,0,0,0,.55.08,1.87,1.87,0,0,0,.51-.08c0,.24,0,.6-.07,1.07s0,1-.08,1.52,0,1.07-.07,1.59,0,.93,0,1.24v2.12c0,.4,0,.8,0,1.21s0,.78,0,1.12,0,.66,0,.92v.54H115C113.79,75.91,112.48,74.44,111.08,72.94Z"/><path class="cls-1" d="M127.11,77.13l-.43,0h-.85l-.43,0a8.91,8.91,0,0,0-.31-.9c-.12-.35-.27-.71-.42-1.1s-.32-.76-.48-1.16-.31-.76-.45-1.12l-1,0h-2l-1,0q-.52,1.26-.93,2.4c-.28.76-.5,1.39-.63,1.88a5.6,5.6,0,0,0-.6,0,5.74,5.74,0,0,0-.6,0c.87-1.88,1.72-3.76,2.55-5.62s1.66-3.77,2.5-5.69h.31c.26.62.54,1.29.83,2s.61,1.46.92,2.2.63,1.49.94,2.22.61,1.41.88,2,.52,1.2.74,1.69S127,76.87,127.11,77.13Zm-7.15-5c.29,0,.58,0,.87,0h1.78l.9,0L121.72,68Z"/><path class="cls-1" d="M136.36,76.75a5.88,5.88,0,0,1-.76.28c-.29.08-.63.15-1,.22a7,7,0,0,1-1.14.1,7.39,7.39,0,0,1-2.36-.37A4.84,4.84,0,0,1,128,74.05a6.09,6.09,0,0,1-.45-2.45,6.15,6.15,0,0,1,.45-2.45,5,5,0,0,1,1.23-1.82,5.44,5.44,0,0,1,1.91-1.13,7.42,7.42,0,0,1,2.46-.38,8.42,8.42,0,0,1,1.94.21,9.48,9.48,0,0,1,1.56.53,2.13,2.13,0,0,0-.22.61c0,.26-.09.48-.13.65l-.09,0a4.79,4.79,0,0,0-.45-.44,5.36,5.36,0,0,0-.68-.46,4.24,4.24,0,0,0-.87-.38,3.57,3.57,0,0,0-1.06-.16,4.84,4.84,0,0,0-1.77.31,3.68,3.68,0,0,0-1.42.94,4.6,4.6,0,0,0-.95,1.62,8.36,8.36,0,0,0,0,4.65,4.46,4.46,0,0,0,.95,1.61,3.7,3.7,0,0,0,1.42.95,5.06,5.06,0,0,0,1.77.3,4.07,4.07,0,0,0,1.07-.14,5.27,5.27,0,0,0,.9-.35,4.38,4.38,0,0,0,.74-.44l.56-.4.06.06-.14,1A2.2,2.2,0,0,1,136.36,76.75Z"/><path class="cls-1" d="M139.2,68.12c0-.68-.07-1.39-.09-2.1l.4.06a2.48,2.48,0,0,0,.39,0,2.42,2.42,0,0,0,.38,0l.41-.06c0,.71-.07,1.42-.09,2.1s0,1.38,0,2.1V73c0,.72,0,1.41,0,2.11s.06,1.37.09,2c-.24,0-.51,0-.79,0s-.55,0-.79,0c0-.66.06-1.34.09-2s0-1.39,0-2.11V70.22Q139.23,69.14,139.2,68.12Z"/><path class="cls-1" d="M143.26,69.15a5.17,5.17,0,0,1,1.24-1.82,5.44,5.44,0,0,1,1.91-1.13,8.06,8.06,0,0,1,4.89,0,5.44,5.44,0,0,1,1.91,1.13,5.3,5.3,0,0,1,1.24,1.82,6.52,6.52,0,0,1,.44,2.45,6.45,6.45,0,0,1-.44,2.45,5.25,5.25,0,0,1-1.24,1.83A5.1,5.1,0,0,1,151.3,77a8.26,8.26,0,0,1-4.89,0,4.92,4.92,0,0,1-3.15-2.93,6.26,6.26,0,0,1-.44-2.45A6.33,6.33,0,0,1,143.26,69.15Zm9.72.13a4.45,4.45,0,0,0-.95-1.62,3.72,3.72,0,0,0-1.41-.94,4.92,4.92,0,0,0-1.77-.31,4.81,4.81,0,0,0-1.75.31,3.76,3.76,0,0,0-1.42.94,4.44,4.44,0,0,0-.94,1.62,8.12,8.12,0,0,0,0,4.65,4.31,4.31,0,0,0,.94,1.61,3.78,3.78,0,0,0,1.42.95,5,5,0,0,0,1.75.3,5.14,5.14,0,0,0,1.77-.3,3.75,3.75,0,0,0,1.41-.95,4.33,4.33,0,0,0,.95-1.61,8.12,8.12,0,0,0,0-4.65Z"/><path class="cls-1" d="M162.29,72.94l-4.2-4.49c0,.3,0,.71,0,1.21s0,1.2,0,2.07c0,.23,0,.51,0,.84s0,.69,0,1.06,0,.73,0,1.11,0,.73,0,1.05,0,.61,0,.85a2.55,2.55,0,0,0,0,.49,5,5,0,0,0-.57,0,5.28,5.28,0,0,0-.59,0c0-.1,0-.3.07-.6s.05-.64.07-1,.05-.85.07-1.32,0-1,.07-1.43,0-.93,0-1.39,0-.85,0-1.21c0-1,0-1.93,0-2.67s0-1.3,0-1.66h.26l2.1,2.28c.74.82,1.49,1.62,2.22,2.41l2.1,2.25c.66.7,1.24,1.3,1.73,1.8V72.37c0-1.14,0-2.24,0-3.31s-.05-2.09-.11-3a2.07,2.07,0,0,0,.55.08,1.94,1.94,0,0,0,.52-.08c0,.24,0,.6-.07,1.07s0,1-.08,1.52-.06,1.07-.08,1.59,0,.93,0,1.24v1c0,.36,0,.74,0,1.14s0,.8,0,1.21,0,.78,0,1.12,0,.66,0,.92v.54h-.22Q164.38,75.19,162.29,72.94Z"/><path class="cls-1" d="M178.31,77.13a3.11,3.11,0,0,0-.43,0H177l-.43,0c-.08-.25-.17-.55-.3-.9s-.27-.71-.43-1.1-.31-.76-.48-1.16-.3-.76-.45-1.12l-1,0h-2.05l-1,0q-.51,1.26-.93,2.4c-.28.76-.5,1.39-.63,1.88a6,6,0,0,0-1.2,0c.88-1.88,1.73-3.76,2.55-5.62s1.66-3.77,2.51-5.69h.3c.26.62.54,1.29.84,2s.61,1.46.91,2.2.62,1.49.94,2.22.6,1.41.88,2,.52,1.2.74,1.69S178.18,76.87,178.31,77.13Zm-7.14-5c.28,0,.57,0,.87,0h1.78l.9,0L172.93,68Z"/><path class="cls-1" d="M180.12,68.12c0-.68-.05-1.39-.08-2.1l.4.06a2.48,2.48,0,0,0,.39,0,2.61,2.61,0,0,0,.39,0l.4-.06c0,.71-.06,1.42-.09,2.1s0,1.38,0,2.1c0,1.35,0,2.53,0,3.52s0,1.9,0,2.68l2.19,0a19,19,0,0,0,2.26-.19,2.15,2.15,0,0,0-.08.48,1.58,1.58,0,0,0,.08.44c-.5,0-1,0-1.49,0h-3l-1.49,0c0-.66.06-1.34.08-2s0-1.39,0-2.11V70.22C180.16,69.5,180.16,68.8,180.12,68.12Z"/><path class="cls-1" d="M48.82,87.81H13.89a.39.39,0,0,1-.39-.39v-2a.39.39,0,0,1,.39-.39H48.82a.39.39,0,0,1,.39.39v2A.39.39,0,0,1,48.82,87.81ZM14.28,87H48.43V85.85H14.28Z"/><path class="cls-1" d="M48.81,84.52a.4.4,0,0,1-.4-.38V82.7a1.67,1.67,0,0,1-1.61-.15,3.28,3.28,0,0,1-1.41-.28,25.57,25.57,0,0,0-6.68-1c-3.15,0-5.54.78-7.09,2.33a.44.44,0,0,1-.57,0c-1.55-1.55-3.94-2.33-7.09-2.33a25.3,25.3,0,0,0-6.7,1,3.23,3.23,0,0,1-1.39.27,1.89,1.89,0,0,1-1,.3h0a1.55,1.55,0,0,1-1.36-.91.45.45,0,0,1,0-.16V59.07a.39.39,0,0,1,.36-.4.41.41,0,0,1,.42.35c0,.23.37.49.87.49l.82,0h.54a18.16,18.16,0,0,1,6.75-1.29A18.52,18.52,0,0,1,31.34,60a18.52,18.52,0,0,1,8.08-1.82,18.15,18.15,0,0,1,6.74,1.29h.54l.9,0a.77.77,0,0,0,.82-.51.38.38,0,0,1,.41-.33.39.39,0,0,1,.37.39v25h0A.45.45,0,0,1,48.81,84.52ZM24,80.49c3.2,0,5.67.78,7.38,2.31,1.7-1.53,4.18-2.31,7.37-2.31a25.62,25.62,0,0,1,6.94,1,2.08,2.08,0,0,0,1.13.23.53.53,0,0,1,.33,0,1.24,1.24,0,0,0,.67.26.77.77,0,0,0,.63-.43V60.11a1.83,1.83,0,0,1-.82.18l-1,0h-.54a.4.4,0,0,1-.15,0,17.86,17.86,0,0,0-14.4.56.47.47,0,0,1-.4,0,17.89,17.89,0,0,0-14.41-.56.32.32,0,0,1-.14,0H16l-.88,0h0a2.1,2.1,0,0,1-.88-.19V81.68a.75.75,0,0,0,.61.39,1.27,1.27,0,0,0,.68-.26.38.38,0,0,1,.33,0H16a3,3,0,0,0,1-.23A25.56,25.56,0,0,1,24,80.49Z"/><path class="cls-1" d="M48.81,85.85H13.88a.39.39,0,0,1-.39-.4V81.76a.39.39,0,0,1,.75-.16h0a.8.8,0,0,0,.65.46,1.27,1.27,0,0,0,.68-.26.38.38,0,0,1,.33,0H16a3,3,0,0,0,1-.23,25.56,25.56,0,0,1,7-1.05c3.2,0,5.67.78,7.38,2.31,1.7-1.53,4.18-2.31,7.37-2.31a25.62,25.62,0,0,1,6.94,1,2.08,2.08,0,0,0,1.13.23.53.53,0,0,1,.33,0,1.24,1.24,0,0,0,.67.26.82.82,0,0,0,.66-.47.38.38,0,0,1,.43-.22.39.39,0,0,1,.31.38l0,3.69A.4.4,0,0,1,48.81,85.85Zm-34.54-.79H48.41V82.7a1.67,1.67,0,0,1-1.61-.15,3.28,3.28,0,0,1-1.41-.28,25.57,25.57,0,0,0-6.68-1c-3.15,0-5.54.78-7.09,2.33a.44.44,0,0,1-.57,0c-1.55-1.55-3.94-2.33-7.09-2.33a25.3,25.3,0,0,0-6.7,1,3.23,3.23,0,0,1-1.39.27,1.71,1.71,0,0,1-1.6.16Z"/><path class="cls-1" d="M42.19,20.73a.2.2,0,0,1-.11,0,.19.19,0,0,1-.08-.14,10.9,10.9,0,0,1-.08-5.47A.17.17,0,0,1,42,15a.19.19,0,0,1,.16,0c.62.08,1.24.12,1.89.14a.18.18,0,0,1,.19.18A18.58,18.58,0,0,0,45,19.72a.2.2,0,0,1,0,.15.22.22,0,0,1-.12.09l-2.63.77Zm.07-5.41a10.57,10.57,0,0,0,.07,5l2.25-.65a18.8,18.8,0,0,1-.74-4.21C43.3,15.42,42.78,15.38,42.26,15.32Z"/><path class="cls-1" d="M45.53,26.06h-.05a.12.12,0,0,1-.09-.05h0a12.18,12.18,0,0,1-1.85-2.12,11.45,11.45,0,0,1-.87-1.55l0-.05-.06-.14c-.08-.18-.17-.39-.25-.59a.2.2,0,0,1,0-.13.2.2,0,0,1,.13-.15l2.62-.76a.2.2,0,0,1,.24.13,18.75,18.75,0,0,0,2,3.9.21.21,0,0,1-.06.28A15.21,15.21,0,0,0,45.66,26,.21.21,0,0,1,45.53,26.06ZM42.77,21.6c0,.13.11.27.17.4l.06.13,0,.05a10.61,10.61,0,0,0,.84,1.49,12.1,12.1,0,0,0,1.67,1.94,14.26,14.26,0,0,1,1.3-1A19.82,19.82,0,0,1,45,21Z"/><path class="cls-1" d="M47.43,8l-.1.06a3.5,3.5,0,0,0,.49.29c0-.21,0-.43.09-.64l-.25.14A1.5,1.5,0,0,0,47.43,8Z"/><path class="cls-1" d="M47.82,8.5l-.09,0a3.86,3.86,0,0,1-.51-.31A.2.2,0,0,1,47.13,8a.19.19,0,0,1,.11-.16l.07,0,.26-.17.15-.08.09,0a.2.2,0,0,1,.21,0,.17.17,0,0,1,.08.19L48,8.32a.18.18,0,0,1-.1.15A.16.16,0,0,1,47.82,8.5Z"/><path class="cls-1" d="M51.76,8.69l-.09,0a.29.29,0,0,1-.1-.12l-.69-2.08a.18.18,0,0,1,0-.16A.22.22,0,0,1,51,6.22c.33-.08.65-.16,1-.22h.22a.18.18,0,0,1,.16,0,13.44,13.44,0,0,1,1.24,1.26.19.19,0,0,1,0,.27,4.86,4.86,0,0,1-1.77,1.12Zm-.44-2.14.56,1.68a4.53,4.53,0,0,0,1.31-.82,12.41,12.41,0,0,0-1-1h-.11C51.81,6.43,51.56,6.49,51.32,6.55Z"/><path class="cls-1" d="M50,9a4.82,4.82,0,0,1-1.29-.17.2.2,0,0,1-.15-.21,15.42,15.42,0,0,1,.24-1.55.17.17,0,0,1,.1-.13l.21-.11c.31-.12.62-.24.92-.34a.19.19,0,0,1,.15,0,.16.16,0,0,1,.1.11L51,8.68a.25.25,0,0,1,0,.17.19.19,0,0,1-.14.09A5.42,5.42,0,0,1,50,9ZM49,8.5a4.59,4.59,0,0,0,1,.12,3.59,3.59,0,0,0,.53,0L50,6.94l-.71.26-.09,0A11.56,11.56,0,0,0,49,8.5Z"/><path class="cls-1" d="M53.12,29.28H53a.4.4,0,0,1-.15,0,16.29,16.29,0,0,1-4.52-4.19.2.2,0,0,1,0-.15.19.19,0,0,1,.09-.14,27.21,27.21,0,0,1,2.67-1.41.21.21,0,0,1,.26.09,24.43,24.43,0,0,0,2.59,4,.2.2,0,0,1,0,.23,4.71,4.71,0,0,0-.62,1.45A.19.19,0,0,1,53.12,29.28ZM48.78,25A15.63,15.63,0,0,0,53,28.85a5.44,5.44,0,0,1,.54-1.26,24.67,24.67,0,0,1-2.46-3.81C50.28,24.15,49.51,24.55,48.78,25Z"/><path class="cls-1" d="M59.19,15.8a.19.19,0,0,1-.18-.13,31.66,31.66,0,0,0-1.42-3.38.16.16,0,0,1,0-.15.18.18,0,0,1,.1-.11,26.42,26.42,0,0,0,2.76-1.43.19.19,0,0,1,.26.06,18,18,0,0,1,2,3.92.16.16,0,0,1,0,.15.22.22,0,0,1-.12.11l-3.3.95ZM58,12.3a32,32,0,0,1,1.29,3.07l2.92-.85A17.83,17.83,0,0,0,60.48,11,26.82,26.82,0,0,1,58,12.3Z"/><path class="cls-1" d="M44,14.45h0c-.51,0-1,0-1.62-.1a.19.19,0,0,1-.14-.09.21.21,0,0,1,0-.17,11.76,11.76,0,0,1,2.13-3.73.2.2,0,0,1,.24,0,.21.21,0,0,1,.1.23,15.56,15.56,0,0,0-.49,3.72.2.2,0,0,1-.06.14A.19.19,0,0,1,44,14.45ZM42.66,14c.4,0,.78.06,1.14.07a16,16,0,0,1,.3-2.75A11.61,11.61,0,0,0,42.66,14Z"/><path class="cls-1" d="M45,14.45a.16.16,0,0,1-.13-.06.2.2,0,0,1-.06-.14,14.33,14.33,0,0,1,1.06-5.38l0-.07.33-.26.12-.09a.21.21,0,0,1,.24,0,5.63,5.63,0,0,0,1.22.72.18.18,0,0,1,.12.19c0,.32,0,.65,0,1A24.15,24.15,0,0,0,48.2,14a.17.17,0,0,1,0,.15.17.17,0,0,1-.13.07,25.47,25.47,0,0,1-3,.26ZM46.2,9.07a13.91,13.91,0,0,0-1,5c.83,0,1.7-.1,2.6-.22a24.84,24.84,0,0,1-.26-3.48c0-.3,0-.59,0-.88a4.92,4.92,0,0,1-1.07-.62h0A1.78,1.78,0,0,0,46.2,9.07Z"/><path class="cls-1" d="M58.45,28.63a.18.18,0,0,1-.18-.13l-.81-2.37a.25.25,0,0,1,0-.17.24.24,0,0,1,.13-.09,4.74,4.74,0,0,1,2.25,0,.18.18,0,0,1,.15.2,18.07,18.07,0,0,1-.26,1.94.21.21,0,0,1-.14.15l-.09,0-.07,0h0a9,9,0,0,1-.91.35Zm-.54-2.41.67,2,.71-.28,0,0h.06c.1-.54.18-1.07.23-1.62A4.22,4.22,0,0,0,57.91,26.22Z"/><path class="cls-1" d="M56.4,29.15a.2.2,0,0,1-.14-.06,15.58,15.58,0,0,1-1.4-1.42.2.2,0,0,1,0-.26,4.83,4.83,0,0,1,1.76-1.25.22.22,0,0,1,.16,0,.25.25,0,0,1,.11.12l.79,2.38a.2.2,0,0,1,0,.15.23.23,0,0,1-.12.1l-.22.05-.14,0-.57.11h-.05l-.11,0Zm-1.12-1.6a16.31,16.31,0,0,0,1.17,1.19l.09,0h.06l.5-.11a.8.8,0,0,1,.15,0l-.66-2A4.42,4.42,0,0,0,55.28,27.55Z"/><path class="cls-1" d="M50.71,28.86h-.05a12.62,12.62,0,0,1-4.49-2.19.21.21,0,0,1-.07-.15.18.18,0,0,1,.07-.15,12.34,12.34,0,0,1,1.39-1.05.18.18,0,0,1,.26.05,17.59,17.59,0,0,0,3,3.15.19.19,0,0,1,.06.24A.21.21,0,0,1,50.71,28.86Zm-4.1-2.36a12.18,12.18,0,0,0,3.26,1.7,16.89,16.89,0,0,1-2.25-2.46A11.1,11.1,0,0,0,46.61,26.5Z"/><path class="cls-1" d="M54.29,29.33h-.16a.21.21,0,0,1-.16-.08.26.26,0,0,1,0-.17,6.2,6.2,0,0,1,.32-.79.19.19,0,0,1,.15-.1.2.2,0,0,1,.18.06c.15.18.32.35.49.52l.18.19a.22.22,0,0,1,.05.21.21.21,0,0,1-.17.12l-.85,0Zm.2-.6a1.67,1.67,0,0,0-.08.2h.27Z"/><path class="cls-1" d="M55.87,21a.19.19,0,0,1-.18-.13l-1-2.89a.23.23,0,0,1,0-.16.17.17,0,0,1,.11-.09l3.65-1.07a.22.22,0,0,1,.25.13c.34,1.09.61,2.16.82,3.18a.17.17,0,0,1,0,.15.15.15,0,0,1-.12.08c-1.08.19-2.25.45-3.48.79ZM55.16,18,56,20.52c1.11-.3,2.16-.54,3.14-.71-.18-.89-.42-1.82-.71-2.76Z"/><path class="cls-1" d="M57.34,25.32a.2.2,0,0,1-.19-.14L56,21.76a.16.16,0,0,1,0-.15.2.2,0,0,1,.12-.1c1.09-.3,2.23-.56,3.38-.77a.28.28,0,0,1,.15,0,.2.2,0,0,1,.08.13,24.56,24.56,0,0,1,.32,3.8c0,.07,0,.14,0,.2v.18a.23.23,0,0,1-.07.15.21.21,0,0,1-.17,0,5.64,5.64,0,0,0-2.45,0Zm-.9-3.49,1,3.07a5.88,5.88,0,0,1,2.2,0s0-.09,0-.14a23.54,23.54,0,0,0-.29-3.54C58.39,21.35,57.4,21.57,56.44,21.83Z"/><path class="cls-1" d="M54.39,27h0a.21.21,0,0,1-.15-.07,24.88,24.88,0,0,1-2.36-3.68.22.22,0,0,1,0-.16A.2.2,0,0,1,52,23c1-.43,2.11-.82,3.21-1.16a.2.2,0,0,1,.25.12l1.15,3.44a.21.21,0,0,1-.11.25,5.33,5.33,0,0,0-1.94,1.31A.2.2,0,0,1,54.39,27Zm-2.07-3.74a23.44,23.44,0,0,0,2.09,3.25,5.67,5.67,0,0,1,1.74-1.17l-1-3.09C54.16,22.52,53.22,22.86,52.32,23.23Z"/><path class="cls-1" d="M51.61,22.46a.19.19,0,0,1-.18-.11c-.48-1-.91-2-1.29-3.08a.23.23,0,0,1,0-.16.2.2,0,0,1,.12-.1L53.9,18a.19.19,0,0,1,.24.13l1,2.9a.2.2,0,0,1,0,.15.18.18,0,0,1-.12.09,34.3,34.3,0,0,0-3.31,1.21Zm-1-3.13A28.51,28.51,0,0,0,51.7,22c.93-.39,1.93-.76,3-1.09l-.85-2.53Z"/><path class="cls-1" d="M47.93,24.32a.18.18,0,0,1-.16-.09A17.83,17.83,0,0,1,45.9,20.5a.16.16,0,0,1,0-.15.17.17,0,0,1,.12-.1l3.3-1a.2.2,0,0,1,.24.13,29.17,29.17,0,0,0,1.31,3.15.25.25,0,0,1,0,.15.2.2,0,0,1-.11.11A26.57,26.57,0,0,0,48,24.29.19.19,0,0,1,47.93,24.32Zm-1.59-3.76A17.45,17.45,0,0,0,48,23.85a27,27,0,0,1,2.45-1.29,29.92,29.92,0,0,1-1.18-2.84Z"/><path class="cls-1" d="M60.35,20a.2.2,0,0,1-.2-.16,31.74,31.74,0,0,0-.83-3.25.19.19,0,0,1,0-.15.23.23,0,0,1,.12-.1l3.3-1a.18.18,0,0,1,.24.13,17.43,17.43,0,0,1,.75,4,.19.19,0,0,1-.05.14.19.19,0,0,1-.14.07,26.8,26.8,0,0,0-3.18.28Zm-.6-3.33c.31,1,.56,2,.75,2.91,1-.13,1.9-.21,2.83-.25a16.69,16.69,0,0,0-.66-3.51Z"/><path class="cls-1" d="M62.45,26.54a.19.19,0,0,1-.13-.05,5.26,5.26,0,0,0-1.55-.92.2.2,0,0,1-.13-.19v-.15c0-.17,0-.34,0-.52a25.13,25.13,0,0,0-.33-3.9.21.21,0,0,1,0-.15.17.17,0,0,1,.13-.07,28.76,28.76,0,0,1,3.08-.27.21.21,0,0,1,.2.2.49.49,0,0,1,0,.11,14.67,14.67,0,0,1-1.16,5.79.24.24,0,0,1-.14.12ZM61,25.26a5.5,5.5,0,0,1,1.33.77,14.39,14.39,0,0,0,1-5.31c-.84,0-1.73.11-2.65.23a25.52,25.52,0,0,1,.3,3.76c0,.18,0,.36,0,.53Z"/><path class="cls-1" d="M45.77,19.69a.2.2,0,0,1-.19-.14,17,17,0,0,1-.76-4.3.17.17,0,0,1,0-.15A.22.22,0,0,1,45,15a26.76,26.76,0,0,0,3.13-.26.21.21,0,0,1,.22.16,32.28,32.28,0,0,0,.9,3.54.19.19,0,0,1,0,.15.23.23,0,0,1-.12.1l-3.3.95Zm-.55-4.26a17,17,0,0,0,.68,3.82l2.93-.85A29.11,29.11,0,0,1,48,15.19,27.92,27.92,0,0,1,45.22,15.43Z"/><path class="cls-1" d="M50,18.46a.21.21,0,0,1-.19-.13A30.43,30.43,0,0,1,49,14.86a.21.21,0,0,1,0-.15.2.2,0,0,1,.12-.08c1.11-.19,2.26-.44,3.43-.76a.2.2,0,0,1,.24.13l1.06,3.15a.29.29,0,0,1,0,.16.22.22,0,0,1-.12.09l-3.64,1.06ZM49.38,15a26.55,26.55,0,0,0,.77,3l3.25-.94-.94-2.78C51.41,14.58,50.38,14.81,49.38,15Z"/><path class="cls-1" d="M54.6,17.14a.19.19,0,0,1-.19-.14l-1.06-3.15a.19.19,0,0,1,0-.15.16.16,0,0,1,.11-.1c1.09-.33,2.21-.73,3.31-1.18a.2.2,0,0,1,.25.09,32.05,32.05,0,0,1,1.39,3.3.22.22,0,0,1,0,.16.23.23,0,0,1-.12.1l-3.65,1.06Zm-.81-3.22.93,2.78L58,15.75a30.8,30.8,0,0,0-1.22-2.9C55.77,13.26,54.77,13.61,53.79,13.92Z"/><path class="cls-1" d="M57.32,11.53a.18.18,0,0,1-.17-.11A25.54,25.54,0,0,0,54.6,7.54a.21.21,0,0,1,0-.24,5.51,5.51,0,0,0,.71-1.44.18.18,0,0,1,.11-.13.23.23,0,0,1,.18,0,16.17,16.17,0,0,1,4.52,4.09.23.23,0,0,1,0,.16.2.2,0,0,1-.09.13,26.3,26.3,0,0,1-2.66,1.38ZM55,7.41a24.9,24.9,0,0,1,2.4,3.66,25.22,25.22,0,0,0,2.27-1.16,15.78,15.78,0,0,0-4.07-3.7A5.18,5.18,0,0,1,55,7.41Z"/><path class="cls-1" d="M49,14.05a.16.16,0,0,1-.12,0,.22.22,0,0,1-.08-.13,23.75,23.75,0,0,1-.28-3.53c0-.12,0-.25,0-.37V9.66a.21.21,0,0,1,.08-.16.18.18,0,0,1,.16,0,5.39,5.39,0,0,0,2.34,0,.19.19,0,0,1,.22.13l1.15,3.44a.16.16,0,0,1,0,.15.19.19,0,0,1-.12.1,33.88,33.88,0,0,1-3.32.74ZM48.9,9.9V10c0,.11,0,.23,0,.35a24.46,24.46,0,0,0,.25,3.28c1-.18,1.94-.39,2.88-.64L51,9.91A5.85,5.85,0,0,1,48.9,9.9Z"/><path class="cls-1" d="M53.22,13.05a.19.19,0,0,1-.18-.13L51.89,9.49A.21.21,0,0,1,52,9.24,5.41,5.41,0,0,0,54,8a.2.2,0,0,1,.15,0,.21.21,0,0,1,.14.07,24,24,0,0,1,2.33,3.58.18.18,0,0,1,0,.16.15.15,0,0,1-.11.11A32.14,32.14,0,0,1,53.28,13Zm-.9-3.51,1,3.07c.93-.28,1.86-.62,2.78-1a24.2,24.2,0,0,0-2.06-3.16A5.78,5.78,0,0,1,52.32,9.54Z"/><path class="cls-1" d="M55.47,6h.15l-.12-.09A.41.41,0,0,0,55.47,6Z"/><path class="cls-1" d="M55.62,6.2h0c-.1,0-.23,0-.29-.09a.17.17,0,0,1,0-.18l0-.08a.25.25,0,0,1,.13-.12.21.21,0,0,1,.17,0l.07,0,0,0a.19.19,0,0,1,.08.23A.22.22,0,0,1,55.62,6.2Z"/><path class="cls-1" d="M60.62,27.84a.2.2,0,0,1-.11,0,.18.18,0,0,1-.08-.19c0-.39.11-.79.15-1.21a.2.2,0,0,1,.1-.15.19.19,0,0,1,.18,0,4.68,4.68,0,0,1,.94.59.17.17,0,0,1,.07.15.18.18,0,0,1-.08.16c-.35.24-.72.46-1.07.66A.18.18,0,0,1,60.62,27.84Zm.32-1.1c0,.18,0,.36-.07.54.16-.09.31-.19.46-.29A4.25,4.25,0,0,0,60.94,26.74Z"/><path class="cls-1" d="M58.45,28.63a.18.18,0,0,1-.18-.13l-.81-2.37a.25.25,0,0,1,0-.17.24.24,0,0,1,.13-.09,4.74,4.74,0,0,1,2.25,0,.18.18,0,0,1,.15.2,18.07,18.07,0,0,1-.26,1.94.21.21,0,0,1-.14.15l-.09,0-.07,0h0a9,9,0,0,1-.91.35Zm-.54-2.41.67,2,.71-.28,0,0h.06c.1-.54.18-1.07.23-1.62A4.22,4.22,0,0,0,57.91,26.22Z"/><path class="cls-1" d="M60.8,9.64a.21.21,0,0,1-.16-.08,16.77,16.77,0,0,0-2.82-3,.2.2,0,0,1,0-.24.2.2,0,0,1,.23-.1,13.45,13.45,0,0,1,4.21,2.07.21.21,0,0,1,.08.16.17.17,0,0,1-.07.15c-.47.38-.89.69-1.31,1Zm-2-2.7a16.58,16.58,0,0,1,2,2.24l.93-.68A12.37,12.37,0,0,0,58.8,6.94Z"/><path class="cls-1" d="M66.59,19.86h0a16.08,16.08,0,0,0-2-.14.19.19,0,0,1-.19-.18,18.43,18.43,0,0,0-.77-4.17.2.2,0,0,1,0-.15.18.18,0,0,1,.11-.1l2.61-.75a.17.17,0,0,1,.14,0,.19.19,0,0,1,.1.12,10.92,10.92,0,0,1,.24,5.2A.2.2,0,0,1,66.59,19.86Zm-1.88-.53c.61,0,1.17.05,1.72.11a10.71,10.71,0,0,0-.21-4.64L64,15.45A18.78,18.78,0,0,1,64.71,19.33Z"/><path class="cls-1" d="M57.32,11.53a.18.18,0,0,1-.17-.11A25.54,25.54,0,0,0,54.6,7.54a.21.21,0,0,1,0-.24,5,5,0,0,0,.68-1.37c0-.14.23-.14.37-.12l.08,0a16.18,16.18,0,0,1,4.39,4,.23.23,0,0,1,0,.16.2.2,0,0,1-.09.13,26.3,26.3,0,0,1-2.66,1.38ZM55,7.41a25.44,25.44,0,0,1,2.4,3.66,25.22,25.22,0,0,0,2.27-1.16A15.6,15.6,0,0,0,55.6,6.22,5.78,5.78,0,0,1,55,7.41Z"/><path class="cls-1" d="M54.29,29.33h-.16a.21.21,0,0,1-.16-.08.26.26,0,0,1,0-.17,6.2,6.2,0,0,1,.32-.79.19.19,0,0,1,.15-.1.2.2,0,0,1,.18.06c.15.18.32.35.49.52l.18.19a.22.22,0,0,1,.05.21.21.21,0,0,1-.17.12l-.85,0Zm.2-.6a1.67,1.67,0,0,0-.08.2h.27Z"/><path class="cls-1" d="M63.45,14.57a.18.18,0,0,1-.18-.13,19.36,19.36,0,0,0-2.06-4.09.15.15,0,0,1,0-.14.21.21,0,0,1,.09-.13A15.67,15.67,0,0,0,62.76,9,.18.18,0,0,1,63,9a11.63,11.63,0,0,1,3.21,4.57.22.22,0,0,1,0,.16.23.23,0,0,1-.12.1l-2.6.75ZM61.64,10.3a19.63,19.63,0,0,1,1.93,3.83l2.21-.64a11.4,11.4,0,0,0-2.9-4.11C62.47,9.71,62.06,10,61.64,10.3Z"/><path class="cls-1" d="M64,25.14a.17.17,0,0,1-.1,0,.18.18,0,0,1-.09-.22,15.65,15.65,0,0,0,.59-4.26.68.68,0,0,1,0-.12.2.2,0,0,1,.06-.14.15.15,0,0,1,.14-.06c.55,0,1.13.05,1.8.11a.19.19,0,0,1,.14.09.17.17,0,0,1,0,.17,11.56,11.56,0,0,1-2.42,4.39A.19.19,0,0,1,64,25.14Zm.79-4.43a15.63,15.63,0,0,1-.38,3.41,11.28,11.28,0,0,0,1.7-3.33C65.61,20.75,65.18,20.72,64.77,20.71Z"/><path class="cls-1" d="M47.91,7.66l-.25.14a1.5,1.5,0,0,0-.23.15l-.1.06a3.5,3.5,0,0,0,.49.29C47.84,8.09,47.87,7.87,47.91,7.66Z"/><path class="cls-1" d="M47.82,8.5l-.09,0a3.86,3.86,0,0,1-.51-.31A.2.2,0,0,1,47.13,8a.19.19,0,0,1,.11-.16l.07,0,.26-.17.15-.08.09,0a.2.2,0,0,1,.21,0,.17.17,0,0,1,.08.19L48,8.32a.18.18,0,0,1-.1.15A.16.16,0,0,1,47.82,8.5Z"/><path class="cls-1" d="M45,14.45a.16.16,0,0,1-.13-.06.2.2,0,0,1-.06-.14,14.33,14.33,0,0,1,1.06-5.38l0-.07.33-.26.12-.09a.21.21,0,0,1,.24,0,5.63,5.63,0,0,0,1.22.72.18.18,0,0,1,.12.19c0,.32,0,.65,0,1A24.15,24.15,0,0,0,48.2,14a.17.17,0,0,1,0,.15.17.17,0,0,1-.13.07,25.47,25.47,0,0,1-3,.26ZM46.2,9.07a13.91,13.91,0,0,0-1,5c.83,0,1.7-.1,2.6-.22a24.84,24.84,0,0,1-.26-3.48c0-.3,0-.59,0-.88a4.92,4.92,0,0,1-1.07-.62h0A1.78,1.78,0,0,0,46.2,9.07Z"/><path class="cls-1" d="M50,9a4.82,4.82,0,0,1-1.29-.17.2.2,0,0,1-.15-.21,15.42,15.42,0,0,1,.24-1.55.17.17,0,0,1,.1-.13l.21-.11c.31-.12.62-.24.92-.34a.19.19,0,0,1,.15,0,.16.16,0,0,1,.1.11L51,8.68a.25.25,0,0,1,0,.17.19.19,0,0,1-.14.09A5.42,5.42,0,0,1,50,9ZM49,8.5a4.59,4.59,0,0,0,1,.12,3.59,3.59,0,0,0,.53,0L50,6.94l-.71.26-.09,0A11.56,11.56,0,0,0,49,8.5Z"/><path class="cls-1" d="M51.76,8.69l-.09,0a.29.29,0,0,1-.1-.12l-.69-2.08a.18.18,0,0,1,0-.16A.22.22,0,0,1,51,6.22c.33-.08.65-.16,1-.22h.22a.18.18,0,0,1,.16,0,13.44,13.44,0,0,1,1.24,1.26.19.19,0,0,1,0,.27,4.86,4.86,0,0,1-1.77,1.12Zm-.44-2.14.56,1.68a4.53,4.53,0,0,0,1.31-.82,12.41,12.41,0,0,0-1-1h-.11C51.81,6.43,51.56,6.49,51.32,6.55Z"/><path class="cls-1" d="M44,14.45h0c-.51,0-1,0-1.62-.1a.19.19,0,0,1-.14-.09.21.21,0,0,1,0-.17,11.76,11.76,0,0,1,2.13-3.73.2.2,0,0,1,.24,0,.21.21,0,0,1,.1.23,15.56,15.56,0,0,0-.49,3.72.2.2,0,0,1-.06.14A.19.19,0,0,1,44,14.45ZM42.66,14c.4,0,.78.06,1.14.07a16,16,0,0,1,.3-2.75A11.61,11.61,0,0,0,42.66,14Z"/><path class="cls-1" d="M45.53,26.06h-.05a.12.12,0,0,1-.09-.05h0a12.18,12.18,0,0,1-1.85-2.12,11.45,11.45,0,0,1-.87-1.55l0-.05-.06-.14c-.08-.18-.17-.39-.25-.59a.2.2,0,0,1,0-.13.2.2,0,0,1,.13-.15l2.62-.76a.2.2,0,0,1,.24.13,18.75,18.75,0,0,0,2,3.9.21.21,0,0,1-.06.28A15.21,15.21,0,0,0,45.66,26,.21.21,0,0,1,45.53,26.06ZM42.77,21.6c0,.13.11.27.17.4l.06.13,0,.05a10.61,10.61,0,0,0,.84,1.49,12.1,12.1,0,0,0,1.67,1.94,14.26,14.26,0,0,1,1.3-1A19.82,19.82,0,0,1,45,21Z"/><path class="cls-1" d="M53.12,29.28H53a.4.4,0,0,1-.15,0,16.29,16.29,0,0,1-4.52-4.19.2.2,0,0,1,0-.15.19.19,0,0,1,.09-.14,27.21,27.21,0,0,1,2.67-1.41.21.21,0,0,1,.26.09,24.43,24.43,0,0,0,2.59,4,.2.2,0,0,1,0,.23,4.71,4.71,0,0,0-.62,1.45A.19.19,0,0,1,53.12,29.28ZM48.78,25A15.63,15.63,0,0,0,53,28.85a5.44,5.44,0,0,1,.54-1.26,24.67,24.67,0,0,1-2.46-3.81C50.28,24.15,49.51,24.55,48.78,25Z"/><path class="cls-1" d="M50.71,28.86h-.05a12.62,12.62,0,0,1-4.49-2.19.21.21,0,0,1-.07-.15.18.18,0,0,1,.07-.15,12.34,12.34,0,0,1,1.39-1.05.18.18,0,0,1,.26.05,17.59,17.59,0,0,0,3,3.15.19.19,0,0,1,.06.24A.21.21,0,0,1,50.71,28.86Zm-4.1-2.36a12.18,12.18,0,0,0,3.26,1.7,16.89,16.89,0,0,1-2.25-2.46A11.1,11.1,0,0,0,46.61,26.5Z"/><path class="cls-1" d="M42.19,20.73a.2.2,0,0,1-.11,0,.19.19,0,0,1-.08-.14,10.9,10.9,0,0,1-.08-5.47A.17.17,0,0,1,42,15a.19.19,0,0,1,.16,0c.62.08,1.24.12,1.89.14a.18.18,0,0,1,.19.18A18.58,18.58,0,0,0,45,19.72a.2.2,0,0,1,0,.15.22.22,0,0,1-.12.09l-2.63.77Zm.07-5.41a10.57,10.57,0,0,0,.07,5l2.25-.65a18.8,18.8,0,0,1-.74-4.21C43.3,15.42,42.78,15.38,42.26,15.32Z"/><path class="cls-1" d="M56.4,29.15a.2.2,0,0,1-.14-.06,15.58,15.58,0,0,1-1.4-1.42.2.2,0,0,1,0-.26,4.83,4.83,0,0,1,1.76-1.25.22.22,0,0,1,.16,0,.25.25,0,0,1,.11.12l.79,2.38a.2.2,0,0,1,0,.15.23.23,0,0,1-.12.1l-.22.05-.14,0-.57.11h-.05l-.11,0Zm-1.12-1.6a16.31,16.31,0,0,0,1.17,1.19l.09,0h.06l.5-.11a.8.8,0,0,1,.15,0l-.66-2A4.42,4.42,0,0,0,55.28,27.55Z"/><path class="cls-1" d="M62.45,26.54a.19.19,0,0,1-.13-.05,5.26,5.26,0,0,0-1.55-.92.2.2,0,0,1-.13-.19v-.15c0-.17,0-.34,0-.52a25.13,25.13,0,0,0-.33-3.9.21.21,0,0,1,0-.15.17.17,0,0,1,.13-.07,28.76,28.76,0,0,1,3.08-.27.21.21,0,0,1,.2.2.49.49,0,0,1,0,.11,14.67,14.67,0,0,1-1.16,5.79.24.24,0,0,1-.14.12ZM61,25.26a5.5,5.5,0,0,1,1.33.77,14.39,14.39,0,0,0,1-5.31c-.84,0-1.73.11-2.65.23a25.52,25.52,0,0,1,.3,3.76c0,.18,0,.36,0,.53Z"/><path class="cls-1" d="M55.87,21a.19.19,0,0,1-.18-.13l-1-2.89a.23.23,0,0,1,0-.16.17.17,0,0,1,.11-.09l3.65-1.07a.22.22,0,0,1,.25.13c.34,1.09.61,2.16.82,3.18a.17.17,0,0,1,0,.15.15.15,0,0,1-.12.08c-1.08.19-2.25.45-3.48.79ZM55.16,18,56,20.52c1.11-.3,2.16-.54,3.14-.71-.18-.89-.42-1.82-.71-2.76Z"/><path class="cls-1" d="M54.39,27h0a.21.21,0,0,1-.15-.07,24.88,24.88,0,0,1-2.36-3.68.22.22,0,0,1,0-.16A.2.2,0,0,1,52,23c1-.43,2.11-.82,3.21-1.16a.2.2,0,0,1,.25.12l1.15,3.44a.21.21,0,0,1-.11.25,5.33,5.33,0,0,0-1.94,1.31A.2.2,0,0,1,54.39,27Zm-2.07-3.74a23.44,23.44,0,0,0,2.09,3.25,5.67,5.67,0,0,1,1.74-1.17l-1-3.09C54.16,22.52,53.22,22.86,52.32,23.23Z"/><path class="cls-1" d="M60.35,20a.2.2,0,0,1-.2-.16,31.74,31.74,0,0,0-.83-3.25.19.19,0,0,1,0-.15.23.23,0,0,1,.12-.1l3.3-1a.18.18,0,0,1,.24.13,17.43,17.43,0,0,1,.75,4,.19.19,0,0,1-.05.14.19.19,0,0,1-.14.07,26.8,26.8,0,0,0-3.18.28Zm-.6-3.33c.31,1,.56,2,.75,2.91,1-.13,1.9-.21,2.83-.25a16.69,16.69,0,0,0-.66-3.51Z"/><path class="cls-1" d="M57.34,25.32a.2.2,0,0,1-.19-.14L56,21.76a.16.16,0,0,1,0-.15.2.2,0,0,1,.12-.1c1.09-.3,2.23-.56,3.38-.77a.28.28,0,0,1,.15,0,.2.2,0,0,1,.08.13,24.56,24.56,0,0,1,.32,3.8c0,.07,0,.14,0,.2v.18a.23.23,0,0,1-.07.15.21.21,0,0,1-.17,0,5.64,5.64,0,0,0-2.45,0Zm-.9-3.49,1,3.07a5.88,5.88,0,0,1,2.2,0s0-.09,0-.14a23.54,23.54,0,0,0-.29-3.54C58.39,21.35,57.4,21.57,56.44,21.83Z"/><path class="cls-1" d="M53.5,6c.2.2.39.4.59.62a4.79,4.79,0,0,0,.35-.72h-.71l0,.08Z"/><path class="cls-1" d="M54.09,6.83A.2.2,0,0,1,54,6.77l-.42-.44-.17-.18a.2.2,0,0,1,0-.2.2.2,0,0,1,.18-.12h.07a.19.19,0,0,1,.15-.08h.72a.21.21,0,0,1,.16.08.22.22,0,0,1,0,.18,4.36,4.36,0,0,1-.36.75.21.21,0,0,1-.15.09Z"/><path class="cls-1" d="M53.22,13.05a.19.19,0,0,1-.18-.13L51.89,9.49A.21.21,0,0,1,52,9.24,5.41,5.41,0,0,0,54,8a.2.2,0,0,1,.15,0,.21.21,0,0,1,.14.07,24,24,0,0,1,2.33,3.58.18.18,0,0,1,0,.16.15.15,0,0,1-.11.11A32.14,32.14,0,0,1,53.28,13Zm-.9-3.51,1,3.07c.93-.28,1.86-.62,2.78-1a24.2,24.2,0,0,0-2.06-3.16A5.78,5.78,0,0,1,52.32,9.54Z"/><path class="cls-1" d="M59.19,15.8a.19.19,0,0,1-.18-.13,31.66,31.66,0,0,0-1.42-3.38.16.16,0,0,1,0-.15.18.18,0,0,1,.1-.11,26.42,26.42,0,0,0,2.76-1.43.19.19,0,0,1,.26.06,18,18,0,0,1,2,3.92.16.16,0,0,1,0,.15.22.22,0,0,1-.12.11l-3.3.95ZM58,12.3a32,32,0,0,1,1.29,3.07l2.92-.85A17.83,17.83,0,0,0,60.48,11,26.82,26.82,0,0,1,58,12.3Z"/><path class="cls-1" d="M54.6,17.14a.19.19,0,0,1-.19-.14l-1.06-3.15a.19.19,0,0,1,0-.15.16.16,0,0,1,.11-.1c1.09-.33,2.21-.73,3.31-1.18a.2.2,0,0,1,.25.09,32.05,32.05,0,0,1,1.39,3.3.22.22,0,0,1,0,.16.23.23,0,0,1-.12.1l-3.65,1.06Zm-.81-3.22.93,2.78L58,15.75a30.8,30.8,0,0,0-1.22-2.9C55.77,13.26,54.77,13.61,53.79,13.92Z"/><path class="cls-1" d="M50,18.46a.21.21,0,0,1-.19-.13A30.43,30.43,0,0,1,49,14.86a.21.21,0,0,1,0-.15.2.2,0,0,1,.12-.08c1.11-.19,2.26-.44,3.43-.76a.2.2,0,0,1,.24.13l1.06,3.15a.29.29,0,0,1,0,.16.22.22,0,0,1-.12.09l-3.64,1.06ZM49.38,15a26.55,26.55,0,0,0,.77,3l3.25-.94-.94-2.78C51.41,14.58,50.38,14.81,49.38,15Z"/><path class="cls-1" d="M49,14.05a.16.16,0,0,1-.12,0,.22.22,0,0,1-.08-.13,23.75,23.75,0,0,1-.28-3.53c0-.12,0-.25,0-.37V9.66a.21.21,0,0,1,.08-.16.18.18,0,0,1,.16,0,5.39,5.39,0,0,0,2.34,0,.19.19,0,0,1,.22.13l1.15,3.44a.16.16,0,0,1,0,.15.19.19,0,0,1-.12.1,33.88,33.88,0,0,1-3.32.74ZM48.9,9.9V10c0,.11,0,.23,0,.35a24.46,24.46,0,0,0,.25,3.28c1-.18,1.94-.39,2.88-.64L51,9.91A5.85,5.85,0,0,1,48.9,9.9Z"/><path class="cls-1" d="M45.77,19.69a.2.2,0,0,1-.19-.14,17,17,0,0,1-.76-4.3.17.17,0,0,1,0-.15A.22.22,0,0,1,45,15a26.76,26.76,0,0,0,3.13-.26.21.21,0,0,1,.22.16,32.28,32.28,0,0,0,.9,3.54.19.19,0,0,1,0,.15.23.23,0,0,1-.12.1l-3.3.95Zm-.55-4.26a17,17,0,0,0,.68,3.82l2.93-.85A29.11,29.11,0,0,1,48,15.19,27.92,27.92,0,0,1,45.22,15.43Z"/><path class="cls-1" d="M51.61,22.46a.19.19,0,0,1-.18-.11c-.48-1-.91-2-1.29-3.08a.23.23,0,0,1,0-.16.2.2,0,0,1,.12-.1L53.9,18a.19.19,0,0,1,.24.13l1,2.9a.2.2,0,0,1,0,.15.18.18,0,0,1-.12.09,34.3,34.3,0,0,0-3.31,1.21Zm-1-3.13A28.51,28.51,0,0,0,51.7,22c.93-.39,1.93-.76,3-1.09l-.85-2.53Z"/><path class="cls-1" d="M47.93,24.32a.18.18,0,0,1-.16-.09A17.83,17.83,0,0,1,45.9,20.5a.16.16,0,0,1,0-.15.17.17,0,0,1,.12-.1l3.3-1a.2.2,0,0,1,.24.13,29.17,29.17,0,0,0,1.31,3.15.25.25,0,0,1,0,.15.2.2,0,0,1-.11.11A26.57,26.57,0,0,0,48,24.29.19.19,0,0,1,47.93,24.32Zm-1.59-3.76A17.45,17.45,0,0,0,48,23.85a27,27,0,0,1,2.45-1.29,29.92,29.92,0,0,1-1.18-2.84Z"/><path class="cls-1" d="M65.12,39.22h-22a.39.39,0,0,1-.39-.39v-3.3a.39.39,0,0,1,.39-.39h7.28V33.7a.39.39,0,0,1,.39-.4h1.54V30.87a14.36,14.36,0,0,1-10.31-6.1,12.53,12.53,0,0,1-1.89-9.86,13.53,13.53,0,0,1,6.48-8.68,15.32,15.32,0,0,1,6.7-2,.39.39,0,0,1,.41.28l.36,1.35,0,.08a.4.4,0,0,1-.05.32.42.42,0,0,1-.28.17l-.27,0-.24,0c-.32,0-.65.07-1,.13h-.13c-.39.07-.7.14-1,.22h0l-.87.26h0l-.87.32-.14.08-.13.06L49,7.57l-.33.16-.33.16L48,8.06l-.13.07-.22.14-.11.07-.11.07-.72.51L46.58,9l-.29.23a11.64,11.64,0,0,0-1.09,1c-.1.12-.2.23-.29.35l-.12.14a11.14,11.14,0,0,0-2,3.54.36.36,0,0,0,0,.09c-.08.25-.16.53-.23.82h0l0,.07a10.29,10.29,0,0,0,.09,5.14s0,.05,0,.08a5.91,5.91,0,0,0,.28.84v0h0l.24.58.05.12A11.7,11.7,0,0,0,44,23.56a11.08,11.08,0,0,0,1.74,2l.06.07.08.06.16.14.14.11.3.25a12.15,12.15,0,0,0,4.31,2.12l.6.15a14,14,0,0,0,1.58.24h.29c.26,0,.52,0,.78,0h.21l.82,0h.44l.8-.11h.1l.07,0h.08l.48-.1.17,0,.16,0h.11l.76-.24.09,0c.28-.1.58-.21.86-.33l0,0,.18-.07a.48.48,0,0,1,.37,0c.1,0,.22.12.25.23l.39,1.44a.39.39,0,0,1-.22.46,15,15,0,0,1-4.33,1.14V33.3h1.54a.4.4,0,0,1,.4.4v1.44h7.28a.4.4,0,0,1,.39.39v3.3A.4.4,0,0,1,65.12,39.22Zm-21.58-.78H64.72V35.93H57.44a.4.4,0,0,1-.39-.4V34.09H55.51a.39.39,0,0,1-.39-.39V30.52a.39.39,0,0,1,.36-.4,14.33,14.33,0,0,0,4.13-1l-.18-.66a8.53,8.53,0,0,1-.84.32l0,0c-.28.08-.55.17-.83.24a.58.58,0,0,1-.17.05l-.18,0-.13,0-.58.12h0l-.08,0h0a8.68,8.68,0,0,1-.88.12l-.15,0h-.28c-.34,0-.63,0-.91,0H54c-.27,0-.55,0-.82-.05h-.13l-.13,0a13.33,13.33,0,0,1-1.73-.26L50.61,29a12.87,12.87,0,0,1-4.55-2.22l0,0-.33-.27-.15-.12a.68.68,0,0,0-.13-.12l-.14-.12h0A12.25,12.25,0,0,1,43.37,24a11.74,11.74,0,0,1-.88-1.57l-.09-.21c-.08-.17-.17-.38-.25-.59v0c-.13-.35-.23-.63-.3-.89a.18.18,0,0,1,0-.14A11.17,11.17,0,0,1,41.72,15c.09-.34.18-.65.28-.95a11.82,11.82,0,0,1,2.19-3.85l.11-.14c.11-.13.21-.26.33-.38a11.78,11.78,0,0,1,1.16-1.08l.33-.26.11-.08c.26-.2.52-.38.79-.55a.42.42,0,0,1,.14-.09l.31-.21c.05,0,.1-.06.16-.08l.26-.14L48.3,7l.3-.14.08,0,.18-.08.2-.1c.31-.13.62-.24.93-.35h0c.31-.11.62-.2.93-.28h0c.32-.08.63-.15,1-.21l.15,0c.42-.06.77-.11,1.12-.14h0L53.07,5a14.58,14.58,0,0,0-6,1.92,12.75,12.75,0,0,0-6.11,8.17,11.71,11.71,0,0,0,1.77,9.25,13.59,13.59,0,0,0,10.09,5.79.4.4,0,0,1,.36.4V33.7a.4.4,0,0,1-.39.39H51.21v1.44a.39.39,0,0,1-.39.4H43.54Z"/><path class="cls-1" d="M54.05,29.33h0c-.26,0-.54,0-.81,0h-.12l-.08,0h-.09A15.55,15.55,0,0,1,51.27,29l-.61-.15-.07,0a17.3,17.3,0,0,1-3-3.08,12.27,12.27,0,0,0-1.2.92.21.21,0,0,1-.2,0l-.07-.05-.33-.27-.15-.12a.75.75,0,0,0-.14-.12L45.4,26l0-.06a.21.21,0,0,1,0-.25c.52-.43,1-.79,1.43-1.1A19.82,19.82,0,0,1,45,21l-2.45.71a.19.19,0,0,1-.23-.12,8.91,8.91,0,0,1-.31-.9.17.17,0,0,1,0-.17.19.19,0,0,1,.14-.12l2.44-.71a18.8,18.8,0,0,1-.74-4.21,16.55,16.55,0,0,1-1.75-.13.19.19,0,0,1-.14-.09.2.2,0,0,1,0-.15c.08-.32.17-.63.27-.91l.18.06-.16-.11a.16.16,0,0,1,.2-.14c.5,0,1,.08,1.39.09a16.35,16.35,0,0,1,.5-3.61l0-.08.11-.13c.11-.13.21-.26.32-.38a11.25,11.25,0,0,1,1.14-1,.2.2,0,0,1,.24,0,.21.21,0,0,1,.07.23,13.77,13.77,0,0,0-1,5c.83,0,1.7-.1,2.6-.22a24.84,24.84,0,0,1-.26-3.48c0-.3,0-.59,0-.88a6,6,0,0,1-1.19-.7.22.22,0,0,1,0-.32c.25-.19.51-.36.78-.54l.07,0a.2.2,0,0,1,.24,0l.22.14.06-.36a.23.23,0,0,1,.1-.15A.8.8,0,0,0,48,7.4l.05,0,.35-.17L48.74,7l.09,0,.11,0a.19.19,0,0,1,.2,0,.23.23,0,0,1,.07.19c-.1.46-.17.91-.22,1.34a4.59,4.59,0,0,0,1,.12,3.59,3.59,0,0,0,.53,0l-.61-1.83a.22.22,0,0,1,0-.18L50,6.52l0,0c.31-.11.62-.2.94-.28a.2.2,0,0,1,.24.13l.63,1.88a4.53,4.53,0,0,0,1.31-.82,13.9,13.9,0,0,0-1.08-1.09.19.19,0,0,1,.1-.34c.33-.06.67-.1,1-.14h.19a.27.27,0,0,1,.21.06l.16.17.24.25a2.77,2.77,0,0,0,.2-.46.21.21,0,0,1,.19-.12c.32,0,.66,0,1.05.06l.07,0h.08A14.27,14.27,0,0,1,58,6.26l.07,0a17.53,17.53,0,0,1,2.77,2.88c.37-.25.73-.52,1.13-.84a.18.18,0,0,1,.24,0A10.16,10.16,0,0,1,63,9a.2.2,0,0,1,.07.15.19.19,0,0,1-.07.14,16.34,16.34,0,0,1-1.37,1,19.63,19.63,0,0,1,1.93,3.83l2.42-.7a.21.21,0,0,1,.24.12l.06.17a2.19,2.19,0,0,1,.12.33c0,.1.06.2.09.3s0,.1,0,.15a.19.19,0,0,1-.14.24L64,15.45a18.78,18.78,0,0,1,.72,3.88c.68,0,1.3.06,1.9.13a.24.24,0,0,1,.14.09.24.24,0,0,1,0,.15c-.07.35-.15.67-.24,1a.2.2,0,0,1-.21.13c-.57,0-1.08-.09-1.56-.1A15.5,15.5,0,0,1,64.16,25a.13.13,0,0,1,0,.07,12.15,12.15,0,0,1-2.33,2.09.19.19,0,0,1-.23,0,6.19,6.19,0,0,0-.62-.42c0,.32-.08.63-.13.94a.17.17,0,0,1-.09.14c-.24.13-.56.3-.91.46a.17.17,0,0,1-.17,0,.24.24,0,0,1-.08-.09.2.2,0,0,1-.11,0,.2.2,0,0,1-.09-.19,16.57,16.57,0,0,0,.25-1.72,4.22,4.22,0,0,0-1.7,0l.72,2.15a.19.19,0,0,1,0,.18l0,.05-.06,0c-.27.09-.54.17-.82.24a.42.42,0,0,1-.15,0,.2.2,0,0,1-.21-.13l-.73-2.17a4.42,4.42,0,0,0-1.31.94,16.21,16.21,0,0,0,1.24,1.25.19.19,0,0,1,.06.2.18.18,0,0,1-.16.14c-.27.05-.53.08-.8.11l-.14,0h-.35a.18.18,0,0,1-.15-.06l-.18-.18-.31-.32c-.06.15-.12.3-.17.46a.2.2,0,0,1-.19.14Zm-.68-.42c.21,0,.41,0,.62,0a4.67,4.67,0,0,1,.27-.65.19.19,0,0,1,.15-.1.2.2,0,0,1,.18.06c.15.18.32.35.49.52l.12.12h.26l.1,0,.4-.05a14.67,14.67,0,0,1-1.1-1.14.2.2,0,0,1,0-.26,4.83,4.83,0,0,1,1.76-1.25.22.22,0,0,1,.16,0,.25.25,0,0,1,.11.12l.73,2.2.57-.17-.74-2.18a.25.25,0,0,1,0-.17.24.24,0,0,1,.13-.09,4.74,4.74,0,0,1,2.25,0,.18.18,0,0,1,.15.2,15.73,15.73,0,0,1-.21,1.68l.05,0c.22-.11.42-.21.59-.31.05-.36.1-.73.14-1.11a.2.2,0,0,1,.1-.15.19.19,0,0,1,.18,0,4.88,4.88,0,0,1,.82.5l.51-.38a5.68,5.68,0,0,0-1.42-.81.2.2,0,0,1-.13-.19v-.15c0-.17,0-.34,0-.52a25.13,25.13,0,0,0-.33-3.9.21.21,0,0,1,0-.15.17.17,0,0,1,.13-.07,28.76,28.76,0,0,1,3.08-.27.21.21,0,0,1,.2.2.49.49,0,0,1,0,.11,14.78,14.78,0,0,1-.91,5.16c.32-.3.63-.61.92-.94a15.4,15.4,0,0,0,.58-4.22.68.68,0,0,1,0-.12.2.2,0,0,1,.06-.14.15.15,0,0,1,.14-.06c.51,0,1,0,1.64.1.05-.19.1-.38.14-.58a17.15,17.15,0,0,0-1.83-.11.19.19,0,0,1-.19-.18,18.43,18.43,0,0,0-.77-4.17.2.2,0,0,1,0-.15.18.18,0,0,1,.11-.1l2.42-.7a2.17,2.17,0,0,0-.07-.24,2.83,2.83,0,0,0-.11-.31h0l-2.42.7a.19.19,0,0,1-.23-.12,19.6,19.6,0,0,0-2.06-4.09.15.15,0,0,1,0-.14.21.21,0,0,1,.09-.13c.45-.3.88-.61,1.32-1l-.48-.38c-.43.34-.81.61-1.19.87a.21.21,0,0,1-.27,0,16.79,16.79,0,0,0-2.79-2.93,12.75,12.75,0,0,0-1.39-.32,16.75,16.75,0,0,1,3.66,3.53.23.23,0,0,1,0,.16.2.2,0,0,1-.09.13,26.3,26.3,0,0,1-2.66,1.38.2.2,0,0,1-.25-.09A25.54,25.54,0,0,0,54.6,7.54a.21.21,0,0,1,0-.24,4.79,4.79,0,0,0,.6-1.14l-.63,0a4.48,4.48,0,0,1-.31.62.21.21,0,0,1-.15.09A.23.23,0,0,1,54,6.77l-.42-.44-.1-.11-.15,0-.61.07c.32.31.64.63.94,1a.19.19,0,0,1,0,.27,4.86,4.86,0,0,1-1.77,1.12.2.2,0,0,1-.26-.13l-.64-1.91-.56.17L51,8.68a.25.25,0,0,1,0,.17.19.19,0,0,1-.14.09A5.42,5.42,0,0,1,50,9a4.82,4.82,0,0,1-1.29-.17.2.2,0,0,1-.15-.21c0-.38.09-.77.17-1.17l-.2.09-.33.17,0,0-.08,0c0,.18-.06.35-.08.53a.18.18,0,0,1-.1.15.22.22,0,0,1-.18,0c-.14-.07-.27-.15-.4-.23-.18.11-.35.23-.53.36a5.72,5.72,0,0,0,1,.56.18.18,0,0,1,.12.19c0,.32,0,.65,0,1A24.15,24.15,0,0,0,48.2,14a.17.17,0,0,1,0,.15.17.17,0,0,1-.13.07,25.47,25.47,0,0,1-3,.26.14.14,0,0,1-.14-.06.2.2,0,0,1-.06-.14,14.48,14.48,0,0,1,.78-4.64q-.26.24-.51.51c-.11.11-.21.23-.31.35l-.08.11a15.23,15.23,0,0,0-.48,3.68.2.2,0,0,1-.06.14.18.18,0,0,1-.14,0c-.46,0-.94,0-1.46-.09-.06.18-.12.37-.17.58.55.06,1.09.1,1.67.11a.18.18,0,0,1,.19.18A18.58,18.58,0,0,0,45,19.72a.2.2,0,0,1,0,.15.22.22,0,0,1-.12.09l-2.44.71c.05.17.11.35.19.56l2.44-.71a.2.2,0,0,1,.24.13,18.75,18.75,0,0,0,2,3.9.21.21,0,0,1-.06.28,12.47,12.47,0,0,0-1.38,1,.39.39,0,0,1,.1.08l.14.12.22.18a13.92,13.92,0,0,1,1.27-.94.18.18,0,0,1,.26.05,17.29,17.29,0,0,0,3,3.13l.56.14.77.14a16.33,16.33,0,0,1-3.8-3.72.2.2,0,0,1,0-.15.19.19,0,0,1,.09-.14,27.21,27.21,0,0,1,2.67-1.41.21.21,0,0,1,.26.09,24.43,24.43,0,0,0,2.59,4,.2.2,0,0,1,0,.23A4.59,4.59,0,0,0,53.37,28.91ZM48.78,25A15.63,15.63,0,0,0,53,28.85a5.44,5.44,0,0,1,.54-1.26,24.67,24.67,0,0,1-2.46-3.81C50.28,24.15,49.51,24.55,48.78,25ZM61,25.26a5.5,5.5,0,0,1,1.33.77,14.39,14.39,0,0,0,1-5.31c-.84,0-1.73.11-2.65.23a25.52,25.52,0,0,1,.3,3.76c0,.18,0,.36,0,.53ZM55,7.41a25.44,25.44,0,0,1,2.4,3.66,25.22,25.22,0,0,0,2.27-1.16A15.6,15.6,0,0,0,55.6,6.22,5.78,5.78,0,0,1,55,7.41ZM54.39,27h0a.21.21,0,0,1-.15-.07,24.88,24.88,0,0,1-2.36-3.68.22.22,0,0,1,0-.16A.2.2,0,0,1,52,23c1-.43,2.11-.82,3.21-1.16a.2.2,0,0,1,.25.12l1.15,3.44a.21.21,0,0,1-.11.25,5.33,5.33,0,0,0-1.94,1.31A.2.2,0,0,1,54.39,27Zm-2.07-3.74a23.44,23.44,0,0,0,2.09,3.25,5.67,5.67,0,0,1,1.74-1.17l-1-3.09C54.16,22.52,53.22,22.86,52.32,23.23Zm5,2.09a.2.2,0,0,1-.19-.14L56,21.76a.16.16,0,0,1,0-.15.2.2,0,0,1,.12-.1c1.09-.3,2.23-.56,3.38-.77a.28.28,0,0,1,.15,0,.2.2,0,0,1,.08.13,24.56,24.56,0,0,1,.32,3.8c0,.07,0,.14,0,.2v.18a.23.23,0,0,1-.07.15.21.21,0,0,1-.17,0,5.64,5.64,0,0,0-2.45,0Zm-.9-3.49,1,3.07a5.88,5.88,0,0,1,2.2,0s0-.09,0-.14a23.54,23.54,0,0,0-.29-3.54C58.39,21.35,57.4,21.57,56.44,21.83Zm-8.51,2.49a.18.18,0,0,1-.16-.09A17.83,17.83,0,0,1,45.9,20.5a.16.16,0,0,1,0-.15.17.17,0,0,1,.12-.1l3.3-1a.2.2,0,0,1,.24.13,29.17,29.17,0,0,0,1.31,3.15.25.25,0,0,1,0,.15.2.2,0,0,1-.11.11A26.57,26.57,0,0,0,48,24.29.19.19,0,0,1,47.93,24.32Zm-1.59-3.76A17.45,17.45,0,0,0,48,23.85a27,27,0,0,1,2.45-1.29,29.92,29.92,0,0,1-1.18-2.84Zm5.27,1.9a.19.19,0,0,1-.18-.11c-.48-1-.91-2-1.29-3.08a.23.23,0,0,1,0-.16.2.2,0,0,1,.12-.1L53.9,18a.19.19,0,0,1,.24.13l1,2.9a.2.2,0,0,1,0,.15.18.18,0,0,1-.12.09,34.3,34.3,0,0,0-3.31,1.21Zm-1-3.13A28.51,28.51,0,0,0,51.7,22c.93-.39,1.93-.76,3-1.09l-.85-2.53ZM55.87,21a.19.19,0,0,1-.18-.13l-1-2.89a.23.23,0,0,1,0-.16.17.17,0,0,1,.11-.09l3.65-1.07a.22.22,0,0,1,.25.13c.34,1.09.61,2.16.82,3.18a.17.17,0,0,1,0,.15.15.15,0,0,1-.12.08c-1.08.19-2.25.45-3.48.79ZM55.16,18,56,20.52c1.11-.3,2.16-.54,3.14-.71-.18-.89-.42-1.82-.71-2.76Zm5.19,2a.2.2,0,0,1-.2-.16,31.74,31.74,0,0,0-.83-3.25.19.19,0,0,1,0-.15.23.23,0,0,1,.12-.1l3.3-1a.18.18,0,0,1,.24.13,17.43,17.43,0,0,1,.75,4,.19.19,0,0,1-.05.14.19.19,0,0,1-.14.07,26.8,26.8,0,0,0-3.18.28Zm-.6-3.33c.31,1,.56,2,.75,2.91,1-.13,1.9-.21,2.83-.25a16.69,16.69,0,0,0-.66-3.51Zm-14,3a.2.2,0,0,1-.19-.14,17,17,0,0,1-.76-4.3.17.17,0,0,1,0-.15A.22.22,0,0,1,45,15a26.76,26.76,0,0,0,3.13-.26.21.21,0,0,1,.22.16,32.28,32.28,0,0,0,.9,3.54.19.19,0,0,1,0,.15.23.23,0,0,1-.12.1l-3.3.95Zm-.55-4.26a17,17,0,0,0,.68,3.82l2.93-.85A29.11,29.11,0,0,1,48,15.19,27.92,27.92,0,0,1,45.22,15.43Zm4.8,3a.21.21,0,0,1-.19-.13A30.43,30.43,0,0,1,49,14.86a.21.21,0,0,1,0-.15.2.2,0,0,1,.12-.08c1.11-.19,2.26-.44,3.43-.76a.2.2,0,0,1,.24.13l1.06,3.15a.29.29,0,0,1,0,.16.22.22,0,0,1-.12.09l-3.64,1.06ZM49.38,15a26.55,26.55,0,0,0,.77,3l3.25-.94-.94-2.78C51.41,14.58,50.38,14.81,49.38,15Zm5.22,2.16a.19.19,0,0,1-.19-.14l-1.06-3.15a.19.19,0,0,1,0-.15.16.16,0,0,1,.11-.1c1.09-.33,2.2-.73,3.31-1.18a.2.2,0,0,1,.25.09,32.05,32.05,0,0,1,1.39,3.3.22.22,0,0,1,0,.16.23.23,0,0,1-.12.1l-3.65,1.06Zm-.81-3.22.93,2.78L58,15.75a30.8,30.8,0,0,0-1.22-2.9C55.77,13.26,54.77,13.61,53.79,13.92Zm5.4,1.88a.19.19,0,0,1-.18-.13,31.66,31.66,0,0,0-1.42-3.38.16.16,0,0,1,0-.15.18.18,0,0,1,.1-.11,26.42,26.42,0,0,0,2.76-1.43.19.19,0,0,1,.26.06,18,18,0,0,1,2,3.92.16.16,0,0,1,0,.15.22.22,0,0,1-.12.11l-3.3.95ZM58,12.3a32,32,0,0,1,1.29,3.07l2.92-.85A17.83,17.83,0,0,0,60.48,11,26.82,26.82,0,0,1,58,12.3ZM49,14.05a.16.16,0,0,1-.12,0,.22.22,0,0,1-.08-.13,23.75,23.75,0,0,1-.28-3.53c0-.12,0-.25,0-.37V9.66a.21.21,0,0,1,.08-.16.18.18,0,0,1,.16,0,5.39,5.39,0,0,0,2.34,0,.19.19,0,0,1,.22.13l1.15,3.44a.16.16,0,0,1,0,.15.19.19,0,0,1-.12.1,33.88,33.88,0,0,1-3.32.74ZM48.9,9.9V10c0,.11,0,.23,0,.35a24.46,24.46,0,0,0,.25,3.28c1-.18,1.94-.39,2.88-.64L51,9.91A5.85,5.85,0,0,1,48.9,9.9Zm4.32,3.15a.19.19,0,0,1-.18-.13L51.89,9.49A.21.21,0,0,1,52,9.24,5.41,5.41,0,0,0,54,8a.2.2,0,0,1,.15,0,.21.21,0,0,1,.14.07,24,24,0,0,1,2.33,3.58.18.18,0,0,1,0,.16.15.15,0,0,1-.11.11A32.14,32.14,0,0,1,53.28,13Zm-.9-3.51,1,3.07c.93-.28,1.86-.62,2.78-1a24.2,24.2,0,0,0-2.06-3.16A5.78,5.78,0,0,1,52.32,9.54Z"/><path class="cls-1" d="M59.76,28.41a.18.18,0,0,1-.18-.14L59.51,28a.2.2,0,0,1,.14-.24.21.21,0,0,1,.24.14l0,.19a.2.2,0,0,1,0,.11.19.19,0,0,1-.2.19Z"/><path class="cls-1" d="M24.72,112.7l1.87.82-.27.64-1.23-.53-.27.62,1.23.52-.28.64-1.22-.53-.39.9,1.22.54-.27.64-1.89-.81Z"/><path class="cls-1" d="M30,115.24l-.65.28a.77.77,0,0,0-.41-.55.33.33,0,0,0-.24,0,.2.2,0,0,0-.14.14.28.28,0,0,0,0,.18,6.77,6.77,0,0,0,.35.63c.18.3.3.48.34.56a2.18,2.18,0,0,1,.16.5,1.14,1.14,0,0,1-.06.44,1,1,0,0,1-.54.63,1.16,1.16,0,0,1-.88,0,1.27,1.27,0,0,1-.61-.41,1.61,1.61,0,0,1-.28-.75l.68-.15c.07.38.21.59.43.68a.53.53,0,0,0,.33,0,.31.31,0,0,0,.2-.19.5.5,0,0,0,0-.27,2.12,2.12,0,0,0-.27-.5,4,4,0,0,1-.51-1,1.14,1.14,0,0,1,0-.58.88.88,0,0,1,.5-.54,1.1,1.1,0,0,1,.78,0,1.41,1.41,0,0,1,.46.3A2,2,0,0,1,30,115.24Z"/><path class="cls-1" d="M33.79,116.46l-.61.32a1.59,1.59,0,0,0-1-.82,1.33,1.33,0,0,0-1,.12,1.22,1.22,0,0,0-.59.79,1.35,1.35,0,0,0,0,.69,1.16,1.16,0,0,0,.33.55,1.43,1.43,0,0,0,.6.34,1.39,1.39,0,0,0,.57,0,2.08,2.08,0,0,0,.66-.26l.34.61a2.54,2.54,0,0,1-.9.34,1.84,1.84,0,0,1-.86-.07,2,2,0,0,1-1.24-.9,2,2,0,0,1-.17-1.52,1.92,1.92,0,0,1,.51-.9,1.78,1.78,0,0,1,.88-.49,2.19,2.19,0,0,1,1,0,2.09,2.09,0,0,1,.81.42A2.19,2.19,0,0,1,33.79,116.46Z"/><path class="cls-1" d="M34.38,115.88l.69.15-.82,3.67-.68-.15Z"/><path class="cls-1" d="M35.74,116.19l2,.39-.14.68L36.31,117l-.13.66,1.31.26-.13.68-1.31-.26-.19,1,1.32.25-.14.69-2-.38Z"/><path class="cls-1" d="M38.25,116.67l.67.1,1.22,2.68.37-2.44.71.11-.56,3.71-.68-.1-1.22-2.68-.36,2.43-.71-.1Z"/><path class="cls-1" d="M41.57,117.16l2.06.23-.07.7-.68-.07-.36,3-.71-.08.34-3-.65-.08Z"/><path class="cls-1" d="M44,117.42l.71.07-.35,3.74-.7-.07Z"/><path class="cls-1" d="M46.52,117.64l.72,0,1.2,3.85-.74,0-.24-.79-1.53-.11-.36.76-.73-.06Zm.3,1-.57,1.26,1,.06Z"/><path class="cls-1" d="M50.48,117.84h.73l0,1.42h1.25l0-1.41h.71l0,3.75h-.72l0-1.66-1.26,0,0,1.66h-.73Z"/><path class="cls-1" d="M55.66,117.73a1.88,1.88,0,0,1,1.38.54,2,2,0,0,1,.61,1.4,2,2,0,0,1-.53,1.41,1.89,1.89,0,0,1-1.36.6,1.86,1.86,0,0,1-1.41-.55,2,2,0,0,1-.36-2.37,1.85,1.85,0,0,1,.7-.74A2,2,0,0,1,55.66,117.73Zm0,.7a1.16,1.16,0,0,0-.86.39,1.24,1.24,0,0,0-.33.93,1.19,1.19,0,0,0,.47,1,1.21,1.21,0,0,0,.79.26,1.13,1.13,0,0,0,.86-.38,1.21,1.21,0,0,0,.33-.92,1.25,1.25,0,0,0-.37-.9A1.2,1.2,0,0,0,55.67,118.43Z"/><path class="cls-1" d="M58.46,117.73l.7,0,1.05,2.55.69-2.67.68-.06.91,3.7-.69.06-.58-2.34-.62,2.42-.63,0-.95-2.3-.25,2.4-.68,0Z"/><path class="cls-1" d="M62.6,117.39l.71-.07.4,3.73-.71.08Z"/><path class="cls-1" d="M64,117.25l.68-.09,1.92,2.23L66.25,117l.72-.1.51,3.71-.68.1-1.93-2.23.34,2.45-.71.1Z"/><path class="cls-1" d="M67.63,116.73l.7-.13.63,3.71-.7.12Z"/><path class="cls-1" d="M71.05,116.6l-.43.56a.74.74,0,0,0-.63-.26.27.27,0,0,0-.21.12.22.22,0,0,0-.06.18.39.39,0,0,0,.1.16,4.8,4.8,0,0,0,.61.38l.57.32a1.65,1.65,0,0,1,.38.36,1,1,0,0,1,.17.4,1,1,0,0,1-.17.81,1.13,1.13,0,0,1-.75.46,1.17,1.17,0,0,1-.72-.06,1.65,1.65,0,0,1-.62-.5l.52-.47a.76.76,0,0,0,.71.37.45.45,0,0,0,.27-.17.31.31,0,0,0,.07-.27.36.36,0,0,0-.13-.23,3,3,0,0,0-.48-.3,4,4,0,0,1-.93-.61.89.89,0,0,1-.27-.49.85.85,0,0,1,.16-.72,1,1,0,0,1,.66-.41,1.1,1.1,0,0,1,.54,0A2.07,2.07,0,0,1,71.05,116.6Z"/><path class="cls-1" d="M74.91,115.66l-.39.58a.76.76,0,0,0-.65-.23.33.33,0,0,0-.2.14.17.17,0,0,0,0,.18.22.22,0,0,0,.1.15,4.94,4.94,0,0,0,.63.34c.32.15.51.25.58.29a1.63,1.63,0,0,1,.41.33,1.66,1.66,0,0,1,.2.4,1,1,0,0,1-.13.83,1.17,1.17,0,0,1-.72.5,1.38,1.38,0,0,1-.73,0,1.75,1.75,0,0,1-.64-.47l.49-.5a.77.77,0,0,0,.72.33.54.54,0,0,0,.27-.18.33.33,0,0,0,.06-.28.46.46,0,0,0-.15-.23,3.18,3.18,0,0,0-.51-.26,4.48,4.48,0,0,1-.95-.55,1,1,0,0,1-.31-.48.94.94,0,0,1,.12-.73,1,1,0,0,1,.64-.45,1.14,1.14,0,0,1,.55,0A2,2,0,0,1,74.91,115.66Z"/><path class="cls-1" d="M76.39,114.68l.69-.22,2.52,3.13-.71.23-.51-.66-1.45.48-.06.83-.71.22Zm.65.83L77,116.89l.94-.3Z"/><path class="cls-1" d="M78.75,113.88l.66-.26,1.12,2.86,1-.38.26.64-1.64.63Z"/><path class="cls-1" d="M80.61,113.15l.65-.31,1,2.2a1.57,1.57,0,0,0,.24.38.53.53,0,0,0,.24.11.62.62,0,0,0,.32-.07.53.53,0,0,0,.25-.21.5.5,0,0,0,.08-.28,1.85,1.85,0,0,0-.17-.48l-1-2.12.64-.31,1,2a3.26,3.26,0,0,1,.27.73,1.15,1.15,0,0,1,0,.48,1.19,1.19,0,0,1-.24.46,1.63,1.63,0,0,1-.46.32,1.31,1.31,0,0,1-.71.14,1.21,1.21,0,0,1-.6-.24,2.35,2.35,0,0,1-.51-.81Z"/><path class="cls-1" d="M85.76,111.16l-.29.64a.79.79,0,0,0-.68-.13.4.4,0,0,0-.18.16.21.21,0,0,0,0,.19.25.25,0,0,0,.13.14,5,5,0,0,0,.66.23,6.32,6.32,0,0,1,.62.21,1.93,1.93,0,0,1,.46.26,1.41,1.41,0,0,1,.25.37,1,1,0,0,1,0,.83,1.15,1.15,0,0,1-.64.6,1.22,1.22,0,0,1-.72.1,1.65,1.65,0,0,1-.7-.37l.4-.57a.76.76,0,0,0,.77.22.57.57,0,0,0,.24-.22.35.35,0,0,0,0-.28.47.47,0,0,0-.19-.21,4.68,4.68,0,0,0-.54-.19,4.55,4.55,0,0,1-1-.39,1,1,0,0,1-.37-.43.91.91,0,0,1,0-.74,1,1,0,0,1,.56-.54,1.1,1.1,0,0,1,.54-.09A2.1,2.1,0,0,1,85.76,111.16Z"/><path class="cls-1" d="M79.62,89.93H73.9a.39.39,0,0,1-.39-.39V84.29A11.91,11.91,0,0,1,70.77,83l-3.84,3.83a.38.38,0,0,1-.55,0l-4-4a.36.36,0,0,1-.12-.27.36.36,0,0,1,.12-.28l4.09-4.1a13.09,13.09,0,0,1-.93-2.48H59.61a.39.39,0,0,1-.39-.39V69.54a.39.39,0,0,1,.39-.39h5.83a12.76,12.76,0,0,1,.92-2.56l-4-4a.38.38,0,0,1,0-.55l4-4a.38.38,0,0,1,.55,0l3.7,3.69a12,12,0,0,1,2.88-1.41v-5a.39.39,0,0,1,.39-.39h5.72a.4.4,0,0,1,.39.39V60a12.12,12.12,0,0,1,3.22,1.33L86.58,58a.4.4,0,0,1,.56,0l4,4a.39.39,0,0,1,.11.27.39.39,0,0,1-.11.28L87.75,66A12.75,12.75,0,0,1,89,69.15H93.9a.38.38,0,0,1,.39.39v5.71a.38.38,0,0,1-.39.39h-5a12.46,12.46,0,0,1-1.25,3.07l3.51,3.51a.39.39,0,0,1,.11.28.39.39,0,0,1-.11.27l-4,4a.39.39,0,0,1-.56,0l-3.49-3.49A11.77,11.77,0,0,1,80,84.56v5A.4.4,0,0,1,79.62,89.93Zm-5.33-.79h4.93V84.25a.39.39,0,0,1,.31-.38A11.18,11.18,0,0,0,83,82.49a.39.39,0,0,1,.48.06L86.86,86l3.48-3.48L86.9,79.05a.39.39,0,0,1-.06-.48,11.85,11.85,0,0,0,1.4-3.41.39.39,0,0,1,.38-.3h4.89V69.93H88.68a.4.4,0,0,1-.39-.31,12,12,0,0,0-1.37-3.49.41.41,0,0,1,.06-.48l3.37-3.36-3.49-3.48L83.57,62.1a.39.39,0,0,1-.49,0,11.16,11.16,0,0,0-3.55-1.46.39.39,0,0,1-.31-.38V55.64H74.29v4.91a.41.41,0,0,1-.27.38,11,11,0,0,0-3.21,1.57.41.41,0,0,1-.51,0l-3.65-3.65-3.48,3.48,3.94,3.94a.39.39,0,0,1,.07.46,12.29,12.29,0,0,0-1.05,2.93.39.39,0,0,1-.38.31H60v4.93h5.8a.39.39,0,0,1,.38.3A12,12,0,0,0,67.26,78a.39.39,0,0,1-.07.46l-4,4L66.65,86l3.79-3.78a.38.38,0,0,1,.5,0A11.08,11.08,0,0,0,74,83.63a.39.39,0,0,1,.27.38Z"/><path class="cls-1" d="M77.21,80.56a8.28,8.28,0,1,1,8.05-8.28A8.17,8.17,0,0,1,77.21,80.56Zm0-15.77a7.49,7.49,0,1,0,7.27,7.49A7.39,7.39,0,0,0,77.21,64.79ZM77.1,77.58a5.42,5.42,0,1,1,5.42-5.41A5.42,5.42,0,0,1,77.1,77.58Zm0-10a4.64,4.64,0,1,0,4.64,4.64A4.64,4.64,0,0,0,77.1,67.53Z"/><path class="cls-1" d="M77.21,75.36a3.14,3.14,0,1,1,3.25-3.13A3.19,3.19,0,0,1,77.21,75.36Zm0-5.48a2.35,2.35,0,1,0,2.47,2.35A2.4,2.4,0,0,0,77.21,69.88Z"/></g></g></svg>