<?xml version="1.0" encoding="iso-8859-1"?>
<!-- Generator: Adobe Illustrator 19.0.0, SVG Export Plug-In . SVG Version: 6.00 Build 0)  -->
<svg version="1.1" id="Capa_1" xmlns="http://www.w3.org/2000/svg" xmlns:xlink="http://www.w3.org/1999/xlink" x="0px" y="0px"
	 viewBox="0 0 512 512" style="enable-background:new 0 0 512 512;" xml:space="preserve">
<path style="fill:#3E721D;" d="M500.741,442.565c-19.928-32.029-48.057-71.956-75.755-113.495
	C351.03,202.855,403.231,64.166,383.375,19.577c-8.057-18.129-55.812,13.9-79.927,65.654c-5.123-1.526-10.748-2.259-16.834-2.13
	c2.23-34.503,4.216-62.014-2.777-77.754c-10.216-22.993-84.416,34.805-93.006,111.222c-26.575,14.475-46.359,28.144-46.359,28.144
	s-13.669,19.799-28.114,46.374C39.927,199.633-17.9,273.863,5.107,284.092c15.77,7.035,43.366,5.021,78,2.777
	c-0.087,6.043,0.662,11.597,2.202,16.676c-51.927,24.086-84.143,72.028-65.985,80.1c47.222,21.007,199.998-38.863,331.694,56.014
	c4.144,2.978,6.878,4.633,8.633,5.338c30.475,20.619,59.193,40.302,83.323,55.338c41.366,25.755,57.006-0.101,57.006-0.101
	S526.509,483.946,500.741,442.565"/>
<path style="fill:#77B255;" d="M501.021,498.123c5.309-7.842,4.863-18.389-2.072-25.338c0,0-170.646-227.508-199.062-341.276
	c-28.445-113.755-63.265-82.546-53.078,6.82c4.676,40.978,26.143,88.329,54.762,135.034L172.91,144.717
	c-7.856-7.856-20.59-7.856-28.445,0c-7.842,7.856-7.856,20.59,0,28.445l128.632,128.632c-46.69-28.589-94.042-50.057-135.006-54.733
	c-89.38-10.201-120.589,24.633-6.834,53.064c113.783,28.432,341.291,199.077,341.291,199.077c6.921,6.95,17.467,7.381,25.28,2.101
	c0.504,0.1,0.935,0.129,1.122-0.057c0.375-0.375,0.504-0.863,0.835-1.238c0.36-0.331,0.848-0.446,1.194-0.806
	C501.18,499.015,501.123,498.568,501.021,498.123"/>
<path style="fill:#DD2E44;" d="M195.157,95.869c25.999,25.986,24.763,69.337-2.705,96.833
	c-27.497,27.467-54.259,12.101-80.258-13.885c-25.971-25.971-41.338-52.748-13.856-80.243
	C125.82,71.106,169.172,69.883,195.157,95.869"/>
<path style="fill:#EA596E;" d="M178.564,112.462c25.999,25.999,41.366,52.748,13.885,80.23s-70.848,28.705-96.833,2.719
	s-13.87-80.243-12.978-112.517C83.715,45.081,147.197,81.081,178.564,112.462"/>
<path style="fill:#DD2E44;" d="M323.119,223.845c26.014,25.999,24.776,69.337-2.69,96.833
	c-27.497,27.482-54.244,12.101-80.243-13.87c-25.971-25.986-41.352-52.762-13.87-80.243S297.163,197.86,323.119,223.845"/>
<path style="fill:#EA596E;" d="M306.554,240.441c25.986,25.999,41.338,52.748,13.87,80.23
	c-27.482,27.482-70.848,28.705-96.819,2.705c-25.986-25.986-13.885-80.215-12.978-112.502
	C211.707,173.06,275.173,209.074,306.554,240.441"/>
<path style="fill:#F4900C;" d="M158.192,228.808c34.086,15.136,47.87,55.77,30.776,90.762c-17.079,35.007-48.258,30-82.33,14.863
	c-34.1-15.136-58.201-34.632-41.107-69.668C82.61,229.772,124.092,213.672,158.192,228.808"/>
<path style="fill:#FFCC4D;" d="M147.891,249.925c34.072,15.136,58.186,34.647,41.079,69.639
	c-17.065,35.007-58.575,51.122-92.646,35.986c-34.1-15.123-41.107-69.639-51.366-99.898
	C32.913,220.213,106.74,231.68,147.891,249.925"/>
<path style="fill:#F4900C;" d="M355.703,97.891c16.446,35.208,1.18,77.107-34.028,93.524c-35.208,16.403-55.841-8.734-72.273-43.971
	c-16.431-35.223-22.446-67.208,12.762-83.625C297.388,47.403,339.258,62.64,355.703,97.891"/>
<path style="fill:#FFCC4D;" d="M334.462,107.797c16.418,35.237,22.431,67.208-12.791,83.625
	c-35.194,16.403-77.093,1.166-93.524-34.072c-16.417-35.223,12.791-83.625,24.115-114.79
	C265.557,6.028,314.606,65.266,334.462,107.797"/>
<g>
</g>
<g>
</g>
<g>
</g>
<g>
</g>
<g>
</g>
<g>
</g>
<g>
</g>
<g>
</g>
<g>
</g>
<g>
</g>
<g>
</g>
<g>
</g>
<g>
</g>
<g>
</g>
<g>
</g>
</svg>
