<svg xmlns="http://www.w3.org/2000/svg" viewBox="0 0 196.4 167.28"><defs><style>.cls-1{isolation:isolate;}.cls-2,.cls-5{fill:#f4cc22;}.cls-3{fill:#f2ea5b;}.cls-4{fill:#e86f64;}.cls-5{opacity:0.6;mix-blend-mode:multiply;}.cls-6{font-size:70px;fill:#010001;stroke:#1f140f;stroke-miterlimit:10;stroke-width:4px;font-family:MyriadPro-Regular, Myriad Pro;}</style></defs><title>Recurso 6</title><g class="cls-1"><g id="Capa_2" data-name="Capa 2"><g id="Capa_1-2" data-name="Capa 1"><path class="cls-2" d="M65.81,20.15a8.13,8.13,0,0,0,6.31,6.31.17.17,0,0,1,0,.33,8.12,8.12,0,0,0-6.31,6.31.17.17,0,0,1-.33,0,8.13,8.13,0,0,0-6.31-6.31.17.17,0,0,1,0-.33,8.14,8.14,0,0,0,6.31-6.31A.17.17,0,0,1,65.81,20.15Z"/><path class="cls-3" d="M74.59,12a6,6,0,0,0,4.69,4.69.13.13,0,0,1,0,.25,6,6,0,0,0-4.69,4.69.13.13,0,0,1-.25,0A6.07,6.07,0,0,0,69.65,17a.13.13,0,0,1,0-.25A6,6,0,0,0,74.34,12,.13.13,0,0,1,74.59,12Z"/><path class="cls-2" d="M145.14,79.06a8.14,8.14,0,0,0,6.31,6.31.17.17,0,0,1,0,.33A8.13,8.13,0,0,0,145.14,92a.17.17,0,0,1-.33,0,8.12,8.12,0,0,0-6.31-6.31.17.17,0,0,1,0-.33,8.13,8.13,0,0,0,6.31-6.31A.17.17,0,0,1,145.14,79.06Z"/><path class="cls-4" d="M153.91,77.42a2.32,2.32,0,1,1-2.32-2.31A2.32,2.32,0,0,1,153.91,77.42Z"/><rect class="cls-2" x="94" y="38.92" width="8.65" height="93.23"/><path class="cls-3" d="M105.1,126.46H91.29a16.83,16.83,0,0,0-16.83,16.83v20.34a3.65,3.65,0,0,0,3.65,3.65h40.18a3.65,3.65,0,0,0,3.64-3.65V143.29A16.82,16.82,0,0,0,105.1,126.46Z"/><path class="cls-3" d="M100.82,1.63l16.84,34.11a2.93,2.93,0,0,0,2.2,1.6l37.64,5.47a2.92,2.92,0,0,1,1.62,5L131.89,74.35a2.94,2.94,0,0,0-.85,2.59l6.43,37.49a2.93,2.93,0,0,1-4.25,3.08L99.56,99.81a3,3,0,0,0-2.72,0l-33.67,17.7a2.93,2.93,0,0,1-4.25-3.08l6.43-37.49a2.9,2.9,0,0,0-.84-2.59L37.28,47.8a2.92,2.92,0,0,1,1.62-5l37.64-5.47a2.94,2.94,0,0,0,2.2-1.6L95.57,1.63A2.93,2.93,0,0,1,100.82,1.63Z"/><path class="cls-4" d="M4.66,40.85c2,4.09,5.25,6,8.6,6a24.45,24.45,0,0,0-1.2-13,12,12,0,0,0-5.68-6.69c-1.1-.53-2.51.68-2.86,2.49A18.45,18.45,0,0,0,4.66,40.85Z"/><path class="cls-4" d="M23.11,43.79c-3,2.63-6.54,3.77-9.85,3.08a16,16,0,0,1,5.55-11.42,10.2,10.2,0,0,1,8.1-2.31,2.14,2.14,0,0,1,1.34,3A18.46,18.46,0,0,1,23.11,43.79Z"/><path class="cls-4" d="M3.4,62.69c2.74,3.51,6.34,4.67,9.64,4A23.12,23.12,0,0,0,9.22,54.55a12,12,0,0,0-6.94-5.21C1.1,49.06,0,50.47,0,52.25A17.64,17.64,0,0,0,3.4,62.69Z"/><path class="cls-4" d="M22.07,61.86a11.65,11.65,0,0,1-9,4.88,15.16,15.16,0,0,1,3.13-12A10.25,10.25,0,0,1,23.61,51a2.09,2.09,0,0,1,1.93,2.53A17.59,17.59,0,0,1,22.07,61.86Z"/><path class="cls-4" d="M6.49,83.9c3.36,2.85,7.12,3.26,10.23,2a22.36,22.36,0,0,0-6.12-11,12.07,12.07,0,0,0-7.83-3.63c-1.22,0-2,1.54-1.66,3.25A17.28,17.28,0,0,0,6.49,83.9Z"/><path class="cls-4" d="M24.62,79.4a11.69,11.69,0,0,1-7.9,6.51,14.81,14.81,0,0,1,.73-12.16A10.3,10.3,0,0,1,24,68.66a2.06,2.06,0,0,1,2.39,2A17,17,0,0,1,24.62,79.4Z"/><path class="cls-4" d="M13.61,103.9a9.84,9.84,0,0,0,10.41,0,21.87,21.87,0,0,0-8.12-9.54,12.07,12.07,0,0,0-8.37-2c-1.2.2-1.71,1.9-1,3.48A17.15,17.15,0,0,0,13.61,103.9Z"/><path class="cls-4" d="M30.51,96A11.73,11.73,0,0,1,24,103.86a14.7,14.7,0,0,1-1.63-12,10.28,10.28,0,0,1,5.44-6.24,2,2,0,0,1,2.74,1.52A16.82,16.82,0,0,1,30.51,96Z"/><path class="cls-4" d="M24.46,122.11c4.19,1.34,7.82.28,10.21-2.06a21.92,21.92,0,0,0-9.82-7.8,12.07,12.07,0,0,0-8.6-.3c-1.13.43-1.3,2.19-.3,3.6A17.2,17.2,0,0,0,24.46,122.11Z"/><path class="cls-4" d="M39.49,111a11.73,11.73,0,0,1-4.82,9,14.73,14.73,0,0,1-3.94-11.49,10.36,10.36,0,0,1,4.12-7.18,2.05,2.05,0,0,1,3,1A17,17,0,0,1,39.49,111Z"/><path class="cls-4" d="M38.74,137.94c4.4.51,7.77-1.22,9.65-4a22.37,22.37,0,0,0-11.24-5.79,12,12,0,0,0-8.51,1.36c-1,.65-.85,2.41.42,3.61A17.37,17.37,0,0,0,38.74,137.94Z"/><path class="cls-4" d="M51.3,124.1a11.65,11.65,0,0,1-2.91,9.84,14.91,14.91,0,0,1-6.2-10.56,10.3,10.3,0,0,1,2.63-7.87,2,2,0,0,1,3.11.37A17.12,17.12,0,0,1,51.3,124.1Z"/><path class="cls-4" d="M56.15,150.81c4.48-.33,7.47-2.7,8.75-5.79a23.27,23.27,0,0,0-12.39-3.56,12,12,0,0,0-8.13,3c-.88.83-.35,2.54,1.15,3.48A18,18,0,0,0,56.15,150.81Z"/><path class="cls-4" d="M65.7,134.75c1.3,3.74,1.06,7.45-.8,10.27a15.28,15.28,0,0,1-8.39-9.24,10.22,10.22,0,0,1,1-8.26,2.07,2.07,0,0,1,3.15-.24A17.89,17.89,0,0,1,65.7,134.75Z"/><path class="cls-4" d="M191.73,40.85c-1.95,4.09-5.25,6-8.6,6a24.65,24.65,0,0,1,1.2-13c1.3-3.22,3.27-5.55,5.69-6.69,1.09-.53,2.51.68,2.85,2.49A18.31,18.31,0,0,1,191.73,40.85Z"/><path class="cls-4" d="M173.28,43.79c3,2.63,6.55,3.77,9.85,3.08a15.88,15.88,0,0,0-5.55-11.42,10.18,10.18,0,0,0-8.09-2.31,2.14,2.14,0,0,0-1.35,3A18.46,18.46,0,0,0,173.28,43.79Z"/><path class="cls-4" d="M193,62.69c-2.73,3.51-6.34,4.67-9.63,4a23.11,23.11,0,0,1,3.81-12.19,12,12,0,0,1,7-5.21c1.18-.28,2.31,1.13,2.28,2.91A17.65,17.65,0,0,1,193,62.69Z"/><path class="cls-4" d="M174.33,61.86a11.62,11.62,0,0,0,9,4.88,15.2,15.2,0,0,0-3.13-12A10.27,10.27,0,0,0,172.78,51a2.09,2.09,0,0,0-1.92,2.53A17.49,17.49,0,0,0,174.33,61.86Z"/><path class="cls-4" d="M189.91,83.9c-3.36,2.85-7.12,3.26-10.23,2a22.28,22.28,0,0,1,6.12-11,12.07,12.07,0,0,1,7.83-3.63c1.21,0,2,1.54,1.66,3.25A17.28,17.28,0,0,1,189.91,83.9Z"/><path class="cls-4" d="M171.77,79.4a11.68,11.68,0,0,0,7.91,6.51A14.81,14.81,0,0,0,179,73.75a10.29,10.29,0,0,0-6.56-5.09,2.05,2.05,0,0,0-2.38,2A17,17,0,0,0,171.77,79.4Z"/><path class="cls-4" d="M182.79,103.9c-3.85,2.12-7.61,1.79-10.42,0a21.93,21.93,0,0,1,8.12-9.54,12.1,12.1,0,0,1,8.38-2c1.2.2,1.7,1.9,1,3.48A17.2,17.2,0,0,1,182.79,103.9Z"/><path class="cls-4" d="M165.88,96a11.76,11.76,0,0,0,6.49,7.91,14.67,14.67,0,0,0,1.63-12,10.25,10.25,0,0,0-5.44-6.24,2,2,0,0,0-2.73,1.52A16.92,16.92,0,0,0,165.88,96Z"/><path class="cls-4" d="M171.93,122.11a9.83,9.83,0,0,1-10.21-2.06,22,22,0,0,1,9.83-7.8,12,12,0,0,1,8.59-.3c1.13.43,1.31,2.19.31,3.6A17.22,17.22,0,0,1,171.93,122.11Z"/><path class="cls-4" d="M156.91,111a11.73,11.73,0,0,0,4.81,9,14.78,14.78,0,0,0,3.95-11.49,10.33,10.33,0,0,0-4.13-7.18,2,2,0,0,0-3,1A16.76,16.76,0,0,0,156.91,111Z"/><path class="cls-4" d="M157.65,137.94c-4.4.51-7.76-1.22-9.65-4a22.44,22.44,0,0,1,11.25-5.79,12,12,0,0,1,8.5,1.36c1,.65.85,2.41-.41,3.61A17.4,17.4,0,0,1,157.65,137.94Z"/><path class="cls-4" d="M145.09,124.1c-.47,3.89.53,7.45,2.91,9.84a14.88,14.88,0,0,0,6.2-10.56,10.29,10.29,0,0,0-2.62-7.87,2.05,2.05,0,0,0-3.12.37A17.32,17.32,0,0,0,145.09,124.1Z"/><path class="cls-4" d="M140.25,150.81c-4.48-.33-7.47-2.7-8.75-5.79a23.27,23.27,0,0,1,12.39-3.56,12,12,0,0,1,8.13,3c.88.83.34,2.54-1.16,3.48A17.92,17.92,0,0,1,140.25,150.81Z"/><path class="cls-4" d="M130.7,134.75c-1.3,3.74-1.06,7.45.8,10.27a15.31,15.31,0,0,0,8.39-9.24,10.22,10.22,0,0,0-1-8.26,2.07,2.07,0,0,0-3.15-.24A17.87,17.87,0,0,0,130.7,134.75Z"/><path class="cls-5" d="M105.1,126.46h-2.45v-25l30.57,16.07a2.93,2.93,0,0,0,4.25-3.08L131,76.94a2.94,2.94,0,0,1,.85-2.59L159.12,47.8a2.92,2.92,0,0,0-1.62-5l-37.64-5.47a2.93,2.93,0,0,1-2.2-1.6L100.82,1.63A2.88,2.88,0,0,0,98.2,0V167.28h20.09a3.65,3.65,0,0,0,3.64-3.65V143.29A16.82,16.82,0,0,0,105.1,126.46Z"/><text class="cls-6" transform="matrix(1.06, -0.02, 0.01, 1, 78.39, 89.73)">1</text></g></g></g></svg>